<svg width="2500" height="372" viewBox="0 0 2500 372" fill="none" xmlns="http://www.w3.org/2000/svg">
<path d="M1505.68 0.0136687V263.06C1505.68 263.06 1505.68 370.383 1381.52 371.436H1179.51C1179.51 371.436 1152.15 370.383 1140.57 349.34L1104.8 292.521H1333.12C1333.12 292.521 1383.63 291.469 1383.63 252.538V0.0136687H1505.68ZM882.789 0.0136687L1112.17 371.436H969.068L930.137 304.096H719.7L753.369 247.277C753.369 247.277 765.996 225.182 792.3 225.182H884.893L803.874 88.3966L640.785 371.436H497.688L727.064 0.0136687H882.789ZM1879.21 0.0136687L2106.48 371.436H1965.49L1925.51 304.096H1714.02L1748.74 247.277C1748.74 247.277 1762.42 225.182 1788.72 225.182H1881.31L1800.3 88.3966L1635.1 371.436H1492L1721.38 0.0136687H1879.21ZM2500 0.0136687V263.06C2500 263.06 2498.95 370.383 2377.95 371.436H2173.82C2173.82 371.436 2145.41 370.383 2133.84 349.34L2099.12 292.521H2328.49C2328.49 292.521 2380.05 291.469 2380.05 252.538V0.0136687H2500ZM0 0.000449278V371.427H122.049V75.7729H332.494C375.634 75.7729 375.644 107.332 375.644 107.332C375.644 136.793 332.494 136.797 332.494 136.797H196.759C171.507 136.797 157.826 156.794 157.826 156.794L122.049 213.601H330.4C375.644 213.601 375.644 252.534 375.644 252.534C375.644 291.465 330.4 292.529 330.4 292.529H196.759C171.507 291.477 157.826 313.558 157.826 313.558L122.049 371.427H332.494C511.366 370.375 511.378 270.438 511.378 270.438C511.378 205.202 427.201 182.041 427.201 182.041C511.376 160.998 511.379 95.7698 511.379 95.7698C511.379 -1.03115 332.494 0.000449278 332.494 0.000449278H0Z" fill="black"/>
</svg>
