<svg width="2500" height="227" viewBox="0 0 2500 227" fill="none" xmlns="http://www.w3.org/2000/svg">
<path d="M56.7453 175.504C56.7453 184.676 61.8937 189.569 70.8018 189.569L229.743 189.553V226.718H36.6382C15.23 226.718 0 211.488 0 190.079V36.7579C0 15.222 15.23 0.127717 36.6382 0.127717H229.743V37.1889L70.8099 37.1809C62.0374 37.1809 56.7373 41.5312 56.7373 51.2376L56.7453 175.504ZM602.271 126.589V175.504C602.271 184.676 607.419 189.569 616.327 189.569L794.441 189.553V226.718H582.164C560.763 226.718 545.525 211.488 545.525 190.079V36.7579C545.525 15.222 560.763 0.127717 582.164 0.127717H777.28V37.1889L616.343 37.1809C607.571 37.1809 602.271 41.5312 602.271 51.2376V89.4801H778.078V126.597L602.271 126.589ZM439.243 126.589V226.638H495.996V0.0718417H439.243V89.4721H312.406V0.0718417H255.653V226.638H312.406V126.589H439.243ZM2244.12 0V37.1809L2343.69 37.1969V226.638H2400.41V37.1969L2500 37.1809V0H2244.12ZM1730.06 226.622L1730.05 0.0319293L1786.85 0.0159634V189.465L1963.85 189.489V226.654L1730.06 226.622ZM964.877 226.678C986.229 226.678 991.617 216.9 997.205 205.126C1002.79 193.352 1089.03 0.087805 1089.03 0.087805H1029.87C1029.87 0.087805 952.72 183.183 951.706 185.37C950.237 188.563 948.314 188.962 942.926 188.962C937.538 188.962 935.614 188.563 934.137 185.37C933.132 183.183 855.984 0.087805 855.984 0.087805H796.82C796.82 0.087805 883.059 193.352 888.647 205.126C894.235 216.907 899.622 226.678 920.975 226.678H964.877ZM1643.68 0.0638587H1456.87C1435.46 0.0638587 1420.23 15.1661 1420.23 36.694V190.032C1420.23 211.432 1435.46 226.662 1456.87 226.662H1643.68C1665.1 226.662 1680.32 211.432 1680.32 190.032V36.694C1680.32 15.1661 1665.1 0.0638587 1643.68 0.0638587ZM1623.57 175.448C1623.57 184.62 1618.42 189.505 1609.52 189.505H1491.03C1482.13 189.505 1476.98 184.628 1476.98 175.448V51.1737C1476.98 41.4674 1482.27 37.1171 1491.05 37.1171H1609.51C1618.28 37.1171 1623.57 41.4674 1623.57 51.1737V175.448ZM2039.06 126.589V175.504C2039.06 184.676 2044.21 189.569 2053.12 189.569L2231.22 189.553V226.718H2018.95C1997.54 226.718 1982.31 211.488 1982.31 190.079V36.7579C1982.31 15.222 1997.54 0.127717 2018.95 0.127717H2214.06V37.1889L2053.13 37.1809C2044.35 37.1809 2039.05 41.5312 2039.05 51.2376V89.4801H2214.85V126.597L2039.06 126.589ZM1312.88 80.4044C1312.88 89.5839 1307.73 94.469 1298.83 94.469H1209.52C1201.11 94.469 1193.59 101.421 1193.59 110.13C1193.59 115.143 1195.64 119.725 1198.33 122.215C1202.21 125.807 1324.47 226.853 1324.47 226.853L1410.4 226.765L1285.85 131.522L1333 131.506C1354.4 131.506 1369.63 116.284 1369.63 94.8841V36.8377C1369.63 15.3018 1354.4 0.207537 1333 0.207537H1112.98V226.765H1169.64V37.2288L1298.83 37.2528C1307.6 37.2528 1312.89 41.6111 1312.89 51.3174V80.4044H1312.88Z" fill="black"/>
</svg>
