<svg width="2500" height="312" viewBox="0 0 2500 312" fill="none" xmlns="http://www.w3.org/2000/svg">
<path d="M333.444 307.689H131.173C98.6552 307.689 65.5864 294.756 40.7848 272.663C14.3298 249.492 0 218.777 0 185.907C0 153.036 14.3298 122.86 40.7848 99.1503C65.5864 77.057 98.6552 64.1242 131.173 64.1242H333.444V112.083H133.929C90.388 112.083 56.2169 146.57 56.2169 185.368C56.2169 224.705 89.8368 258.653 133.929 258.653H333.444V307.689ZM879.078 64.6631H542.328V112.622H683.973V307.689H737.434V112.622H879.078V64.6631ZM423.832 64.6631H477.293V307.15H423.832V64.6631ZM1590.06 312H1481.48C1412.04 312 1350.31 264.041 1350.31 188.601C1350.31 112.622 1413.69 60.3524 1485.89 60.3524H1585.1C1657.3 60.3524 1720.68 108.311 1720.68 188.601C1721.23 264.041 1660.05 312 1590.06 312ZM1486.44 107.772C1441.25 107.772 1406.53 143.876 1406.53 188.062C1406.53 229.554 1439.04 264.041 1481.48 264.041H1590.06C1632.5 264.041 1665.01 230.093 1665.01 188.062C1665.01 143.876 1630.29 107.772 1585.1 107.772H1486.44ZM1913.58 36.6425H1836.42C1825.95 36.6425 1817.68 28.5596 1817.68 18.3213C1817.68 8.08292 1825.95 0 1836.42 0H1913.58C1924.05 0 1932.32 8.08292 1932.32 18.3213C1931.77 28.5596 1923.5 36.6425 1913.58 36.6425ZM2053.57 36.6425H1976.41C1965.94 36.6425 1957.67 28.5596 1957.67 18.3213C1957.67 8.08292 1965.94 0 1976.41 0H2053.57C2064.04 0 2072.31 8.08292 2072.31 18.3213C2072.31 28.5596 2063.49 36.6425 2053.57 36.6425ZM2096.01 112.622V64.6631H1793.98V307.689H2096.01V259.731H1847.44V210.155H2064.59V162.197H1847.44V112.622H2096.01ZM1153 211.233H1200.95C1242.28 211.233 1282.52 192.912 1282.52 140.104C1282.52 92.6839 1242.28 64.6631 1200.95 64.6631H943.011V307.15H996.473V112.622H1198.19C1214.73 112.622 1226.3 128.787 1226.3 142.259C1226.3 155.73 1214.18 171.896 1198.19 171.896H1044.42V188.601L1214.73 306.611H1293.54L1153 211.233ZM2390.87 64.6631H2172.07V307.15H2225.53V112.622H2382.05C2418.98 112.622 2448.74 141.72 2448.74 177.824V307.689H2500V171.896C2500 112.622 2450.95 64.6631 2390.87 64.6631Z" fill="black"/>
</svg>
