<svg width="2500" height="1538" viewBox="0 0 2500 1538" fill="none" xmlns="http://www.w3.org/2000/svg">
<path d="M0 0L49.8182 1538H291.955L286.659 900.224H489.705V701.417H286.659L287.409 200.966H552.5L551.068 0H0ZM646.796 0L677.432 1538H927.477L932.546 0.0227209L646.796 0ZM1819 0V193.991H2016.5L2010.82 1538H2252.73L2304.11 193.787H2500L2498.5 0H1819ZM1309.61 711.823L1312.34 189.424H1451.98C1515.27 305.755 1555.93 459.621 1587.82 711.823H1309.61ZM1086.55 1537.95H1318.02L1320.61 901.997H1597.95C1619.75 1014.24 1625.09 1360.73 1626.39 1537.95H1850.93C1872.18 752.789 1806.36 309.004 1624.52 0H1065.36L1086.55 1537.95Z" fill="black"/>
</svg>
