<svg width="2500" height="856" viewBox="0 0 2500 856" fill="none" xmlns="http://www.w3.org/2000/svg">
<path d="M1763.94 526.834C1764.29 529.07 1767.21 531.082 1770.01 532.089C1771.18 532.424 1771.64 533.095 1770.48 535.443C1762.31 551.99 1754.96 561.606 1744.81 576.14C1735.47 589.557 1724.85 599.955 1712.13 610.018C1692.76 625.335 1666.04 641.883 1643.87 630.814C1634.07 625.894 1629.87 612.701 1629.99 602.08C1630.45 572.004 1644.46 541.257 1670.13 510.957C1701.52 474.061 1736.17 454.83 1758.81 465.228C1782.38 476.073 1774.91 502.124 1764.41 522.585C1763.69 523.89 1763.52 525.413 1763.94 526.834ZM2016.45 293.157C2018.08 290.25 2016.45 288.126 2012.6 288.126H1946.67C1941.77 288.126 1939.21 288.797 1936.99 293.157C1929.4 307.021 1837.22 439.289 1820.07 465.004C1817.27 468.918 1813.65 468.359 1813.3 463.886C1811.55 448.681 1797.78 431.127 1776.08 422.742C1760.44 416.692 1743.4 414.762 1726.72 417.151C1696.38 421.176 1669.43 436.494 1645.62 453.712C1609.92 479.763 1579.11 513.529 1539.21 538.573C1517.38 552.102 1487.63 563.953 1467.68 546.288C1449.71 530.3 1451.69 494.633 1479.35 467.129C1482.26 464.222 1485.76 466.682 1485.18 469.253C1483.69 475.235 1483.88 481.488 1485.72 487.378C1487.56 493.269 1491 498.587 1495.68 502.795C1507.7 513.081 1524.85 514.311 1539.67 507.267C1547.96 503.127 1555.08 497.116 1560.4 489.753C1565.73 482.39 1569.11 473.896 1570.24 465.004C1571.22 458.461 1570.78 451.794 1568.95 445.42C1567.12 439.047 1563.94 433.104 1559.6 427.962C1555.26 422.821 1549.87 418.592 1543.75 415.539C1537.63 412.486 1530.92 410.675 1524.04 410.219C1501.17 408.654 1479.11 416.257 1457.64 433.251C1447.51 441.084 1438.7 450.36 1431.5 460.756C1429.17 463.886 1425.79 464.11 1425.9 459.638C1426.95 423.636 1411.43 403.399 1380.4 402.728C1356.36 402.169 1330.57 414.691 1310.5 430.009C1288.56 446.892 1269.31 469.365 1248.66 490.385C1246.21 493.068 1243.99 492.956 1243.17 487.925C1243.29 465.578 1236.95 443.637 1224.85 424.53C1222.72 421.559 1219.51 419.448 1215.85 418.602C1212.19 417.757 1208.33 418.235 1205.02 419.946C1201.63 421.623 1190.08 426.655 1181.68 433.251C1177.48 436.606 1175.84 441.301 1177.71 447.451C1188.8 483.005 1186.35 523.479 1171.29 557.692C1157.41 588.998 1130.57 617.285 1098.95 626.789C1078.18 633.162 1056.47 630.031 1043.06 612.254C1024.74 587.88 1032.09 545.505 1059.51 510.174C1083.78 479.092 1118.79 459.414 1153.67 446.668C1157.76 445.215 1158.69 442.643 1157.53 439.289L1151.34 422.965C1148.07 414.691 1139.09 413.462 1128.24 414.58C1102.8 417.375 1079.93 425.76 1057.29 437.276C998.132 467.688 968.377 526.498 955.425 558.028C951.024 569.826 944.767 580.911 936.872 590.899C927.537 602.08 915.868 612.366 894.398 630.367C893.228 631.39 892.428 632.743 892.114 634.23C891.799 635.717 891.986 637.262 892.648 638.64C897.04 646.307 902.583 653.313 909.1 659.436C912.601 661.114 916.685 658.766 918.318 657.648C933.254 647.92 951.224 632.491 959.975 621.981C963.009 618.403 966.277 619.969 967.91 625.335C971.865 639.298 979.338 652.117 989.674 662.664C1000.01 673.211 1012.89 681.163 1027.19 685.823C1081.45 703.377 1137.81 677.996 1180.28 633.721C1207.23 605.769 1217.03 587.545 1227.42 575.358C1244.92 554.45 1279.58 507.826 1320.77 477.974C1335.94 466.905 1353.79 458.52 1362.78 464.11C1370.01 468.582 1372.34 478.98 1360.79 499.217C1318.79 572.786 1256.94 659.101 1245.51 680.121C1243.41 683.699 1245.27 686.605 1249.24 686.605H1312.95C1316.33 686.382 1317.85 684.928 1319.49 682.692C1351.69 634.28 1382.03 588.216 1414.58 540.698C1416.45 537.791 1418.09 540.027 1418.09 541.257C1418.9 552.214 1421.59 567.308 1428.59 577.258C1433.63 585.382 1440.81 592.094 1449.41 596.724C1458.01 601.355 1467.73 603.741 1477.6 603.645C1491.28 603.824 1504.83 601.074 1517.27 595.595C1530.8 590.787 1541.77 584.526 1549.94 578.824C1554.84 575.581 1555.77 581.06 1555.54 581.843C1548.07 620.192 1557.29 665.698 1597.2 684.705C1644.81 707.066 1697.2 675.537 1727.42 646.914C1730.34 644.119 1733.49 644.454 1733.84 650.38C1734.54 661.337 1739.67 674.195 1749.01 683.363C1774.21 707.625 1825.2 697.898 1876.31 659.995C1909.22 635.733 1943.52 601.409 1974.56 565.072C1975.73 563.73 1976.66 561.494 1974.33 559.146C1969.66 554.45 1962.78 549.083 1958.11 544.835C1956.01 543.046 1952.86 543.605 1951.11 544.835C1919.25 573.904 1890.55 606.887 1849.24 634.28C1835.24 643.56 1813.07 651.051 1803.03 638.193C1799.07 633.162 1799.53 626.23 1803.38 616.95C1815.4 588.216 2006.42 309.593 2016.45 293.157Z" fill="black"/>
<path d="M1117.5 326.811C1118.32 330.948 1120.07 331.731 1122.06 331.284C1132.94 328.444 1142.39 321.933 1148.66 312.947C1154.49 304.897 1157.18 293.269 1151.46 288.573C1146.33 284.437 1138.04 285.555 1131.86 290.81C1126.6 295.25 1122.55 300.846 1120.05 307.116C1117.55 313.387 1116.68 320.145 1117.5 326.811ZM630.573 685.599C559.395 686.046 496.618 643.895 489.383 570.774C485.219 532.749 496.642 494.662 521.238 464.557C542.475 438.059 578.415 416.145 608.753 410.778C618.555 408.989 631.857 410.107 637.341 416.369C645.976 425.984 643.525 436.494 634.891 440.742C611.67 452.035 583.782 471.489 570.013 497.987C563.654 509.249 560.629 521.962 561.267 534.752C561.905 547.542 566.18 559.921 573.63 570.55C602.219 611.919 682.032 613.037 756.128 547.071C774.564 530.859 790.9 515.318 807.586 496.981C840.258 461.203 851.11 448.122 894.517 390.429C894.984 389.759 895.217 388.864 894.984 388.529C894.634 387.746 894.05 387.634 892.767 387.411C863.829 388.305 838.508 396.579 814.004 414.132C807.003 419.052 796.734 418.381 792.3 411.896C787.399 404.517 790.9 394.902 799.068 389.535C838.508 363.148 881.682 358.453 925.789 351.297C925.789 351.297 928.823 351.297 931.39 348.278C949.476 325.917 963.129 305.903 982.382 283.43C1001.87 260.622 1026.96 239.602 1046.09 223.837C1072.93 201.811 1090.08 194.432 1107.47 185.264C1112.14 183.028 1106.89 180.233 1105.49 180.233C1008.05 162.679 906.886 139.982 810.153 174.307C743.175 198.233 713.77 249.217 727.889 283.207C737.924 307.357 771.063 311.158 802.102 296.623C827.773 284.66 851.693 265.094 868.613 240.049C877.948 226.073 897.901 236.136 887.166 260.398C858.811 324.128 804.786 374.665 738.975 376.789C682.849 378.578 646.676 338.998 646.793 290.25C647.026 194.097 758.811 130.814 876.081 121.31C1017.5 110.13 1151.46 146.243 1291.83 162.567C1399.42 174.978 1502.57 175.313 1610.74 151.386C1623.57 148.815 1632.44 156.641 1631.74 168.94C1630.57 186.829 1616.1 204.047 1580.51 222.607C1540.02 243.962 1497.67 250.447 1453.33 250.783C1346.44 251.677 1246.79 211.65 1143.53 190.183C1143.64 194.544 1144.93 199.687 1141.19 202.482C1084.02 242.733 1032.32 283.766 997.668 341.346C996.501 342.688 997.201 344.03 999.185 343.806C1029.29 342.352 1056.24 341.57 1084.37 339.334C1089.15 338.998 1089.38 337.88 1089.03 334.414C1087.52 323.783 1088.7 312.957 1092.48 302.856C1096.25 292.755 1102.52 283.675 1110.74 276.386C1129.41 260.398 1152.74 258.497 1168.26 270.125C1185.77 283.207 1184.25 306.91 1174.68 324.575C1170.37 332.353 1164.47 339.22 1157.33 344.771C1150.2 350.322 1141.97 354.442 1133.14 356.887C1133.14 356.887 1129.87 357.558 1130.34 360.353C1130.92 364.826 1152.16 376.118 1153.91 379.137C1155.66 382.044 1154.73 386.404 1151.58 389.759C1150.33 391.214 1148.76 392.389 1146.99 393.201C1145.21 394.012 1143.27 394.44 1141.31 394.454C1137.69 394.454 1135.47 393.225 1130.81 390.765C1119.68 385.069 1109.78 377.405 1101.64 368.18C1098.83 364.937 1097.43 364.826 1090.78 365.273C1060.44 366.95 1013.07 371.31 981.098 375.112C973.28 376.006 972.113 377.46 970.597 380.031C919.488 460.756 864.879 547.853 804.902 606.216C740.725 668.716 687.283 685.152 630.573 685.599Z" fill="black"/>
<path d="M1250.06 35.5546C583.897 35.5546 43.9907 211.874 43.9907 427.773C43.9907 643.56 583.897 819.991 1250.06 819.991C1916.22 819.991 2456.13 643.56 2456.13 427.773C2456.13 211.986 1916.1 35.5546 1250.06 35.5546ZM1250.06 855.546C559.627 855.546 0 664.021 0 427.773C0 191.413 559.627 0 1250.06 0C1940.37 0 2500 191.413 2500 427.773C2500 664.021 1940.37 855.546 1250.06 855.546Z" fill="black"/>
</svg>
