<svg width="2500" height="263" viewBox="0 0 2500 263" fill="none" xmlns="http://www.w3.org/2000/svg">
<path fill-rule="evenodd" clip-rule="evenodd" d="M472.823 230.356C457.972 249.331 365.824 262.884 270.703 262.884C119.109 262.884 -5.742 241.199 0.203964 130.087C0.203964 56.8983 104.23 0 273.676 0C345.013 0 413.378 8.13209 463.904 29.8175L410.405 67.754C377.716 59.622 339.067 51.5029 297.46 51.5029C202.338 48.7923 157.758 78.5968 154.785 105.704V157.194C154.785 189.722 184.501 208.696 214.23 214.118C270.717 227.671 297.46 216.829 345.027 214.118V192.432C342.054 178.879 327.19 170.747 312.325 170.747H252.879V140.93L261.798 124.678H455.014L472.837 149.062L472.823 230.356ZM778.984 235.777L770.065 203.249H734.403C725.484 203.249 716.565 197.828 716.565 186.985V78.5839C716.565 67.7411 728.457 56.8984 740.349 56.8984H778.998L773.052 21.6725H532.268L526.323 56.8984H561.984C576.849 56.8984 585.754 67.7411 585.754 78.5839V186.985C585.754 197.828 576.849 203.249 567.93 203.249H532.268L526.323 235.777H778.984ZM975.158 21.6725H853.294V235.777H1174.32L1198.09 195.117H998.942C987.05 195.117 975.158 186.985 975.158 173.432V21.6725ZM1370.51 108.388C1358.62 108.388 1349.7 100.256 1349.7 86.7029C1349.7 75.8602 1358.62 65.0174 1370.51 65.0174H1531.01L1557.76 21.6596H1230.79V235.764H1557.76V192.393H1370.51C1358.62 192.393 1349.7 184.261 1349.7 173.419C1349.7 159.865 1358.62 149.023 1370.51 149.023H1516.14V108.375L1370.51 108.388ZM1736.1 111.099C1721.23 111.099 1712.32 100.256 1712.32 89.4136V81.2816C1712.32 70.4389 1721.23 59.5961 1736.1 59.5961H1798.53C1813.4 59.5961 1825.29 70.4388 1825.29 86.7029C1825.3 89.9105 1824.62 93.0891 1823.28 96.0551C1821.94 99.0212 1819.97 101.716 1817.49 103.984C1815 106.252 1812.04 108.049 1808.79 109.27C1805.54 110.491 1802.05 111.113 1798.53 111.099H1736.1ZM1863.92 21.6725H1584.51V235.777H1712.3V168.01L1715.27 162.589C1715.27 154.457 1724.19 149.036 1733.11 149.036C1742.03 149.036 1747.98 151.746 1750.95 157.168L1863.91 235.777H2015.49L1869.86 140.917V138.206C1914.42 135.508 1947.12 111.112 1947.12 81.2945C1947.12 51.49 1914.42 27.0939 1869.86 24.3832L1863.92 21.6725ZM2229.51 173.432C2208.7 173.432 2190.87 181.564 2181.95 192.406L2178.97 195.117L2149.24 233.067H2024.42L2193.84 21.6725H2327.61L2500 233.067H2372.2L2342.47 195.117L2339.5 192.406C2333.56 181.564 2312.74 173.432 2288.96 173.432H2229.51ZM2238.43 140.903C2229.52 140.903 2223.57 135.495 2223.57 127.363V119.231L2259.24 65.0174L2297.89 119.231C2297.89 121.942 2300.87 124.652 2300.87 127.363C2300.87 135.495 2291.95 140.903 2286 140.903H2238.43Z" fill="black"/>
</svg>
