<svg width="2500" height="304" viewBox="0 0 2500 304" fill="none" xmlns="http://www.w3.org/2000/svg">
<path fill-rule="evenodd" clip-rule="evenodd" d="M756.869 303.482C597.122 303.482 525.628 241.883 525.628 150.634C525.628 62.2102 597.108 0 756.869 0C915.99 0 987.485 61.8978 987.485 150.634C987.485 241.897 916.303 303.482 756.869 303.482ZM1802.9 292.279L1519.46 292.051L1519.57 254.918C1519.57 254.918 1548.31 251.567 1560 250.034C1571.66 248.486 1576.26 238.574 1576.2 227.598C1576.17 216.621 1576.34 89.957 1576.34 77.106C1576.31 64.255 1570.45 56.8284 1557.84 55.0108C1545.22 53.2074 1519.16 50.5945 1519.16 50.5945V10.9056H1802.9C1931.65 10.9056 1987.33 73.4282 1987.33 147.964C1987.33 230.707 1931.65 292.279 1802.9 292.279ZM1000.09 293.287V254.705C1000.09 254.705 1033.99 250.957 1039.29 250.048C1052.08 247.804 1056.69 239.313 1056.68 226.007V78.6253C1056.68 64.2549 1050.34 56.2888 1036.62 54.7694C1032.18 54.2866 1000.09 50.5662 1000.09 50.5662V10.863C1000.09 10.863 1196.85 10.7068 1199.86 10.721C1210.56 10.7778 1217.89 15.8898 1223.52 23.0892C1224.66 24.5376 1372.71 219.859 1372.71 219.859C1372.71 219.859 1372.77 93.5496 1372.71 80.23C1372.68 66.9104 1368.02 57.0129 1354.46 55.3515C1350.24 54.8261 1316.12 50.836 1316.12 50.836V10.863H1497.21V50.4952C1497.21 50.4952 1465.46 53.9173 1458.84 54.9539C1443.28 57.3679 1440.71 67.876 1440.62 79.0798C1440.56 90.2978 1440.62 293.301 1440.62 293.301L1298.63 293.273C1289.21 293.273 1279.85 288.998 1274.76 282.481C1271.4 278.178 1124.6 84.2912 1124.6 84.2912C1124.6 84.2912 1124.53 215.031 1124.6 227.981C1124.67 240.931 1130.99 248.926 1142.49 250.303C1153.99 251.695 1181.19 254.72 1181.19 254.72V293.301L1000.09 293.287ZM0.113805 293.23L0 255.543C0 255.543 23.1583 252.831 37.4829 251.084C51.8074 249.309 56.6866 240.108 56.7008 223.991V80.656C56.7293 66.2572 53.1303 56.2178 37.9096 53.9174C32.6037 53.108 0.128022 49.5154 0.128022 49.5154L0.113805 10.792H226.462L226.249 49.2882C226.249 49.2882 192.493 53.0795 188.026 53.7327C176.461 55.3373 169.96 62.8065 169.875 78.9803V123.767H344.344V79.9743C344.344 65.9589 340.191 55.4226 327.061 53.676C313.931 51.9294 287.658 48.9474 287.658 48.9474L287.743 10.7777H514.091L513.892 49.3024C513.892 49.3024 486.865 52.4689 474.93 53.9457C462.995 55.4225 457.462 64.6242 457.49 79.7472C457.504 82.4026 457.405 210.572 457.49 226.774C457.575 243.005 466.637 249.04 474.076 250.019C481.53 250.957 514.177 254.62 514.177 254.62L514.077 293.23H287.757L287.957 254.478C287.957 254.478 322.424 250.673 326.819 249.821C342.268 246.711 344.401 236.231 344.344 223.394C344.287 210.558 344.344 180.241 344.344 180.241H169.875C169.875 180.241 169.747 206.454 169.875 225.482C170.003 244.51 178.965 249.892 187.628 251.113C198.581 252.533 226.433 255.6 226.433 255.6L226.462 293.23H0.113805ZM1857.3 151.755C1857.3 80.7127 1828.52 64.894 1759.56 64.894H1687.13V237.694H1759.56C1828.52 237.708 1857.3 223.451 1857.3 151.755ZM857.482 151.585C857.482 78.3271 820.782 54.244 756.57 54.244C692.345 54.244 655.658 78.3271 655.658 151.585C655.658 225.808 692.359 249.437 756.57 249.437C820.782 249.437 857.482 225.808 857.482 151.585ZM2146.11 293.344H1965.04V254.791C1965.04 254.791 1990.02 251.439 2003.52 249.693C2017.02 247.946 2022.41 237.211 2023.95 234.769C2025.5 232.383 2112.27 92.0586 2119.82 79.4916C2127.38 66.9246 2119.41 57.3254 2109.51 55.5646C2102.6 54.3292 2059.39 49.8988 2059.39 49.8988L2059.37 10.8488H2280.32C2294.16 11.2322 2302.68 26.7527 2302.68 26.7527L2429.63 220.597C2439.91 236.217 2447.71 247.691 2460.27 249.551C2472.86 251.383 2499.83 254.521 2499.83 254.521L2500 293.287H2255.34L2255.57 254.989C2255.57 254.989 2271.69 252.859 2286.41 250.942C2301.16 249.025 2313.55 242.65 2301.33 224.729C2289.11 206.837 2289.41 207.008 2289.41 207.008L2116 207.391C2116 207.391 2110.6 215.485 2102.18 228.492C2093.79 241.471 2102.65 249.679 2115.1 251.212L2146.14 255.06L2146.11 293.344ZM2147.59 156.356L2256.81 156.91L2201.57 69.7219L2147.59 156.356Z" fill="black"/>
</svg>
