<svg width="2500" height="265" viewBox="0 0 2500 265" fill="none" xmlns="http://www.w3.org/2000/svg">
<path fill-rule="evenodd" clip-rule="evenodd" d="M2174.78 123.876C2174.78 209.001 2104.3 262.917 1989.95 264.939C1877.09 266.96 1806.26 218.955 1803.61 138.12C1800.96 57.6872 1874.76 2.19032 1986.63 0.1944C2098.54 -1.78856 2174.78 48.2908 2174.78 123.876ZM1895.36 138.872C1897.35 199.993 1933.06 234.443 1991.81 234.391C2068.95 234.326 2085.07 169.847 2083.89 133.325C2081.94 73.7582 2052.46 31.5847 1990.07 31.6755C1927.72 31.7662 1893.16 72.2288 1895.36 138.872ZM1404.55 45.8672L1417.92 16.2137C1381.35 4.09561 1335.61 0 1295.89 0C1132.32 0 1078.55 79.5646 1078.55 133.273C1078.55 202.806 1142.57 264.926 1279.03 264.926C1373.2 264.926 1426.95 241.752 1426.95 241.752V135.1H1336.74L1336.7 227.664C1336.7 227.664 1335.48 228.468 1333.51 229.129C1322.03 232.822 1299.08 234.87 1275.57 232.472C1215.6 226.355 1175.84 187.124 1175.84 134.206C1175.84 71.7104 1252.22 37.8188 1303.29 36.2894C1354.48 34.786 1388.29 42.5623 1404.55 45.8672ZM2500 43.4955H2386.48V253.728H2294.54V43.4955H2184.14V9.37054H2500V43.4955ZM0 9.37054H179.567C247.742 9.37054 263.241 11.1072 287.788 18.7539C318.892 28.1373 341.737 56.7541 341.737 80.3163C341.737 150.899 271.483 163.691 187.522 163.691H96.5384V253.728H0V9.37054ZM96.2517 135.93L164.929 135.917C211.818 135.917 244.033 114.7 244.033 87.7686C244.033 61.0699 211.317 39.5555 169.211 39.5555L96.2338 39.8017L96.2517 135.93ZM867.125 264.939H867.681C929.012 264.939 965.205 253.196 997.742 229.621C1017.2 215.494 1029.31 198.347 1029.31 158.338V9.37054H939.547C939.547 9.37054 939.457 139.274 939.457 176.924C939.457 210.284 909.41 231.708 867.681 231.708H867.34C825.521 231.708 794.184 211.438 794.184 174.215L794.112 9.37054H704.347V156.926C704.347 198.27 718.34 217.322 737.816 231.436C770.318 254.998 806.027 264.939 867.34 264.939H867.125ZM473.16 214.38H641.779V253.715H381.71V9.37054H641.779V44.0399H473.16V105.317H609.403V134.971H473.16V214.38ZM1596.18 215.287H1764.82V253.715H1504.75V9.37054H1764.82V44.934H1596.18V106.224H1732.42V135.891H1596.18V215.287Z" fill="black"/>
</svg>
