<svg width="2500" height="318" viewBox="0 0 2500 318" fill="none" xmlns="http://www.w3.org/2000/svg">
<path fill-rule="evenodd" clip-rule="evenodd" d="M399.97 2V313.15H671.035V250.42H480.55V187.41H647.415V125.505H480.55V63.9051H667.1V2H399.97ZM0 2V313.15H80.58V215.7H177.58L233.85 313.15H326.78L259.3 198.7C292.065 180.61 315.66 147.66 315.66 107.125C315.66 23.895 252.57 2.00504 201.31 2.00504L0 2ZM80.58 63.9H194.86C209.62 63.9 226.04 75.375 226.04 110.84C226.04 122.865 222.53 153.795 194.86 153.795H80.58V63.9Z" fill="black"/>
<path d="M744.234 0V311.15H824.814V110.725L1002.96 311.155H1083.54V0H1002.96V198.79L824.814 0H744.234ZM1266.56 0L1129.44 311.15H1221.84L1242.74 258.18H1399.47L1420.38 311.155H1512.78L1375.66 0H1266.56ZM1321.11 59.605L1375.04 196.27H1267.18L1321.11 59.605ZM1958.55 0V311.15H2216.7V248.42H2039.14V0H1958.55ZM2177.22 0V61.9H2298.32V311.15H2378.9V61.9H2500V0H2177.22ZM1550.62 0V210.285C1550.62 298.4 1640 317.075 1710.88 317.075C1781.77 317.075 1871.15 298.4 1871.15 210.285V0H1790.57V206.35C1790.57 238.385 1742.13 249.14 1710.88 249.14C1679.64 249.14 1631.2 238.385 1631.2 206.35V0H1550.62Z" fill="black"/>
</svg>
