<svg width="2500" height="443" viewBox="0 0 2500 443" fill="none" xmlns="http://www.w3.org/2000/svg">
<path fill-rule="evenodd" clip-rule="evenodd" d="M1248.41 221.461C1248.41 99.0868 1347.5 0 1469.88 0C1592.25 0 1691.34 99.0868 1691.34 221.461C1691.34 343.836 1592.25 442.923 1469.88 442.923C1347.5 442.466 1248.41 343.836 1248.41 221.461ZM1469.42 361.644C1537.46 361.644 1593.16 299.087 1593.16 221.461C1593.16 144.292 1537.91 81.2786 1469.42 81.2786C1401.38 81.2786 1345.67 143.836 1345.67 221.461C1346.13 298.63 1401.38 361.644 1469.42 361.644Z" fill="black"/>
<path fill-rule="evenodd" clip-rule="evenodd" d="M1942.02 92.2373V432.42H1848.41V92.2373H1848.87H1718.73V15.525H2071.7V92.2373H1942.02Z" fill="black"/>
<path fill-rule="evenodd" clip-rule="evenodd" d="M2184.48 338.813L2148.4 432.877H2039.73L2211.87 15.525H2269.86H2327.85L2500 432.877H2391.32L2355.71 339.27H2270.32H2184.48V338.813ZM2269.86 268.493H2328.77L2270.32 115.982H2269.41L2210.96 268.493H2269.86Z" fill="black"/>
<path fill-rule="evenodd" clip-rule="evenodd" d="M223.288 92.2373V432.42H130.137V92.2373H130.594H0V15.525H353.425V92.2373H223.744H223.288Z" fill="black"/>
<path fill-rule="evenodd" clip-rule="evenodd" d="M377.176 221.461C377.176 99.0868 476.263 0 598.637 0C721.012 0 820.098 99.0868 820.098 221.461C820.098 343.836 721.012 442.923 598.637 442.923C476.263 442.466 377.176 343.836 377.176 221.461ZM598.637 361.644C666.674 361.644 722.381 299.087 722.381 221.461C722.381 144.292 667.13 81.2786 598.637 81.2786C530.6 81.2786 474.893 143.836 474.893 221.461C474.893 298.63 530.6 361.644 598.637 361.644Z" fill="black"/>
<path fill-rule="evenodd" clip-rule="evenodd" d="M1034.24 432.42H1081.28V276.256V274.429L1243.83 15.525H1135.16L1034.24 190.868L932.875 15.525H824.199L986.756 274.429V276.256V432.42H1034.24Z" fill="black"/>
</svg>
