<svg width="2500" height="421" viewBox="0 0 2500 421" fill="none" xmlns="http://www.w3.org/2000/svg">
<path fill-rule="evenodd" clip-rule="evenodd" d="M195.373 327.183H119.026L0 17.1501H77.2437L138.561 192.077C145.779 212.639 152.146 233.466 157.648 254.511C163.093 233.093 169.006 214.318 176.266 194.251L239.867 17.1501H316.193L195.373 327.183ZM461.097 231.096C461.097 256.821 442.112 279.962 413.645 279.962C388.788 279.962 365.745 259.895 365.745 231.977C365.745 205.821 383.833 182.68 413.197 182.68C439.849 182.7 461.097 203.648 461.097 231.096ZM526.371 231.096C526.371 172.284 478.776 128.998 413.625 128.998C346.088 128.998 300.431 174.046 300.431 230.685C300.431 290.867 348.82 333.703 410.464 333.703C484.67 333.703 526.371 283.036 526.371 231.096ZM575.82 327.183V0H640.421V327.183H575.82ZM825.557 327.183L762.792 237.557V327.183H698.191V0H762.792V214.435L825.557 135.909H904.718L827.841 224.028L910.162 327.183H825.557ZM1007.15 332.92C961.325 332.92 937.61 318.55 925.313 287.539L980.024 267.08C985.041 279.707 995.583 288.87 1009 288.87C1021.95 288.87 1029.82 284.054 1029.82 275.792C1029.82 247.874 932.145 260.071 932.145 193.389C932.145 158.521 961.774 129.722 1012.69 129.722C1050.23 129.722 1076.54 142.8 1089.69 174.653L1037.96 193.839C1031.59 178.588 1020.54 173.772 1009.9 173.772C1001.58 173.772 992.321 178.588 992.321 187.3C992.321 217.822 1090.14 203.863 1090.14 270.956C1090.16 309.798 1054.31 332.92 1007.15 332.92ZM1402.19 327.183H1341.22L1307.11 233.073C1303.5 223.711 1300.75 214.061 1298.91 204.235C1296.79 214.132 1294.06 223.899 1290.73 233.484L1256.6 327.164H1192.89L1106.9 135.439H1174.23L1212 227.826C1216.55 238.3 1219.73 250.086 1223.38 261.441C1226.56 250.086 1229.74 237.85 1232.94 228.707L1266.61 135.439H1333.05L1364.43 222.58C1369 235.658 1373.07 247.894 1375.81 260.58C1380.35 246.171 1384.9 233.465 1389.45 222.58L1424.93 135.439H1490.92L1402.19 327.183ZM1664.02 234.62C1664.02 260.815 1646.26 284.817 1616.2 284.817C1585.23 284.817 1566.55 260.795 1566.55 232.388C1566.55 203.139 1587.04 183.522 1613.92 183.522C1644.45 183.541 1664.02 207.094 1664.02 234.62ZM1725.5 327.164V135.928H1661.76V158.188C1650.83 142.037 1627.13 129.82 1599.34 129.82C1537.49 129.82 1500.26 173.909 1500.26 234.169C1500.26 292.257 1535.68 333.742 1593.43 333.742C1624.4 333.742 1645.34 323.268 1661.76 307.508V327.164H1725.5ZM1934.46 229.04C1934.46 254.805 1917.63 277.495 1889.02 277.495C1859.03 277.495 1840.84 257.878 1840.84 229.51C1840.84 204.196 1859.48 182.778 1886.74 182.778C1919.45 182.778 1934.46 208.542 1934.46 229.04ZM1996.39 308.957V135.772H1932.62V157.523C1920.35 138.806 1897.65 130.544 1869.92 130.544C1815.86 130.544 1774.53 173.204 1774.53 230.802C1774.53 281.43 1804.5 325.558 1868.1 325.558C1893.1 325.558 1914.9 318.569 1932.62 299.794V326.87C1932.62 357.999 1918.1 374.66 1888.11 374.66C1868.57 374.66 1849.93 362.815 1849.93 346.135H1785.9C1785.9 388.188 1821.77 421 1884.03 421C1920.37 421 1948.02 412.699 1970.2 392.123C1990.07 372.878 1996.39 351.401 1996.39 308.957ZM2188.44 209.717H2108.5C2110.76 188.495 2126.3 172.891 2149.61 172.891C2173.84 172.911 2188.44 191.529 2188.44 209.717ZM2252.2 228.962C2252.2 165.452 2210.62 128.998 2150.08 128.998C2088.03 128.998 2045.73 173.792 2045.73 232.858C2045.73 300.382 2095.76 333.644 2149.61 333.644C2195.69 333.644 2224.61 318.354 2247.67 289.438L2206.09 263.164C2192.98 279.942 2177.06 288.087 2156.46 288.087C2128.63 288.087 2109.42 270.036 2108.03 246.366H2251.77C2252.2 238.986 2252.2 232.447 2252.2 228.962ZM2435.42 327.183V221.19C2435.42 203.707 2429.53 183.561 2405.08 183.561C2392.41 183.561 2365.72 190.589 2365.72 226.417V327.164H2301.12V135.693H2365.72V160.949C2375.2 148.302 2393.76 131.347 2429.95 131.347C2455.4 131.347 2471.82 140.04 2482.24 150.064C2494.98 162.26 2500 177.942 2500 205.899V327.183H2435.42Z" fill="black"/>
</svg>
