<svg width="2500" height="474" viewBox="0 0 2500 474" fill="none" xmlns="http://www.w3.org/2000/svg">
<path d="M1951.52 181.487H1831.69V0H1722.23V473.476H1831.69V265.552H1951.52V473.476H2063.36V0H1951.52V181.487ZM0 0L121.476 290.324V473.476H243.069V280.918L368.999 0H266.672L184.008 184.463L109.177 0H0ZM1055.67 0L1003.24 225.229L942.44 0H771.561V473.476H869.55V116.569L953.173 426.838H1044.69L1118.85 111.53V473.476H1233.74V0H1055.67ZM2396.88 0H2227.61L2113.4 473.476H2214.68L2238.9 363.301H2364.89L2388.39 473.476H2500L2396.88 0ZM2256.28 284.372L2302.85 72.6142L2348.06 284.372H2256.28ZM1398.01 0L1283.76 473.476H1385.07L1409.31 363.301H1535.3L1558.8 473.476H1670.38L1567.25 0H1398.01ZM1426.66 284.372L1473.24 72.6142L1518.44 284.372H1426.66ZM447.313 0L333.062 473.476H434.384L458.63 363.301H584.606L608.116 473.476H719.678L616.556 0H447.313ZM475.978 284.372L522.553 72.6142L567.749 284.372H475.978Z" fill="black"/>
</svg>
