<svg width="470" height="722" viewBox="0 0 470 722" fill="none" xmlns="http://www.w3.org/2000/svg">
<path d="M469.73 649.873C402.6 694.953 321.8 721.253 234.86 721.253C155.33 721.253 80.93 699.243 17.45 660.983C11.54 657.413 5.72 653.713 0 649.873C7.93 609.063 20.39 570.633 37.99 553.043C78.12 512.913 105.64 507.223 142.74 494.083C142.74 494.083 204.45 526.253 236.72 586.063C236.72 586.063 268.27 534.633 326.99 494.083C364.08 507.223 391.61 512.913 431.74 553.043C443.35 564.653 452.72 585.333 460.04 609.783C463.81 622.383 467.03 635.993 469.73 649.873Z" fill="#8652D8"/>
<path d="M181.66 448.113C138.41 456.903 82.7997 451.943 57.0797 442.803C51.3397 440.753 45.5397 438.333 41.1597 434.093C36.7697 429.843 34.0598 423.403 35.7498 417.543C38.4898 408.043 50.1698 404.993 57.7498 398.623C65.1198 392.423 68.6797 382.573 69.1597 372.943C69.6497 363.303 67.3998 353.763 64.8998 344.453C57.1698 315.713 46.8698 287.713 38.9798 259.003C31.0898 230.293 25.6098 184.043 27.8498 154.363C30.1198 124.683 40.6798 94.9027 61.3898 73.5327C80.3998 53.9027 118.55 38.3927 157.23 52.0127C175.56 27.4427 207.48 4.50268 257.12 0.68268C336.35 -5.41732 383.12 30.1327 412.14 76.4927C440.05 121.073 434.74 193.483 426.08 244.663C417.41 295.843 406.51 349.673 425.4 398.313C429.08 407.793 433.9 417.993 430.51 427.563C427.2 436.873 417.15 442.303 407.62 446.163C371.62 460.703 331.02 464.343 292.61 457.443L181.66 448.113Z" fill="#4F3535"/>
<path d="M326.99 494.083C268.27 534.633 236.72 586.063 236.72 586.063C204.45 526.253 142.74 494.083 142.74 494.083C160.07 483.033 173.75 466.713 181.66 448.113C189.91 431.443 191.46 413.713 191.46 413.713L275.2 415.043C275.2 415.043 273.87 426.123 292.61 457.443C300.76 472.133 312.62 484.923 326.99 494.083Z" fill="#EFA18F"/>
<path d="M292.61 457.443C269.05 461.223 242.361 460.579 218.781 456.839C206.341 454.869 194.118 450.932 183.58 443.933C190.16 428.613 191.46 413.713 191.46 413.713L275.2 415.043C275.2 415.043 275.56 428.203 292.61 457.443Z" fill="#E59689"/>
<path d="M412.745 265.103C411.395 280.503 409.975 296.253 403.565 310.333C399.585 319.043 392.985 327.453 383.655 329.703C379.065 330.793 373.965 329.673 370.035 327.113C355.235 370.223 307.447 447.903 236.985 447.903C160.948 447.903 115.155 366.703 103.045 324.263C99.0752 328.743 92.1052 331.143 86.0752 329.703C76.7552 327.453 70.1452 319.043 66.1652 310.333C59.7652 296.253 58.3353 280.503 56.9853 265.103C56.1953 256.073 55.4253 246.803 57.8753 238.073C59.9553 230.633 64.9052 223.563 71.7952 220.423C71.7952 220.423 84.2253 213.823 100.735 220.423C100.735 220.423 98.5252 168.124 136.138 158.798C218.839 138.293 237.005 197.843 336.225 158.013C336.225 158.013 359.785 177.403 365.475 220.423C365.475 220.423 376.375 213.283 394.755 219.303C403.305 221.483 409.465 229.533 411.865 238.073C414.304 246.803 413.535 256.073 412.745 265.103Z" fill="#F7AD97"/>
<path d="M469.73 649.873C402.6 694.953 321.8 721.253 234.86 721.253C155.33 721.253 80.9302 699.243 17.4502 660.983C72.0902 686.843 133.18 701.313 197.65 701.313C296.83 701.313 388.02 667.083 460.04 609.783C463.81 622.383 467.03 635.993 469.73 649.873Z" fill="#6D42C1"/>
</svg>
