<svg width="501" height="601" viewBox="0 0 501 601" fill="none" xmlns="http://www.w3.org/2000/svg">
<g clip-path="url(#clip0_802_3)">
<path d="M197.499 491.368C114.443 473.505 47.8888 414.876 18.2492 334.091C-22.3156 223.371 18.8074 100.645 117.978 38.2707C214.31 -22.3433 338.63 -11.108 423.811 69.6309C491.399 133.7 517.852 227.373 495.974 310.933C471.082 406.044 400.294 474.509 306.087 495.41L262.663 587.781C260.855 591.666 255.521 598.425 253.218 600.888C250.915 603.351 240.623 595.123 239.314 591.973L197.501 491.32L197.499 491.368ZM249.725 556.914L288.135 475.789C398.354 456.331 477.616 364.854 479.155 254.665C480.658 146.781 404.303 49.4882 296.609 28.1031C192.004 7.32695 82.1939 60.8282 42.3447 163.783C-9.68426 298.283 70.8665 446.605 213.672 471.486L249.727 556.866L249.725 556.914Z" fill="#AE393B"/>
<path d="M283.189 127.271C287.17 187.332 287.17 294.119 252.491 295.414C237.669 295.99 226.781 286.348 224.239 270.709C216.564 223.312 212.295 176.347 218.147 128.518C232.825 113.311 267.696 112.495 283.189 127.223V127.271ZM259.494 142.67L239.108 141.662C240.067 186.997 240.068 227.102 249.996 274.834C264.626 235.689 262.18 142.814 259.542 142.67H259.494Z" fill="#AE393B"/>
<path d="M280.598 333.169C274.315 315.467 254.217 308.08 237.717 315.371C218.915 323.671 213.974 345.258 221.265 358.691C230.57 375.913 248.749 381.622 264.434 373.082C277.673 365.887 285.011 345.642 280.598 333.169ZM249.948 356.34C243.569 356.34 238.389 351.159 238.389 344.779C238.389 338.398 243.569 333.217 249.948 333.217C256.328 333.217 261.508 338.398 261.508 344.779C261.508 351.159 256.328 356.34 249.948 356.34Z" fill="#AE393B"/>
</g>
<defs>
<clipPath id="clip0_802_3">
<rect width="501" height="601" fill="white"/>
</clipPath>
</defs>
</svg>
