<svg width="532" height="712" viewBox="0 0 532 712" fill="none" xmlns="http://www.w3.org/2000/svg">
<path d="M531.92 617.408V617.418C521.92 625.548 511.55 633.228 500.82 640.428C433.94 685.348 353.47 711.618 266.88 711.808H265.96C179.02 711.808 98.22 685.508 31.1 640.428C20.37 633.228 10 625.548 0 617.418V617.408C7.28 587.988 17.47 562.388 31.26 548.598C71.39 508.458 118.35 492.848 173.84 484.638H358.08C413.55 492.848 460.53 508.458 500.66 548.598C507.26 555.198 513.04 564.508 518.06 575.648C523.54 587.778 528.13 602.068 531.92 617.408Z" fill="#303D89"/>
<path d="M358.084 484.638C358.084 484.638 331.994 518.578 265.964 547.818C199.934 518.578 173.844 484.638 173.844 484.638C192.184 472.948 206.434 455.358 214.094 435.408L317.814 435.358C325.474 455.328 339.734 472.938 358.084 484.638Z" fill="#EFA18F"/>
<path d="M325.504 451.108C288.797 465.634 245.601 462.311 210.144 444.348C211.604 441.428 212.924 438.448 214.094 435.408L317.814 435.358C319.904 440.808 322.484 446.088 325.504 451.108Z" fill="#E59689"/>
<path d="M96.6742 211.048C93.7342 196.988 91.6542 182.758 90.8842 168.348C88.5442 124.518 99.8742 77.9983 130.824 46.8683C169.414 8.0283 229.044 0.67831 283.774 0.0383102C303.414 -0.19169 323.864 0.348302 341.374 9.2483C358.674 18.0583 372.114 37.4183 368.104 56.3383C385.674 52.4583 404.694 61.8183 415.944 76.1383C427.824 91.2983 432.484 110.888 434.724 130.018C437.844 156.588 436.854 183.598 431.944 209.878L419.716 226.761H111.359L96.6742 211.048Z" fill="#4F3535"/>
<path d="M450.624 257.428C449.224 273.418 447.744 289.768 441.094 304.378C436.964 313.428 430.104 322.158 420.424 324.488C414.104 325.998 406.834 323.448 402.724 318.738C390.174 362.798 361.374 410.958 317.814 435.358C317.814 435.358 298.024 446.358 265.964 446.358C233.904 446.358 214.094 435.408 214.094 435.408C170.514 411.048 141.684 362.898 129.114 318.848C124.994 323.498 117.764 325.988 111.504 324.488C101.824 322.158 94.9638 313.428 90.8338 304.378C84.1838 289.768 82.7038 273.418 81.3038 257.428C80.4838 248.058 79.6838 238.428 82.2238 229.368C84.3838 221.648 89.5238 214.308 96.6738 211.048C96.6738 211.048 109.584 204.198 126.714 211.048C126.714 211.048 127.304 170.788 149.014 147.308C149.014 147.308 268.187 187.603 371.189 146.253C371.189 146.253 395.644 166.388 401.554 211.048C401.554 211.048 412.864 203.628 431.944 209.878C440.824 212.148 447.214 220.498 449.704 229.368C452.244 238.428 451.444 248.058 450.624 257.428Z" fill="#F7AD97"/>
</svg>
