<svg width="31" height="39" viewBox="0 0 31 39" fill="none" xmlns="http://www.w3.org/2000/svg">
<path d="M5.46227 27.9003H18.0598C18.8458 27.9003 19.511 27.2557 19.511 26.4499V23.7304C19.511 22.9447 18.866 22.28 18.0598 22.28H8.44536C6.87319 22.28 5.60336 21.0108 5.60336 19.4396V8.42045C5.60336 6.84917 6.87319 5.58006 8.44536 5.58006H29.2866C30.1332 5.53977 30.6169 5.33833 30.6169 4.6937C30.6169 2.41736 28.561 0.0201446 25.4368 0H5.26071C2.11638 0 0 2.29649 0 5.4189V22.4814C0.141092 25.483 1.97529 27.8399 5.46227 27.9003Z" fill="#BE002F"/>
<path d="M25.1747 11.0996H12.5772C11.7911 11.0996 11.126 11.7442 11.126 12.55V15.2695C11.126 16.0552 11.771 16.72 12.5772 16.72H22.1916C23.7638 16.72 25.0336 17.9891 25.0336 19.5604V30.5795C25.0336 32.1507 23.7638 33.4199 22.1916 33.4199H1.35031C0.503763 33.4601 0.0200195 33.6616 0.0200195 34.3062C0.0200195 36.5826 2.07593 38.9798 5.20011 38.9999H25.3762C28.5206 38.9999 30.6571 36.7236 30.637 33.6012V16.5387C30.516 13.5371 28.6617 11.1802 25.1747 11.1198" fill="#61AF54"/>
</svg>
