<svg width="161" height="120" viewBox="0 0 161 120" fill="none" xmlns="http://www.w3.org/2000/svg">
<path d="M65.2013 41.8909H84.1158C85.296 41.8909 86.2947 40.923 86.2947 39.7131V35.6299C86.2947 34.4503 85.3263 33.4522 84.1158 33.4522H69.6803C67.3197 33.4522 65.4132 31.5467 65.4132 29.1875V12.6429C65.4132 10.2837 67.3197 8.37817 69.6803 8.37817H100.972C102.243 8.31768 102.97 8.01522 102.97 7.04734C102.97 3.62953 99.8829 0.0302461 95.1921 0H64.8987C60.1776 0 57 3.44806 57 8.1362V33.7547C57.2118 38.2613 59.9658 41.8001 65.2013 41.8909Z" fill="white"/>
<path d="M94.7987 16.6656H75.8842C74.704 16.6656 73.7053 17.6335 73.7053 18.8433V22.9265C73.7053 24.1061 74.6737 25.1043 75.8842 25.1043H90.3197C92.6803 25.1043 94.5868 27.0098 94.5868 29.369V45.9136C94.5868 48.2728 92.6803 50.1783 90.3197 50.1783H59.0276C57.7566 50.2388 57.0303 50.5412 57.0303 51.5091C57.0303 54.9269 60.1171 58.5262 64.8079 58.5564H95.1013C99.8224 58.5564 103.03 55.1386 103 50.4505V24.832C102.818 20.3254 100.034 16.7866 94.7987 16.6958" fill="white"/>
<path d="M12.4161 85.3688C11.4486 86.3357 9.95706 86.9401 8.54614 86.9401C4.67619 86.9401 3.26527 84.2407 3.24511 81.7226C3.24511 80.2117 3.76917 78.7815 4.73666 77.8145C5.68399 76.8677 6.99413 76.3641 8.56629 76.3641C10.0175 76.3641 11.3277 76.8879 12.2951 77.8145L12.3959 77.9153L14.6131 75.7799L14.4922 75.6591C12.8595 74.0475 10.8036 73.2014 8.56629 73.2014C6.06695 73.2014 3.93042 74.0072 2.39856 75.5583C0.866708 77.0893 0 79.3455 0 81.7226C0.020156 85.5702 2.27763 90.0423 8.56629 90.0423C10.985 90.0423 13.1014 89.2164 14.6937 87.6451L14.7945 87.5444L12.537 85.268L12.4362 85.3688H12.4161Z" fill="white"/>
<path d="M18.3214 73.5439H15.2778V89.6797H18.3214V73.5439Z" fill="white"/>
<path d="M28.5606 84.0796C28.5606 85.7717 27.3916 87.0408 25.8597 87.0408C24.3279 87.0408 23.3201 85.953 23.3201 84.2004V78.1973H20.2563V84.2206C20.2563 87.6452 22.1309 89.8611 25.0333 89.8611C26.4644 89.8611 27.5327 89.4179 28.7017 88.3502L28.863 89.6999H31.6243V78.2175H28.5808V84.0796H28.5606Z" fill="white"/>
<path d="M42.932 83.9385C42.932 85.7515 41.6621 87.0609 39.9086 87.0609C38.3767 87.0609 36.8247 85.9933 36.8247 83.9385C36.8247 82.1658 38.155 80.8362 39.9086 80.8362C41.6621 80.8362 42.932 82.1054 42.932 83.9385ZM40.1504 77.9354C39.1628 77.9354 37.51 78.3987 36.6433 79.406V73.5439H33.5796V89.6797H36.4619L36.603 88.3905C37.5906 89.6394 39.0217 89.9215 40.09 89.9215C43.6173 89.9215 45.9957 87.5041 45.9957 83.9184C45.9957 80.3326 43.7584 77.9153 40.1504 77.9153" fill="white"/>
<path d="M59.1779 79.688C57.1421 79.4463 55.7715 79.0434 55.7715 77.8549C55.7715 76.6663 56.9809 75.9008 58.8957 75.9008C60.5888 75.9008 62.04 76.767 62.5238 77.593L62.6044 77.7138L65.2448 76.3642L65.1844 76.2231C64.1564 74.108 61.9392 73 58.8151 73C55.6909 73.0201 52.5264 74.5108 52.5264 77.7743C52.5264 81.4607 55.5901 82.327 58.8957 82.7299C61.2741 82.9917 62.423 83.6968 62.423 84.9055C62.423 86.9804 59.7422 87.1214 58.936 87.1214C56.8398 87.1214 55.2273 86.2149 54.6226 84.704L54.5621 84.5429L51.8008 85.9731L51.8612 86.094C52.9497 88.7732 55.2676 90.0826 58.9158 90.0826C62.2013 90.0826 65.7286 88.7128 65.7286 84.8853C65.7286 81.0579 62.5842 80.0909 59.198 79.688" fill="white"/>
<path d="M76.008 83.9587C76.008 85.5098 75.0405 87.1818 72.904 87.1818C71.0496 87.1818 69.7395 85.8523 69.7395 83.9385C69.7395 82.0248 71.0093 80.7154 72.904 80.7154C75.0405 80.7154 76.008 82.3874 76.008 83.9385M76.0886 79.4463C75.3429 78.5196 74.0529 77.9354 72.6621 77.9354C70.9085 77.9354 69.3767 78.4995 68.3084 79.547C67.2402 80.6147 66.6758 82.1255 66.6758 83.9385C66.6758 85.7515 67.2401 87.3833 68.3286 88.4509C69.3565 89.4783 70.8078 90.0222 72.5412 90.0222H72.6016C73.8312 90.0021 75.3429 89.438 76.1088 88.3905L76.2096 89.6797H79.112V78.2174H76.1692L76.0886 79.4463Z" fill="white"/>
<path d="M87.4769 78.0361C86.1668 78.0361 85.0582 78.4995 83.9295 79.547L83.7682 78.1973H81.0068V89.6797H84.0504V83.8176C84.0504 82.1255 85.2194 80.8362 86.7513 80.8362C88.2831 80.8362 89.2909 81.924 89.2909 83.6766V89.6797H92.3546V83.6565C92.3546 80.2923 90.3995 78.016 87.4568 78.016" fill="white"/>
<path d="M104.972 76.626H109.749V82.7701C109.749 85.3486 108.318 86.8998 105.92 86.8998C103.319 86.8998 102.07 85.6105 102.07 82.9514V82.7903H98.8247V82.9514C98.8247 87.3027 101.546 90.002 105.94 90.002C110.334 90.002 113.075 87.0811 113.075 82.7701V73.5439H104.992V76.626H104.972Z" fill="white"/>
<path d="M123.294 83.9587C123.294 85.5098 122.407 87.0811 120.412 87.0811C118.416 87.0811 117.53 85.5098 117.53 83.9587C117.53 82.4075 118.437 80.796 120.412 80.796C122.206 80.796 123.294 82.4075 123.294 83.9587ZM120.392 77.9958C116.945 77.9958 114.466 80.5139 114.466 83.9788C114.466 87.4437 116.925 89.9416 120.412 89.9416C123.899 89.9416 126.378 87.484 126.378 83.9788C126.378 80.4736 123.859 77.9958 120.372 77.9958" fill="white"/>
<path d="M136.799 79.0232C136.133 78.3585 134.944 77.9153 133.815 77.9153C132.788 77.9153 131.639 78.0764 130.752 79.2448L130.591 78.1973H127.749V89.6596H130.812V83.6162C130.812 81.1989 132.646 80.937 133.453 80.937C134.36 80.937 134.823 81.1787 135.347 81.6219L135.488 81.7428L136.879 79.0635L136.799 78.9829V79.0232Z" fill="white"/>
<path d="M145.083 83.6767C145.083 85.4091 143.954 86.6178 142.342 86.6178C140.729 86.6178 139.58 85.4091 139.58 83.6767C139.58 81.9442 140.729 80.6751 142.342 80.6751C143.954 80.6751 145.083 81.9241 145.083 83.6767ZM145.99 77.0289L144.881 78.4391C144.035 77.9153 143.087 77.8549 142.362 77.8549C138.996 77.8549 136.537 80.2924 136.537 83.6767C136.537 87.2423 138.774 89.438 142.362 89.438C143.652 89.438 145.042 90.0826 145.042 91.5331C145.042 92.9835 143.994 93.7893 142.362 93.7893C140.729 93.7893 139.6 92.8223 139.6 91.5331V91.3719H136.557V91.5331C136.557 94.5548 138.955 96.6699 142.382 96.6699C145.808 96.6699 148.126 94.6152 148.126 91.5331C148.126 90.4453 147.905 88.9143 145.99 87.8466C148.005 86.7386 148.167 84.4019 148.167 83.6767C148.167 82.3471 147.804 81.2794 147.038 80.3729L148.308 78.7614L146.03 77.0289H145.99Z" fill="white"/>
<path d="M152.278 82.4881C152.702 81.2996 153.75 80.6147 155.201 80.6147C156.652 80.6147 157.7 81.2996 157.922 82.4881H152.278ZM159.514 79.5671C158.507 78.4592 156.975 77.875 155.1 77.875C151.452 77.875 149.013 80.2924 149.013 83.8781C149.013 87.6451 151.432 89.9819 155.302 89.9819C157.237 89.9819 159.111 89.2769 160.22 88.1286L160.321 88.0279L158.325 86.0739L158.224 86.1947C157.6 86.8394 156.269 87.1818 155.342 87.1818C153.629 87.1818 152.46 86.3962 152.198 85.1069H160.885V84.9659C161.107 82.6694 160.643 80.8161 159.514 79.5873" fill="white"/>
<path d="M15 114.287H15.2677C15.612 114.287 15.7841 114.214 15.8988 113.887L20.1253 103H22.1334L26.3598 113.887C26.4746 114.214 26.6658 114.287 26.9909 114.287H27.2778V115.853H26.2068C25.2506 115.853 24.9446 115.634 24.6386 114.797L23.6251 112.157H18.6527L17.6392 114.797C17.314 115.634 17.0081 115.853 16.0518 115.853H15V114.287ZM23.1469 110.628L21.6744 106.714C21.4258 106.04 21.1389 104.912 21.1389 104.912H21.1006C21.1006 104.912 20.8329 106.04 20.5843 106.714L19.1117 110.628H23.1469Z" fill="white"/>
<path d="M32.1878 106.382C34.5647 106.382 35.2438 107.777 35.2438 107.777H35.2815V107.495C35.2815 106.965 35.5833 106.594 36.3379 106.594H38.1111V108.059H37.3566C37.1113 108.059 36.9416 108.183 36.9416 108.413V115.157C36.9416 118.105 34.5458 119.235 32.1312 119.235C30.9805 119.235 29.8109 118.935 28.8677 118.493L29.4903 117.116C29.4903 117.116 30.6598 117.717 32.0935 117.717C33.7535 117.717 35.1117 117.028 35.1117 115.227V114.627C35.1117 114.345 35.1495 114.062 35.1495 114.062H35.1117C34.5458 114.927 33.6592 115.421 32.2633 115.421C29.6223 115.421 28 113.427 28 110.849C28 108.271 29.528 106.382 32.1878 106.382ZM35.1683 110.867C35.1683 108.536 33.9422 107.865 32.4708 107.865C30.8107 107.865 29.8675 108.995 29.8675 110.814C29.8675 112.632 30.9051 113.938 32.6217 113.938C33.9422 113.938 35.1683 113.197 35.1683 110.867Z" fill="white"/>
<path d="M44.2195 106.382C46.8269 106.382 48.2223 108.276 48.2223 110.617C48.2223 110.849 48.1673 111.332 48.1673 111.332H41.3918C41.502 113.262 42.9342 114.352 44.5867 114.352C46.2393 114.352 47.3043 113.297 47.3043 113.297L48.0754 114.53C48.0754 114.53 46.6983 115.853 44.4949 115.853C41.5571 115.853 39.5557 113.798 39.5557 111.117C39.5557 108.241 41.5754 106.382 44.2195 106.382ZM46.3862 110.063C46.3311 108.562 45.3579 107.758 44.2011 107.758C42.8424 107.758 41.7407 108.562 41.4653 110.063H46.3862Z" fill="white"/>
<path d="M50.1904 108.521C50.1904 108.247 50.0321 108.119 49.7551 108.119H48.9438V106.602H50.784C51.6349 106.602 52.0504 106.949 52.0504 107.625V107.973C52.0504 108.265 52.0108 108.503 52.0108 108.503H52.0504C52.4461 107.699 53.6334 106.382 55.8099 106.382C58.1843 106.382 59.2528 107.571 59.2528 109.929V113.933C59.2528 114.207 59.4111 114.335 59.6882 114.335H60.4994V115.853H58.5999C57.7095 115.853 57.3335 115.505 57.3335 114.683V110.331C57.3335 109.033 57.0565 108.009 55.4538 108.009C53.851 108.009 52.6836 108.942 52.2878 110.276C52.1493 110.642 52.1098 111.063 52.1098 111.52V115.853H50.1904V108.521Z" fill="white"/>
<path d="M66.175 106.382C67.2857 106.382 69.4888 106.829 69.4888 108.366V109.295H67.8865V108.795C67.8865 108.151 66.8487 107.865 66.175 107.865C64.3725 107.865 63.0252 109.188 63.0252 111.1C63.0252 113.154 64.5546 114.316 66.2661 114.316C67.9776 114.316 69.1246 113.065 69.1246 113.065L69.8893 114.298C69.8893 114.298 68.5784 115.853 66.1386 115.853C63.2437 115.853 61.2227 113.833 61.2227 111.117C61.2227 108.401 63.2073 106.382 66.175 106.382Z" fill="white"/>
<path d="M72.5637 108.552C72.5637 108.279 72.4076 108.152 72.1343 108.152H71.334V106.641H73.1883C74.0667 106.641 74.4376 106.987 74.4376 107.806V113.941C74.4376 114.214 74.5937 114.342 74.867 114.342H75.6673V115.853H73.813C72.9346 115.853 72.5637 115.507 72.5637 114.688V108.552ZM72.6028 103H74.301V104.839H72.6028V103Z" fill="white"/>
<path d="M82.2688 110.01H82.6929V109.92C82.6929 108.33 82.0567 107.758 80.5337 107.758C80.071 107.758 78.9335 107.865 78.9335 108.455V108.973H77.1791V108.08C77.1791 106.597 79.6083 106.382 80.553 106.382C83.7147 106.382 84.563 107.919 84.563 109.92V113.762C84.563 114.03 84.7172 114.155 84.9871 114.155H85.7776V115.638H84.0232C83.1556 115.638 82.8086 115.245 82.8086 114.602C82.8086 114.298 82.8472 114.066 82.8472 114.066H82.8086C82.8086 114.066 82.0374 115.853 79.7047 115.853C78.0274 115.853 76.3887 114.906 76.3887 113.101C76.3887 110.188 80.6301 110.01 82.2688 110.01ZM80.1095 114.459C81.6904 114.459 82.7122 112.922 82.7122 111.582V111.278H82.2302C80.8229 111.278 78.278 111.35 78.278 113.012C78.278 113.744 78.8757 114.459 80.1095 114.459Z" fill="white"/>
<path d="M87.4307 113.101C87.4307 113.101 88.5475 114.441 90.2786 114.441C91.1535 114.441 91.9167 114.066 91.9167 113.28C91.9167 111.654 86.7792 111.832 86.7792 108.92C86.7792 107.186 88.3614 106.382 90.2786 106.382C91.4141 106.382 93.3686 106.758 93.3686 108.133V108.991H91.7492V108.544C91.7492 108.008 90.9115 107.776 90.3345 107.776C89.2735 107.776 88.5848 108.133 88.5848 108.848C88.5848 110.564 93.7222 110.188 93.7222 113.208C93.7222 114.816 92.2331 115.853 90.26 115.853C87.7471 115.853 86.5 114.262 86.5 114.262L87.4307 113.101Z" fill="white"/>
<path d="M99.5 114.287H99.7677C100.112 114.287 100.284 114.214 100.399 113.887L104.625 103H106.633L110.86 113.887C110.975 114.214 111.166 114.287 111.491 114.287H111.778V115.853H110.707C109.751 115.853 109.445 115.634 109.139 114.797L108.125 112.157H103.153L102.139 114.797C101.814 115.634 101.508 115.853 100.552 115.853H99.5V114.287ZM107.644 110.628L106.171 106.714C105.923 106.04 105.636 104.912 105.636 104.912H105.597C105.597 104.912 105.33 106.04 105.081 106.714L103.609 110.628H107.644Z" fill="white"/>
<path d="M113.669 104.88C113.669 104.611 113.52 104.486 113.261 104.486H112.5V103H114.281C115.116 103 115.468 103.34 115.468 104.146V107.099C115.468 107.529 115.431 107.851 115.431 107.851H115.468C115.468 107.851 116.285 106.365 118.492 106.365C121.016 106.365 122.611 108.299 122.611 111.109C122.611 113.919 120.812 115.853 118.344 115.853C116.248 115.853 115.394 114.331 115.394 114.331H115.357C115.357 114.331 115.394 114.618 115.394 115.011V115.638H113.669V104.88ZM118.084 114.367C119.569 114.367 120.793 113.185 120.793 111.127C120.793 109.068 119.698 107.887 118.121 107.887C116.73 107.887 115.431 108.836 115.431 111.145C115.431 112.756 116.303 114.367 118.084 114.367Z" fill="white"/>
<path d="M129.108 106.382C131.933 106.382 133.445 108.276 133.445 110.617C133.445 110.849 133.385 111.332 133.385 111.332H126.045C126.164 113.262 127.716 114.352 129.506 114.352C131.296 114.352 132.45 113.297 132.45 113.297L133.285 114.53C133.285 114.53 131.794 115.853 129.407 115.853C126.224 115.853 124.056 113.798 124.056 111.117C124.056 108.241 126.244 106.382 129.108 106.382ZM131.455 110.063C131.396 108.562 130.341 107.758 129.088 107.758C127.616 107.758 126.423 108.562 126.124 110.063H131.455Z" fill="white"/>
<path d="M138.718 106.365C141.044 106.365 141.819 107.762 141.819 107.762H141.859C141.859 107.762 141.819 107.493 141.819 107.153V104.88C141.819 104.611 141.66 104.486 141.382 104.486H140.567V103H142.475C143.37 103 143.748 103.34 143.748 104.146V113.758C143.748 114.027 143.907 114.152 144.185 114.152H145V115.638H143.151C142.277 115.638 141.919 115.28 141.919 114.671C141.919 114.403 141.939 114.206 141.939 114.206H141.899C141.899 114.206 141.064 115.853 138.599 115.853C135.876 115.853 134.167 113.919 134.167 111.109C134.167 108.299 136.055 106.365 138.718 106.365ZM141.879 111.091C141.879 109.48 140.945 107.869 139.017 107.869C137.446 107.869 136.134 109.05 136.134 111.109C136.134 113.168 137.307 114.349 138.977 114.349C140.468 114.349 141.879 113.4 141.879 111.091Z" fill="white"/>
</svg>
