<svg width="374" height="39" viewBox="0 0 374 39" fill="none" xmlns="http://www.w3.org/2000/svg">
<g clip-path="url(#clip0_450_2)">
<mask id="mask0_450_2" style="mask-type:luminance" maskUnits="userSpaceOnUse" x="0" y="0" width="199" height="39">
<path d="M199 0H0V39H199V0Z" fill="white"/>
</mask>
<g mask="url(#mask0_450_2)">
<mask id="mask1_450_2" style="mask-type:luminance" maskUnits="userSpaceOnUse" x="0" y="0" width="199" height="39">
<path d="M199 0H0V39H199V0Z" fill="white"/>
</mask>
<g mask="url(#mask1_450_2)">
<path d="M50.4705 23.267C49.503 24.234 48.0115 24.8383 46.6006 24.8383C42.7306 24.8383 41.3197 22.1389 41.2996 19.6209C41.2996 18.11 41.8236 16.6798 42.7911 15.7128C43.7384 14.766 45.0486 14.2624 46.6207 14.2624C48.072 14.2624 49.3821 14.7862 50.3496 15.7128L50.4504 15.8135L52.6675 13.6782L52.5466 13.5573C50.914 11.9458 48.858 11.0997 46.6207 11.0997C44.1214 11.0997 41.9849 11.9055 40.453 13.4566C38.9212 14.9876 38.0544 17.2438 38.0544 19.6209C38.0746 23.4685 40.3321 27.9406 46.6207 27.9406C49.0395 27.9406 51.1558 27.1147 52.7482 25.5434L52.8489 25.4427L50.5915 23.1663L50.4907 23.267H50.4705Z" fill="black"/>
<path d="M56.3763 11.4421H53.3328V27.578H56.3763V11.4421Z" fill="black"/>
<path d="M66.6155 21.9778C66.6155 23.6699 65.4465 24.939 63.9146 24.939C62.3828 24.939 61.375 23.8512 61.375 22.0987V16.0956H58.3113V22.1188C58.3113 25.5434 60.1858 27.7593 63.0882 27.7593C64.5193 27.7593 65.5876 27.3161 66.7566 26.2484L66.9179 27.5981H69.6793V16.1157H66.6357V21.9778H66.6155Z" fill="black"/>
<path d="M80.9868 21.8368C80.9868 23.6498 79.7169 24.9592 77.9634 24.9592C76.4315 24.9592 74.8795 23.8915 74.8795 21.8368C74.8795 20.064 76.2098 18.7345 77.9634 18.7345C79.7169 18.7345 80.9868 20.0036 80.9868 21.8368ZM78.2052 15.8337C77.2176 15.8337 75.5648 16.297 74.6981 17.3042V11.4421H71.6344V27.578H74.5167L74.6578 26.2887C75.6454 27.5377 77.0765 27.8197 78.1448 27.8197C81.6721 27.8197 84.0505 25.4024 84.0505 21.8166C84.0505 18.2309 81.8132 15.8135 78.2052 15.8135" fill="black"/>
<path d="M97.2324 17.5863C95.1967 17.3445 93.8261 16.9416 93.8261 15.7531C93.8261 14.5646 95.0354 13.7991 96.9502 13.7991C98.6433 13.7991 100.095 14.6653 100.578 15.4912L100.659 15.6121L103.299 14.2624L103.239 14.1214C102.211 12.0062 99.9938 10.8982 96.8696 10.8982C93.7455 10.9184 90.581 12.4091 90.581 15.6725C90.581 19.359 93.6447 20.2252 96.9502 20.6281C99.3287 20.89 100.478 21.595 100.478 22.8037C100.478 24.8786 97.7968 25.0196 96.9906 25.0196C94.8943 25.0196 93.2819 24.1131 92.6772 22.6023L92.6167 22.4411L89.8553 23.8714L89.9158 23.9923C91.0042 26.6715 93.3222 27.9809 96.9704 27.9809C100.256 27.9809 103.783 26.6111 103.783 22.7836C103.783 18.9561 100.639 17.9892 97.2526 17.5863" fill="black"/>
<path d="M114.063 21.8569C114.063 23.4081 113.095 25.0801 110.959 25.0801C109.104 25.0801 107.794 23.7505 107.794 21.8368C107.794 19.923 109.064 18.6136 110.959 18.6136C113.095 18.6136 114.063 20.2856 114.063 21.8368M114.143 17.3445C113.398 16.4179 112.108 15.8337 110.717 15.8337C108.963 15.8337 107.431 16.3977 106.363 17.4452C105.295 18.5129 104.73 20.0238 104.73 21.8368C104.73 23.6498 105.295 25.2815 106.383 26.3492C107.411 27.3765 108.862 27.9205 110.596 27.9205H110.656C111.886 27.9003 113.398 27.3363 114.163 26.2887L114.264 27.578H117.167V16.1157H114.224L114.143 17.3445Z" fill="black"/>
<path d="M125.531 15.9344C124.221 15.9344 123.113 16.3977 121.984 17.4452L121.823 16.0956H119.061V27.578H122.105V21.7159C122.105 20.0238 123.274 18.7345 124.806 18.7345C126.338 18.7345 127.346 19.8223 127.346 21.5749V27.578H130.409V21.5548C130.409 18.1906 128.454 15.9143 125.511 15.9143" fill="black"/>
<path d="M143.027 14.5243H147.804V20.6684C147.804 23.2469 146.373 24.798 143.974 24.798C141.374 24.798 140.124 23.5088 140.124 20.8497V20.6885H136.879V20.8497C136.879 25.2009 139.6 27.9003 143.994 27.9003C148.388 27.9003 151.13 24.9793 151.13 20.6684V11.4421H143.047V14.5243H143.027Z" fill="black"/>
<path d="M161.349 21.8569C161.349 23.4081 160.462 24.9793 158.466 24.9793C156.471 24.9793 155.584 23.4081 155.584 21.8569C155.584 20.3058 156.491 18.6942 158.466 18.6942C160.26 18.6942 161.349 20.3058 161.349 21.8569ZM158.446 15.8941C154.999 15.8941 152.52 18.4122 152.52 21.8771C152.52 25.3419 154.979 27.8399 158.466 27.8399C161.953 27.8399 164.432 25.3822 164.432 21.8771C164.432 18.3719 161.913 15.8941 158.426 15.8941" fill="black"/>
<path d="M174.853 16.9215C174.188 16.2567 172.999 15.8135 171.87 15.8135C170.842 15.8135 169.693 15.9747 168.806 17.1431L168.645 16.0956H165.803V27.5579H168.867V21.5145C168.867 19.0971 170.701 18.8352 171.507 18.8352C172.414 18.8352 172.878 19.077 173.402 19.5201L173.543 19.641L174.934 16.9618L174.853 16.8812V16.9215Z" fill="black"/>
<path d="M183.137 21.5749C183.137 23.3073 182.008 24.516 180.396 24.516C178.784 24.516 177.635 23.3073 177.635 21.5749C177.635 19.8425 178.784 18.5733 180.396 18.5733C182.008 18.5733 183.137 19.8223 183.137 21.5749ZM184.044 14.9272L182.936 16.3373C182.089 15.8135 181.142 15.7531 180.416 15.7531C177.05 15.7531 174.591 18.1906 174.591 21.5749C174.591 25.1405 176.828 27.3363 180.416 27.3363C181.706 27.3363 183.097 27.9809 183.097 29.4313C183.097 30.8817 182.049 31.6875 180.416 31.6875C178.784 31.6875 177.655 30.7206 177.655 29.4313V29.2701H174.611V29.4313C174.611 32.453 177.01 34.5682 180.436 34.5682C183.863 34.5682 186.181 32.5134 186.181 29.4313C186.181 28.3435 185.959 26.8125 184.044 25.7448C186.06 24.6369 186.221 22.3001 186.221 21.5749C186.221 20.2454 185.858 19.1777 185.092 18.2712L186.362 16.6596L184.085 14.9272H184.044Z" fill="black"/>
<path d="M190.333 20.3864C190.756 19.1978 191.804 18.5129 193.256 18.5129C194.707 18.5129 195.755 19.1978 195.977 20.3864H190.333ZM197.569 17.4654C196.561 16.3574 195.029 15.7732 193.155 15.7732C189.507 15.7732 187.068 18.1906 187.068 21.7763C187.068 25.5434 189.486 27.8802 193.356 27.8802C195.291 27.8802 197.166 27.1751 198.274 26.0269L198.375 25.9261L196.38 23.9721L196.279 24.093C195.654 24.7376 194.324 25.0801 193.397 25.0801C191.683 25.0801 190.514 24.2944 190.252 23.0052H198.939V22.8642C199.161 20.5677 198.698 18.7144 197.569 17.4855" fill="black"/>
<path d="M5.46227 27.9003H18.0598C18.8458 27.9003 19.511 27.2557 19.511 26.4499V23.7304C19.511 22.9447 18.866 22.28 18.0598 22.28H8.44536C6.87319 22.28 5.60336 21.0108 5.60336 19.4396V8.42045C5.60336 6.84917 6.87319 5.58006 8.44536 5.58006H29.2866C30.1332 5.53977 30.6169 5.33833 30.6169 4.6937C30.6169 2.41736 28.561 0.0201446 25.4368 0H5.26071C2.11638 0 0 2.29649 0 5.41891V22.4814C0.141092 25.483 1.97529 27.8399 5.46227 27.9003Z" fill="#BE002F"/>
<path d="M25.1748 11.0997H12.5773C11.7912 11.0997 11.1261 11.7443 11.1261 12.5501V15.2696C11.1261 16.0553 11.7711 16.72 12.5773 16.72H22.1917C23.7639 16.72 25.0337 17.9892 25.0337 19.5604V30.5795C25.0337 32.1508 23.7639 33.4199 22.1917 33.4199H1.35044C0.503885 33.4602 0.0201416 33.6617 0.0201416 34.3063C0.0201416 36.5826 2.07605 38.9799 5.20023 39H25.3764C28.5207 39 30.6572 36.7237 30.6371 33.6012V16.5387C30.5161 13.5372 28.6618 11.1803 25.1748 11.1198" fill="#61AF54"/>
</g>
</g>
</g>
<path d="M211 10.0833H212.698V31.3073H211V10.0833Z" fill="black"/>
<path d="M221.188 25.9466H221.502C221.907 25.9466 222.109 25.8552 222.244 25.4439L227.212 11.7812H229.573L234.541 25.4439C234.676 25.8552 234.9 25.9466 235.283 25.9466H235.62V27.9115H234.361C233.237 27.9115 232.877 27.6373 232.518 26.5863L231.326 23.2735H225.481L224.29 26.5863C223.908 27.6373 223.548 27.9115 222.424 27.9115H221.188V25.9466ZM230.764 21.3543L229.033 16.4421C228.741 15.5968 228.404 14.1802 228.404 14.1802H228.359C228.359 14.1802 228.044 15.5968 227.752 16.4421L226.021 21.3543H230.764Z" fill="black"/>
<path d="M241.391 16.026C244.185 16.026 244.984 17.7764 244.984 17.7764H245.028V17.4219C245.028 16.7572 245.383 16.2919 246.27 16.2919H248.354V18.1309H247.467C247.179 18.1309 246.979 18.286 246.979 18.5741V27.038C246.979 30.7382 244.163 32.1563 241.325 32.1563C239.972 32.1563 238.597 31.7796 237.489 31.2257L238.221 29.4974C238.221 29.4974 239.595 30.2508 241.281 30.2508C243.232 30.2508 244.828 29.3866 244.828 27.1266V26.3733C244.828 26.0188 244.873 25.6643 244.873 25.6643H244.828C244.163 26.75 243.121 27.3704 241.48 27.3704C238.376 27.3704 236.469 24.8666 236.469 21.6317C236.469 18.3968 238.265 16.026 241.391 16.026ZM244.895 21.6539C244.895 18.7292 243.454 17.8872 241.724 17.8872C239.773 17.8872 238.664 19.3053 238.664 21.5874C238.664 23.8696 239.884 25.5092 241.901 25.5092C243.454 25.5092 244.895 24.5786 244.895 21.6539Z" fill="black"/>
<path d="M255.534 16.026C258.599 16.026 260.24 18.4031 260.24 21.3408C260.24 21.6324 260.175 22.2379 260.175 22.2379H252.21C252.34 24.6598 254.024 26.0277 255.966 26.0277C257.909 26.0277 259.16 24.7046 259.16 24.7046L260.067 26.252C260.067 26.252 258.448 27.9115 255.858 27.9115C252.405 27.9115 250.052 25.3325 250.052 21.9688C250.052 18.3583 252.426 16.026 255.534 16.026ZM258.081 20.6457C258.017 18.7619 256.873 17.7528 255.513 17.7528C253.916 17.7528 252.621 18.7619 252.297 20.6457H258.081Z" fill="black"/>
<path d="M262.554 18.7106C262.554 18.3664 262.368 18.2058 262.042 18.2058H261.089V16.3014H263.252C264.252 16.3014 264.74 16.7373 264.74 17.5863V18.0222C264.74 18.3894 264.694 18.6876 264.694 18.6876H264.74C265.205 17.6781 266.601 16.026 269.159 16.026C271.951 16.026 273.207 17.5175 273.207 20.4773V25.5023C273.207 25.8464 273.393 26.007 273.718 26.007H274.672V27.9115H272.439C271.392 27.9115 270.95 27.4755 270.95 26.443V20.9821C270.95 19.353 270.625 18.0681 268.741 18.0681C266.857 18.0681 265.484 19.2383 265.019 20.9133C264.856 21.3722 264.81 21.8999 264.81 22.4735V27.9115H262.554V18.7106Z" fill="black"/>
<path d="M281.342 16.026C282.648 16.026 285.238 16.5867 285.238 18.5153V19.6814H283.354V19.0535C283.354 18.2461 282.134 17.8873 281.342 17.8873C279.223 17.8873 277.64 19.5468 277.64 21.9463C277.64 24.5252 279.437 25.9829 281.449 25.9829C283.461 25.9829 284.809 24.4131 284.809 24.4131L285.708 25.9605C285.708 25.9605 284.167 27.9115 281.299 27.9115C277.897 27.9115 275.521 25.3774 275.521 21.9688C275.521 18.5601 277.854 16.026 281.342 16.026Z" fill="black"/>
<path d="M288.852 18.7497C288.852 18.407 288.668 18.247 288.347 18.247H287.406V16.3507H289.586C290.619 16.3507 291.054 16.7848 291.054 17.8129V25.5125C291.054 25.8552 291.238 26.0151 291.559 26.0151H292.5V27.9115H290.32C289.288 27.9115 288.852 27.4774 288.852 26.4492V18.7497ZM288.898 11.7812H290.894V14.0888H288.898V11.7812Z" fill="black"/>
<path d="M300.261 20.5784H300.76V20.4663C300.76 18.4704 300.012 17.7528 298.221 17.7528C297.677 17.7528 296.34 17.8873 296.34 18.6274V19.2777H294.278V18.1564C294.278 16.2951 297.134 16.026 298.244 16.026C301.961 16.026 302.958 17.9546 302.958 20.4663V25.2877C302.958 25.6241 303.139 25.7811 303.456 25.7811H304.385V27.6424H302.323C301.303 27.6424 300.895 27.149 300.895 26.3417C300.895 25.9605 300.941 25.6689 300.941 25.6689H300.895C300.895 25.6689 299.989 27.9115 297.247 27.9115C295.275 27.9115 293.349 26.7229 293.349 24.458C293.349 20.8026 298.335 20.5784 300.261 20.5784ZM297.723 26.1623C299.581 26.1623 300.782 24.2337 300.782 22.5518V22.1706H300.216C298.561 22.1706 295.57 22.2603 295.57 24.3458C295.57 25.2653 296.272 26.1623 297.723 26.1623Z" fill="black"/>
<path d="M306.328 24.458C306.328 24.458 307.641 26.1399 309.676 26.1399C310.704 26.1399 311.602 25.6689 311.602 24.6822C311.602 22.6415 305.563 22.8658 305.563 19.2104C305.563 17.0352 307.422 16.026 309.676 16.026C311.011 16.026 313.308 16.497 313.308 18.2237V19.3001H311.405V18.7395C311.405 18.0667 310.42 17.7752 309.742 17.7752C308.495 17.7752 307.685 18.2237 307.685 19.1207C307.685 21.2736 313.724 20.8026 313.724 24.5925C313.724 26.6108 311.974 27.9115 309.654 27.9115C306.7 27.9115 305.234 25.9156 305.234 25.9156L306.328 24.458Z" fill="black"/>
<path d="M320.516 25.9466H320.83C321.235 25.9466 321.437 25.8552 321.572 25.4439L326.54 11.7812H328.901L333.869 25.4439C334.004 25.8552 334.229 25.9466 334.611 25.9466H334.948V27.9115H333.689C332.565 27.9115 332.205 27.6373 331.846 26.5863L330.654 23.2735H324.809L323.618 26.5863C323.236 27.6373 322.876 27.9115 321.752 27.9115H320.516V25.9466ZM330.088 21.3543L328.357 16.4421C328.065 15.5968 327.728 14.1802 327.728 14.1802H327.683C327.683 14.1802 327.368 15.5968 327.076 16.4421L325.345 21.3543H330.088Z" fill="black"/>
<path d="M337.171 14.1401C337.171 13.8031 336.996 13.6459 336.691 13.6459H335.797V11.7812H337.89C338.872 11.7812 339.286 12.2081 339.286 13.219V16.9258C339.286 17.465 339.243 17.8694 339.243 17.8694H339.286C339.286 17.8694 340.246 16.0048 342.841 16.0048C345.807 16.0048 347.682 18.431 347.682 21.9581C347.682 25.4852 345.567 27.9115 342.666 27.9115C340.202 27.9115 339.199 26.0019 339.199 26.0019H339.155C339.155 26.0019 339.199 26.3613 339.199 26.8556V27.6419H337.171V14.1401ZM342.361 26.0468C344.106 26.0468 345.545 24.5641 345.545 21.9806C345.545 19.397 344.258 17.9143 342.405 17.9143C340.769 17.9143 339.243 19.105 339.243 22.003C339.243 24.0249 340.268 26.0468 342.361 26.0468Z" fill="black"/>
<path d="M355.319 16.026C358.64 16.026 360.417 18.4031 360.417 21.3408C360.417 21.6324 360.347 22.2379 360.347 22.2379H351.718C351.859 24.6598 353.683 26.0277 355.787 26.0277C357.891 26.0277 359.248 24.7046 359.248 24.7046L360.23 26.252C360.23 26.252 358.476 27.9115 355.67 27.9115C351.929 27.9115 349.38 25.3325 349.38 21.9688C349.38 18.3583 351.952 16.026 355.319 16.026ZM358.078 20.6457C358.008 18.7619 356.769 17.7528 355.296 17.7528C353.566 17.7528 352.163 18.7619 351.812 20.6457H358.078Z" fill="black"/>
<path d="M366.616 16.0048C369.35 16.0048 370.261 17.7571 370.261 17.7571H370.308C370.308 17.7571 370.261 17.4201 370.261 16.9932V14.1401C370.261 13.8031 370.075 13.6459 369.747 13.6459H368.789V11.7812H371.033C372.084 11.7812 372.528 12.2081 372.528 13.219V25.283C372.528 25.62 372.715 25.7772 373.042 25.7772H374V27.6419H371.827C370.799 27.6419 370.378 27.1926 370.378 26.4287C370.378 26.0918 370.402 25.8446 370.402 25.8446H370.355C370.355 25.8446 369.374 27.9115 366.476 27.9115C363.275 27.9115 361.266 25.4852 361.266 21.9581C361.266 18.431 363.485 16.0048 366.616 16.0048ZM370.332 21.9356C370.332 19.9137 369.233 17.8919 366.967 17.8919C365.121 17.8919 363.579 19.3746 363.579 21.9581C363.579 24.5416 364.957 26.0244 366.92 26.0244C368.673 26.0244 370.332 24.8337 370.332 21.9356Z" fill="black"/>
<defs>
<clipPath id="clip0_450_2">
<rect width="199" height="39" fill="white"/>
</clipPath>
</defs>
</svg>
