<svg width="161" height="118" viewBox="0 0 161 118" fill="none" xmlns="http://www.w3.org/2000/svg">
<path d="M65.2013 41.8909H84.1158C85.296 41.8909 86.2947 40.923 86.2947 39.7131V35.6299C86.2947 34.4503 85.3263 33.4522 84.1158 33.4522H69.6803C67.3197 33.4522 65.4132 31.5467 65.4132 29.1875V12.6429C65.4132 10.2837 67.3197 8.37817 69.6803 8.37817H100.972C102.243 8.31768 102.97 8.01522 102.97 7.04734C102.97 3.62953 99.8829 0.0302461 95.1921 0H64.8987C60.1776 0 57 3.44806 57 8.1362V33.7547C57.2118 38.2613 59.9658 41.8001 65.2013 41.8909Z" fill="#BE002F"/>
<path d="M94.7987 16.6656H75.8842C74.704 16.6656 73.7053 17.6335 73.7053 18.8433V22.9265C73.7053 24.1061 74.6737 25.1043 75.8842 25.1043H90.3197C92.6803 25.1043 94.5868 27.0098 94.5868 29.369V45.9136C94.5868 48.2728 92.6803 50.1783 90.3197 50.1783H59.0276C57.7566 50.2388 57.0303 50.5412 57.0303 51.5091C57.0303 54.9269 60.1171 58.5262 64.8079 58.5564H95.1013C99.8224 58.5564 103.03 55.1386 103 50.4505V24.832C102.818 20.3254 100.034 16.7866 94.7987 16.6958" fill="#61AF54"/>
<path d="M12.4161 85.3688C11.4486 86.3357 9.95706 86.9401 8.54614 86.9401C4.67619 86.9401 3.26527 84.2407 3.24511 81.7226C3.24511 80.2117 3.76917 78.7815 4.73666 77.8145C5.68399 76.8677 6.99413 76.3641 8.56629 76.3641C10.0175 76.3641 11.3277 76.8879 12.2951 77.8145L12.3959 77.9153L14.6131 75.7799L14.4922 75.6591C12.8595 74.0475 10.8036 73.2014 8.56629 73.2014C6.06695 73.2014 3.93042 74.0072 2.39856 75.5583C0.866708 77.0893 0 79.3455 0 81.7226C0.020156 85.5702 2.27763 90.0423 8.56629 90.0423C10.985 90.0423 13.1014 89.2164 14.6937 87.6451L14.7945 87.5444L12.537 85.268L12.4362 85.3688H12.4161Z" fill="white"/>
<path d="M18.3214 73.5439H15.2778V89.6797H18.3214V73.5439Z" fill="white"/>
<path d="M28.5606 84.0796C28.5606 85.7717 27.3916 87.0408 25.8597 87.0408C24.3279 87.0408 23.3201 85.953 23.3201 84.2004V78.1973H20.2563V84.2206C20.2563 87.6452 22.1309 89.8611 25.0333 89.8611C26.4644 89.8611 27.5327 89.4179 28.7017 88.3502L28.863 89.6999H31.6243V78.2175H28.5808V84.0796H28.5606Z" fill="white"/>
<path d="M42.932 83.9385C42.932 85.7515 41.6621 87.0609 39.9086 87.0609C38.3767 87.0609 36.8247 85.9933 36.8247 83.9385C36.8247 82.1658 38.155 80.8362 39.9086 80.8362C41.6621 80.8362 42.932 82.1054 42.932 83.9385ZM40.1504 77.9354C39.1628 77.9354 37.51 78.3987 36.6433 79.406V73.5439H33.5796V89.6797H36.4619L36.603 88.3905C37.5906 89.6394 39.0217 89.9215 40.09 89.9215C43.6173 89.9215 45.9957 87.5041 45.9957 83.9184C45.9957 80.3326 43.7584 77.9153 40.1504 77.9153" fill="white"/>
<path d="M59.1779 79.688C57.1421 79.4463 55.7715 79.0434 55.7715 77.8549C55.7715 76.6663 56.9809 75.9008 58.8957 75.9008C60.5888 75.9008 62.04 76.767 62.5238 77.593L62.6044 77.7138L65.2448 76.3642L65.1844 76.2231C64.1564 74.108 61.9392 73 58.8151 73C55.6909 73.0201 52.5264 74.5108 52.5264 77.7743C52.5264 81.4607 55.5901 82.327 58.8957 82.7299C61.2741 82.9917 62.423 83.6968 62.423 84.9055C62.423 86.9804 59.7422 87.1214 58.936 87.1214C56.8398 87.1214 55.2273 86.2149 54.6226 84.704L54.5621 84.5429L51.8008 85.9731L51.8612 86.094C52.9497 88.7732 55.2676 90.0826 58.9158 90.0826C62.2013 90.0826 65.7286 88.7128 65.7286 84.8853C65.7286 81.0579 62.5842 80.0909 59.198 79.688" fill="white"/>
<path d="M76.008 83.9587C76.008 85.5098 75.0405 87.1818 72.904 87.1818C71.0496 87.1818 69.7395 85.8523 69.7395 83.9385C69.7395 82.0248 71.0093 80.7154 72.904 80.7154C75.0405 80.7154 76.008 82.3874 76.008 83.9385M76.0886 79.4463C75.3429 78.5196 74.0529 77.9354 72.6621 77.9354C70.9085 77.9354 69.3767 78.4995 68.3084 79.547C67.2402 80.6147 66.6758 82.1255 66.6758 83.9385C66.6758 85.7515 67.2401 87.3833 68.3286 88.4509C69.3565 89.4783 70.8078 90.0222 72.5412 90.0222H72.6016C73.8312 90.0021 75.3429 89.438 76.1088 88.3905L76.2096 89.6797H79.112V78.2174H76.1692L76.0886 79.4463Z" fill="white"/>
<path d="M87.4769 78.0361C86.1668 78.0361 85.0582 78.4995 83.9295 79.547L83.7682 78.1973H81.0068V89.6797H84.0504V83.8176C84.0504 82.1255 85.2194 80.8362 86.7513 80.8362C88.2831 80.8362 89.2909 81.924 89.2909 83.6766V89.6797H92.3546V83.6565C92.3546 80.2923 90.3995 78.016 87.4568 78.016" fill="white"/>
<path d="M104.972 76.626H109.749V82.7701C109.749 85.3486 108.318 86.8998 105.92 86.8998C103.319 86.8998 102.07 85.6105 102.07 82.9514V82.7903H98.8247V82.9514C98.8247 87.3027 101.546 90.002 105.94 90.002C110.334 90.002 113.075 87.0811 113.075 82.7701V73.5439H104.992V76.626H104.972Z" fill="white"/>
<path d="M123.294 83.9587C123.294 85.5098 122.407 87.0811 120.412 87.0811C118.416 87.0811 117.53 85.5098 117.53 83.9587C117.53 82.4075 118.437 80.796 120.412 80.796C122.206 80.796 123.294 82.4075 123.294 83.9587ZM120.392 77.9958C116.945 77.9958 114.466 80.5139 114.466 83.9788C114.466 87.4437 116.925 89.9416 120.412 89.9416C123.899 89.9416 126.378 87.484 126.378 83.9788C126.378 80.4736 123.859 77.9958 120.372 77.9958" fill="white"/>
<path d="M136.799 79.0232C136.133 78.3585 134.944 77.9153 133.815 77.9153C132.788 77.9153 131.639 78.0764 130.752 79.2448L130.591 78.1973H127.749V89.6596H130.812V83.6162C130.812 81.1989 132.646 80.937 133.453 80.937C134.36 80.937 134.823 81.1787 135.347 81.6219L135.488 81.7428L136.879 79.0635L136.799 78.9829V79.0232Z" fill="white"/>
<path d="M145.083 83.6767C145.083 85.4091 143.954 86.6178 142.342 86.6178C140.729 86.6178 139.58 85.4091 139.58 83.6767C139.58 81.9442 140.729 80.6751 142.342 80.6751C143.954 80.6751 145.083 81.9241 145.083 83.6767ZM145.99 77.0289L144.881 78.4391C144.035 77.9153 143.087 77.8549 142.362 77.8549C138.996 77.8549 136.537 80.2924 136.537 83.6767C136.537 87.2423 138.774 89.438 142.362 89.438C143.652 89.438 145.042 90.0826 145.042 91.5331C145.042 92.9835 143.994 93.7893 142.362 93.7893C140.729 93.7893 139.6 92.8223 139.6 91.5331V91.3719H136.557V91.5331C136.557 94.5548 138.955 96.6699 142.382 96.6699C145.808 96.6699 148.126 94.6152 148.126 91.5331C148.126 90.4453 147.905 88.9143 145.99 87.8466C148.005 86.7386 148.167 84.4019 148.167 83.6767C148.167 82.3471 147.804 81.2794 147.038 80.3729L148.308 78.7614L146.03 77.0289H145.99Z" fill="white"/>
<path d="M152.278 82.4881C152.702 81.2996 153.75 80.6147 155.201 80.6147C156.652 80.6147 157.7 81.2996 157.922 82.4881H152.278ZM159.514 79.5671C158.507 78.4592 156.975 77.875 155.1 77.875C151.452 77.875 149.013 80.2924 149.013 83.8781C149.013 87.6451 151.432 89.9819 155.302 89.9819C157.237 89.9819 159.111 89.2769 160.22 88.1286L160.321 88.0279L158.325 86.0739L158.224 86.1947C157.6 86.8394 156.269 87.1818 155.342 87.1818C153.629 87.1818 152.46 86.3962 152.198 85.1069H160.885V84.9659C161.107 82.6694 160.643 80.8161 159.514 79.5873" fill="white"/>
<path d="M20 113.089H20.2471C20.5649 113.089 20.7238 113.022 20.8297 112.719L24.731 102.67H26.5846L30.486 112.719C30.5919 113.022 30.7684 113.089 31.0685 113.089H31.3333V114.534H30.3448C29.4621 114.534 29.1796 114.332 28.8972 113.559L27.9616 111.123H23.3718L22.4361 113.559C22.136 114.332 21.8536 114.534 20.9709 114.534H20V113.089ZM27.5202 109.711L26.161 106.098C25.9315 105.476 25.6667 104.434 25.6667 104.434H25.6314C25.6314 104.434 25.3842 105.476 25.1547 106.098L23.7954 109.711H27.5202Z" fill="white"/>
<path d="M35.8657 105.792C38.0597 105.792 38.6866 107.079 38.6866 107.079H38.7214V106.819C38.7214 106.33 39 105.988 39.6965 105.988H41.3333V107.34H40.6368C40.4104 107.34 40.2537 107.454 40.2537 107.666V113.891C40.2537 116.613 38.0423 117.656 35.8134 117.656C34.7512 117.656 33.6716 117.379 32.801 116.972L33.3756 115.7C33.3756 115.7 34.4552 116.254 35.7786 116.254C37.3109 116.254 38.5647 115.619 38.5647 113.957V113.403C38.5647 113.142 38.5995 112.881 38.5995 112.881H38.5647C38.0423 113.68 37.2239 114.136 35.9353 114.136C33.4975 114.136 32 112.294 32 109.915C32 107.536 33.4104 105.792 35.8657 105.792ZM38.6169 109.931C38.6169 107.78 37.4851 107.161 36.1269 107.161C34.5945 107.161 33.7239 108.204 33.7239 109.882C33.7239 111.561 34.6816 112.767 36.2662 112.767C37.4851 112.767 38.6169 112.083 38.6169 109.931Z" fill="white"/>
<path d="M46.9721 105.792C49.3789 105.792 50.667 107.54 50.667 109.701C50.667 109.916 50.6161 110.361 50.6161 110.361H44.3619C44.4636 112.142 45.7856 113.148 47.3111 113.148C48.8365 113.148 49.8195 112.175 49.8195 112.175L50.5314 113.313C50.5314 113.313 49.2602 114.534 47.2263 114.534C44.5144 114.534 42.667 112.637 42.667 110.163C42.667 107.507 44.5314 105.792 46.9721 105.792ZM48.9721 109.19C48.9212 107.804 48.0229 107.062 46.9551 107.062C45.7009 107.062 44.6839 107.804 44.4297 109.19H48.9721Z" fill="white"/>
<path d="M52.4837 107.767C52.4837 107.513 52.3376 107.395 52.0819 107.395H51.333V105.995H53.0316C53.817 105.995 54.2006 106.315 54.2006 106.94V107.26C54.2006 107.53 54.1641 107.75 54.1641 107.75H54.2006C54.5659 107.007 55.6618 105.792 57.6709 105.792C59.8627 105.792 60.849 106.889 60.849 109.066V112.762C60.849 113.015 60.9951 113.133 61.2508 113.133H61.9997V114.534H60.2462C59.4243 114.534 59.0773 114.213 59.0773 113.454V109.437C59.0773 108.239 58.8216 107.294 57.3421 107.294C55.8627 107.294 54.7851 108.155 54.4198 109.387C54.2919 109.724 54.2554 110.112 54.2554 110.534V114.534H52.4837V107.767Z" fill="white"/>
<path d="M67.2384 105.792C68.2636 105.792 70.2972 106.204 70.2972 107.623V108.481H68.8183V108.019C68.8183 107.425 67.8603 107.161 67.2384 107.161C65.5746 107.161 64.3309 108.382 64.3309 110.146C64.3309 112.043 65.7426 113.115 67.3225 113.115C68.9023 113.115 69.9611 111.961 69.9611 111.961L70.667 113.099C70.667 113.099 69.4569 114.534 67.2048 114.534C64.5325 114.534 62.667 112.67 62.667 110.163C62.667 107.656 64.4989 105.792 67.2384 105.792Z" fill="white"/>
<path d="M73.1351 107.795C73.1351 107.543 72.991 107.426 72.7387 107.426H72V106.031H73.7117C74.5225 106.031 74.8649 106.35 74.8649 107.106V112.769C74.8649 113.022 75.009 113.139 75.2613 113.139H76V114.534H74.2883C73.4775 114.534 73.1351 114.215 73.1351 113.458V107.795ZM73.1712 102.67H74.7387V104.367H73.1712V102.67Z" fill="white"/>
<path d="M82.0948 109.14H82.4863V109.058C82.4863 107.59 81.899 107.062 80.4931 107.062C80.066 107.062 79.0161 107.161 79.0161 107.705V108.184H77.3966V107.359C77.3966 105.99 79.6389 105.792 80.5109 105.792C83.4295 105.792 84.2125 107.21 84.2125 109.058V112.604C84.2125 112.851 84.3549 112.967 84.604 112.967H85.3337V114.336H83.7142C82.9134 114.336 82.5931 113.973 82.5931 113.379C82.5931 113.099 82.6287 112.884 82.6287 112.884H82.5931C82.5931 112.884 81.8812 114.534 79.7279 114.534C78.1797 114.534 76.667 113.66 76.667 111.994C76.667 109.305 80.5821 109.14 82.0948 109.14ZM80.1016 113.247C81.5609 113.247 82.5041 111.829 82.5041 110.592V110.311H82.0592C80.7601 110.311 78.411 110.377 78.411 111.911C78.411 112.588 78.9627 113.247 80.1016 113.247Z" fill="white"/>
<path d="M86.8591 111.994C86.8591 111.994 87.89 113.231 89.488 113.231C90.2955 113.231 91 112.884 91 112.159C91 110.658 86.2577 110.823 86.2577 108.134C86.2577 106.534 87.7182 105.792 89.488 105.792C90.5361 105.792 92.3402 106.138 92.3402 107.408V108.2H90.8454V107.788C90.8454 107.293 90.0722 107.079 89.5395 107.079C88.5601 107.079 87.9244 107.408 87.9244 108.068C87.9244 109.652 92.6667 109.305 92.6667 112.093C92.6667 113.577 91.2921 114.534 89.4708 114.534C87.1512 114.534 86 113.066 86 113.066L86.8591 111.994Z" fill="white"/>
<path d="M98 113.089H98.2471C98.5649 113.089 98.7238 113.022 98.8297 112.719L102.731 102.67H104.585L108.486 112.719C108.592 113.022 108.768 113.089 109.069 113.089H109.333V114.534H108.345C107.462 114.534 107.18 114.332 106.897 113.559L105.962 111.123H101.372L100.436 113.559C100.136 114.332 99.8536 114.534 98.9709 114.534H98V113.089ZM105.517 109.711L104.158 106.098C103.929 105.476 103.664 104.434 103.664 104.434H103.628C103.628 104.434 103.381 105.476 103.152 106.098L101.792 109.711H105.517Z" fill="white"/>
<path d="M111.079 104.405C111.079 104.157 110.942 104.041 110.702 104.041H110V102.67H111.644C112.415 102.67 112.74 102.984 112.74 103.727V106.454C112.74 106.85 112.706 107.148 112.706 107.148H112.74C112.74 107.148 113.494 105.776 115.532 105.776C117.861 105.776 119.333 107.561 119.333 110.155C119.333 112.749 117.672 114.534 115.394 114.534C113.459 114.534 112.672 113.129 112.672 113.129H112.637C112.637 113.129 112.672 113.394 112.672 113.757V114.336H111.079V104.405ZM115.155 113.162C116.525 113.162 117.655 112.072 117.655 110.172C117.655 108.271 116.645 107.181 115.189 107.181C113.905 107.181 112.706 108.057 112.706 110.188C112.706 111.675 113.511 113.162 115.155 113.162Z" fill="white"/>
<path d="M125.331 105.792C127.938 105.792 129.334 107.54 129.334 109.701C129.334 109.916 129.279 110.361 129.279 110.361H122.503C122.613 112.142 124.046 113.148 125.698 113.148C127.351 113.148 128.416 112.175 128.416 112.175L129.187 113.313C129.187 113.313 127.81 114.534 125.606 114.534C122.668 114.534 120.667 112.637 120.667 110.163C120.667 107.507 122.687 105.792 125.331 105.792ZM127.498 109.19C127.442 107.804 126.469 107.062 125.312 107.062C123.954 107.062 122.852 107.804 122.577 109.19H127.498Z" fill="white"/>
<path d="M134.202 105.776C136.349 105.776 137.064 107.065 137.064 107.065H137.101C137.101 107.065 137.064 106.817 137.064 106.503V104.405C137.064 104.157 136.917 104.041 136.661 104.041H135.908V102.67H137.67C138.495 102.67 138.844 102.984 138.844 103.727V112.601C138.844 112.849 138.991 112.964 139.248 112.964H140V114.336H138.294C137.486 114.336 137.156 114.005 137.156 113.443C137.156 113.196 137.174 113.014 137.174 113.014H137.138C137.138 113.014 136.367 114.534 134.092 114.534C131.578 114.534 130 112.749 130 110.155C130 107.561 131.743 105.776 134.202 105.776ZM137.119 110.139C137.119 108.651 136.257 107.164 134.477 107.164C133.028 107.164 131.817 108.255 131.817 110.155C131.817 112.055 132.899 113.146 134.44 113.146C135.817 113.146 137.119 112.27 137.119 110.139Z" fill="white"/>
</svg>
