<svg width="161" height="119" viewBox="0 0 161 119" fill="none" xmlns="http://www.w3.org/2000/svg">
<path d="M65.2013 41.8909H84.1158C85.296 41.8909 86.2947 40.923 86.2947 39.7131V35.6299C86.2947 34.4503 85.3263 33.4522 84.1158 33.4522H69.6803C67.3197 33.4522 65.4132 31.5467 65.4132 29.1875V12.6429C65.4132 10.2837 67.3197 8.37817 69.6803 8.37817H100.972C102.243 8.31768 102.97 8.01522 102.97 7.04734C102.97 3.62953 99.8829 0.0302461 95.1921 0H64.8987C60.1776 0 57 3.44806 57 8.1362V33.7547C57.2118 38.2613 59.9658 41.8001 65.2013 41.8909Z" fill="#BE002F"/>
<path d="M94.7987 16.6656H75.8842C74.704 16.6656 73.7053 17.6335 73.7053 18.8433V22.9265C73.7053 24.1061 74.6737 25.1043 75.8842 25.1043H90.3197C92.6803 25.1043 94.5868 27.0098 94.5868 29.369V45.9136C94.5868 48.2728 92.6803 50.1783 90.3197 50.1783H59.0276C57.7566 50.2388 57.0303 50.5412 57.0303 51.5091C57.0303 54.9269 60.1171 58.5262 64.8079 58.5564H95.1013C99.8224 58.5564 103.03 55.1386 103 50.4505V24.832C102.818 20.3254 100.034 16.7866 94.7987 16.6958" fill="#61AF54"/>
<path d="M12.4161 85.3688C11.4486 86.3357 9.95706 86.9401 8.54614 86.9401C4.67619 86.9401 3.26527 84.2407 3.24511 81.7226C3.24511 80.2117 3.76917 78.7815 4.73666 77.8145C5.68399 76.8677 6.99413 76.3641 8.56629 76.3641C10.0175 76.3641 11.3277 76.8879 12.2951 77.8145L12.3959 77.9153L14.6131 75.7799L14.4922 75.6591C12.8595 74.0475 10.8036 73.2014 8.56629 73.2014C6.06695 73.2014 3.93042 74.0072 2.39856 75.5583C0.866708 77.0893 0 79.3455 0 81.7226C0.020156 85.5702 2.27763 90.0423 8.56629 90.0423C10.985 90.0423 13.1014 89.2164 14.6937 87.6451L14.7945 87.5444L12.537 85.268L12.4362 85.3688H12.4161Z" fill="black"/>
<path d="M18.3214 73.5439H15.2778V89.6797H18.3214V73.5439Z" fill="black"/>
<path d="M28.5606 84.0796C28.5606 85.7717 27.3916 87.0408 25.8597 87.0408C24.3279 87.0408 23.3201 85.953 23.3201 84.2004V78.1973H20.2563V84.2206C20.2563 87.6452 22.1309 89.8611 25.0333 89.8611C26.4644 89.8611 27.5327 89.4179 28.7017 88.3502L28.863 89.6999H31.6243V78.2175H28.5808V84.0796H28.5606Z" fill="black"/>
<path d="M42.932 83.9385C42.932 85.7515 41.6621 87.0609 39.9086 87.0609C38.3767 87.0609 36.8247 85.9933 36.8247 83.9385C36.8247 82.1658 38.155 80.8362 39.9086 80.8362C41.6621 80.8362 42.932 82.1054 42.932 83.9385ZM40.1504 77.9354C39.1628 77.9354 37.51 78.3987 36.6433 79.406V73.5439H33.5796V89.6797H36.4619L36.603 88.3905C37.5906 89.6394 39.0217 89.9215 40.09 89.9215C43.6173 89.9215 45.9957 87.5041 45.9957 83.9184C45.9957 80.3326 43.7584 77.9153 40.1504 77.9153" fill="black"/>
<path d="M59.1779 79.688C57.1421 79.4463 55.7715 79.0434 55.7715 77.8549C55.7715 76.6663 56.9809 75.9008 58.8957 75.9008C60.5888 75.9008 62.04 76.767 62.5238 77.593L62.6044 77.7138L65.2448 76.3642L65.1844 76.2231C64.1564 74.108 61.9392 73 58.8151 73C55.6909 73.0201 52.5264 74.5108 52.5264 77.7743C52.5264 81.4607 55.5901 82.327 58.8957 82.7299C61.2741 82.9917 62.423 83.6968 62.423 84.9055C62.423 86.9804 59.7422 87.1214 58.936 87.1214C56.8398 87.1214 55.2273 86.2149 54.6226 84.704L54.5621 84.5429L51.8008 85.9731L51.8612 86.094C52.9497 88.7732 55.2676 90.0826 58.9158 90.0826C62.2013 90.0826 65.7286 88.7128 65.7286 84.8853C65.7286 81.0579 62.5842 80.0909 59.198 79.688" fill="black"/>
<path d="M76.008 83.9587C76.008 85.5098 75.0405 87.1818 72.904 87.1818C71.0496 87.1818 69.7395 85.8523 69.7395 83.9385C69.7395 82.0248 71.0093 80.7154 72.904 80.7154C75.0405 80.7154 76.008 82.3874 76.008 83.9385M76.0886 79.4463C75.3429 78.5196 74.0529 77.9354 72.6621 77.9354C70.9085 77.9354 69.3767 78.4995 68.3084 79.547C67.2402 80.6147 66.6758 82.1255 66.6758 83.9385C66.6758 85.7515 67.2401 87.3833 68.3286 88.4509C69.3565 89.4783 70.8078 90.0222 72.5412 90.0222H72.6016C73.8312 90.0021 75.3429 89.438 76.1088 88.3905L76.2096 89.6797H79.112V78.2174H76.1692L76.0886 79.4463Z" fill="black"/>
<path d="M87.4769 78.0361C86.1668 78.0361 85.0582 78.4995 83.9295 79.547L83.7682 78.1973H81.0068V89.6797H84.0504V83.8176C84.0504 82.1255 85.2194 80.8362 86.7513 80.8362C88.2831 80.8362 89.2909 81.924 89.2909 83.6766V89.6797H92.3546V83.6565C92.3546 80.2923 90.3995 78.016 87.4568 78.016" fill="black"/>
<path d="M104.972 76.626H109.749V82.7701C109.749 85.3486 108.318 86.8998 105.92 86.8998C103.319 86.8998 102.07 85.6105 102.07 82.9514V82.7903H98.8247V82.9514C98.8247 87.3027 101.546 90.002 105.94 90.002C110.334 90.002 113.075 87.0811 113.075 82.7701V73.5439H104.992V76.626H104.972Z" fill="black"/>
<path d="M123.294 83.9587C123.294 85.5098 122.407 87.0811 120.412 87.0811C118.416 87.0811 117.53 85.5098 117.53 83.9587C117.53 82.4075 118.437 80.796 120.412 80.796C122.206 80.796 123.294 82.4075 123.294 83.9587ZM120.392 77.9958C116.945 77.9958 114.466 80.5139 114.466 83.9788C114.466 87.4437 116.925 89.9416 120.412 89.9416C123.899 89.9416 126.378 87.484 126.378 83.9788C126.378 80.4736 123.859 77.9958 120.372 77.9958" fill="black"/>
<path d="M136.799 79.0232C136.133 78.3585 134.944 77.9153 133.815 77.9153C132.788 77.9153 131.639 78.0764 130.752 79.2448L130.591 78.1973H127.749V89.6596H130.812V83.6162C130.812 81.1989 132.646 80.937 133.453 80.937C134.36 80.937 134.823 81.1787 135.347 81.6219L135.488 81.7428L136.879 79.0635L136.799 78.9829V79.0232Z" fill="black"/>
<path d="M145.083 83.6767C145.083 85.4091 143.954 86.6178 142.342 86.6178C140.729 86.6178 139.58 85.4091 139.58 83.6767C139.58 81.9442 140.729 80.6751 142.342 80.6751C143.954 80.6751 145.083 81.9241 145.083 83.6767ZM145.99 77.0289L144.881 78.4391C144.035 77.9153 143.087 77.8549 142.362 77.8549C138.996 77.8549 136.537 80.2924 136.537 83.6767C136.537 87.2423 138.774 89.438 142.362 89.438C143.652 89.438 145.042 90.0826 145.042 91.5331C145.042 92.9835 143.994 93.7893 142.362 93.7893C140.729 93.7893 139.6 92.8223 139.6 91.5331V91.3719H136.557V91.5331C136.557 94.5548 138.955 96.6699 142.382 96.6699C145.808 96.6699 148.126 94.6152 148.126 91.5331C148.126 90.4453 147.905 88.9143 145.99 87.8466C148.005 86.7386 148.167 84.4019 148.167 83.6767C148.167 82.3471 147.804 81.2794 147.038 80.3729L148.308 78.7614L146.03 77.0289H145.99Z" fill="black"/>
<path d="M152.278 82.4881C152.702 81.2996 153.75 80.6147 155.201 80.6147C156.652 80.6147 157.7 81.2996 157.922 82.4881H152.278ZM159.514 79.5671C158.507 78.4592 156.975 77.875 155.1 77.875C151.452 77.875 149.013 80.2924 149.013 83.8781C149.013 87.6451 151.432 89.9819 155.302 89.9819C157.237 89.9819 159.111 89.2769 160.22 88.1286L160.321 88.0279L158.325 86.0739L158.224 86.1947C157.6 86.8394 156.269 87.1818 155.342 87.1818C153.629 87.1818 152.46 86.3962 152.198 85.1069H160.885V84.9659C161.107 82.6694 160.643 80.8161 159.514 79.5873" fill="black"/>
<path d="M15 113.957H15.2677C15.612 113.957 15.7841 113.884 15.8988 113.556L20.1253 102.67H22.1333L26.3598 113.556C26.4746 113.884 26.6658 113.957 26.9909 113.957H27.2778V115.523H26.2068C25.2506 115.523 24.9446 115.304 24.6386 114.467L23.625 111.827H18.6527L17.6391 114.467C17.314 115.304 17.008 115.523 16.0518 115.523H15V113.957ZM23.1469 110.298L21.6744 106.384C21.4258 105.71 21.1389 104.581 21.1389 104.581H21.1006C21.1006 104.581 20.8329 105.71 20.5843 106.384L19.1117 110.298H23.1469Z" fill="black"/>
<path d="M32.1878 106.052C34.5647 106.052 35.2438 107.447 35.2438 107.447H35.2815V107.164C35.2815 106.635 35.5833 106.264 36.3379 106.264H38.1111V107.729H37.3566C37.1113 107.729 36.9415 107.853 36.9415 108.082V114.827C36.9415 117.775 34.5458 118.905 32.1312 118.905C30.9805 118.905 29.8109 118.605 28.8677 118.163L29.4903 116.786C29.4903 116.786 30.6598 117.387 32.0935 117.387C33.7535 117.387 35.1117 116.698 35.1117 114.897V114.297C35.1117 114.014 35.1495 113.732 35.1495 113.732H35.1117C34.5458 114.597 33.6592 115.091 32.2633 115.091C29.6223 115.091 28 113.096 28 110.519C28 107.941 29.528 106.052 32.1878 106.052ZM35.1683 110.536C35.1683 108.206 33.9422 107.535 32.4708 107.535C30.8107 107.535 29.8675 108.665 29.8675 110.484C29.8675 112.302 30.9051 113.608 32.6217 113.608C33.9422 113.608 35.1683 112.867 35.1683 110.536Z" fill="black"/>
<path d="M44.2195 106.052C46.8269 106.052 48.2223 107.946 48.2223 110.287C48.2223 110.519 48.1672 111.002 48.1672 111.002H41.3918C41.502 112.932 42.9342 114.022 44.5867 114.022C46.2393 114.022 47.3043 112.967 47.3043 112.967L48.0754 114.2C48.0754 114.2 46.6983 115.523 44.4949 115.523C41.5571 115.523 39.5557 113.468 39.5557 110.787C39.5557 107.911 41.5754 106.052 44.2195 106.052ZM46.3862 109.733C46.3311 108.232 45.3579 107.428 44.2011 107.428C42.8424 107.428 41.7407 108.232 41.4653 109.733H46.3862Z" fill="black"/>
<path d="M50.1909 108.191C50.1909 107.917 50.0326 107.789 49.7556 107.789H48.9443V106.272H50.7845C51.6354 106.272 52.0509 106.619 52.0509 107.295V107.643C52.0509 107.935 52.0113 108.173 52.0113 108.173H52.0509C52.4466 107.369 53.6338 106.052 55.8104 106.052C58.1848 106.052 59.2533 107.241 59.2533 109.599V113.603C59.2533 113.877 59.4116 114.005 59.6886 114.005H60.4999V115.523H58.6003C57.7099 115.523 57.334 115.175 57.334 114.352V110.001C57.334 108.703 57.057 107.679 55.4542 107.679C53.8515 107.679 52.6841 108.612 52.2883 109.946C52.1498 110.312 52.1102 110.733 52.1102 111.19V115.523H50.1909V108.191Z" fill="black"/>
<path d="M66.175 106.052C67.2857 106.052 69.4888 106.499 69.4888 108.036V108.965H67.8865V108.464C67.8865 107.821 66.8487 107.535 66.175 107.535C64.3725 107.535 63.0252 108.858 63.0252 110.77C63.0252 112.824 64.5546 113.986 66.2661 113.986C67.9776 113.986 69.1246 112.735 69.1246 112.735L69.8893 113.968C69.8893 113.968 68.5784 115.523 66.1386 115.523C63.2437 115.523 61.2227 113.503 61.2227 110.787C61.2227 108.071 63.2072 106.052 66.175 106.052Z" fill="black"/>
<path d="M72.5632 108.222C72.5632 107.949 72.4071 107.822 72.1338 107.822H71.3335V106.311H73.1879C74.0662 106.311 74.4371 106.657 74.4371 107.476V113.611C74.4371 113.884 74.5933 114.012 74.8665 114.012H75.6668V115.523H73.8125C72.9341 115.523 72.5632 115.177 72.5632 114.357V108.222ZM72.6023 102.67H74.3005V104.509H72.6023V102.67Z" fill="black"/>
<path d="M82.2693 109.68H82.6934V109.59C82.6934 108 82.0572 107.428 80.5341 107.428C80.0715 107.428 78.934 107.535 78.934 108.125V108.643H77.1796V107.75C77.1796 106.267 79.6088 106.052 80.5534 106.052C83.7152 106.052 84.5635 107.589 84.5635 109.59V113.432C84.5635 113.7 84.7177 113.825 84.9876 113.825H85.778V115.308H84.0237C83.1561 115.308 82.8091 114.915 82.8091 114.272C82.8091 113.968 82.8476 113.736 82.8476 113.736H82.8091C82.8091 113.736 82.0379 115.523 79.7052 115.523C78.0279 115.523 76.3892 114.576 76.3892 112.771C76.3892 109.858 80.6305 109.68 82.2693 109.68ZM80.11 114.129C81.6909 114.129 82.7127 112.592 82.7127 111.252V110.948H82.2307C80.8233 110.948 78.2785 111.02 78.2785 112.681C78.2785 113.414 78.8762 114.129 80.11 114.129Z" fill="black"/>
<path d="M87.4307 112.771C87.4307 112.771 88.5475 114.111 90.2786 114.111C91.1535 114.111 91.9167 113.736 91.9167 112.949C91.9167 111.323 86.7792 111.502 86.7792 108.59C86.7792 106.856 88.3614 106.052 90.2786 106.052C91.4141 106.052 93.3686 106.427 93.3686 107.803V108.661H91.7491V108.214C91.7491 107.678 90.9115 107.446 90.3345 107.446C89.2735 107.446 88.5848 107.803 88.5848 108.518C88.5848 110.233 93.7222 109.858 93.7222 112.878C93.7222 114.486 92.2331 115.523 90.26 115.523C87.7471 115.523 86.5 113.932 86.5 113.932L87.4307 112.771Z" fill="black"/>
<path d="M99.5 113.957H99.7677C100.112 113.957 100.284 113.884 100.399 113.556L104.625 102.67H106.633L110.86 113.556C110.975 113.884 111.166 113.957 111.491 113.957H111.778V115.523H110.707C109.751 115.523 109.445 115.304 109.139 114.467L108.125 111.827H103.153L102.139 114.467C101.814 115.304 101.508 115.523 100.552 115.523H99.5V113.957ZM107.644 110.298L106.171 106.384C105.923 105.71 105.636 104.581 105.636 104.581H105.597C105.597 104.581 105.33 105.71 105.081 106.384L103.609 110.298H107.644Z" fill="black"/>
<path d="M113.669 104.549C113.669 104.281 113.52 104.156 113.261 104.156H112.5V102.67H114.281C115.116 102.67 115.468 103.01 115.468 103.816V106.769C115.468 107.199 115.431 107.521 115.431 107.521H115.468C115.468 107.521 116.285 106.035 118.492 106.035C121.016 106.035 122.611 107.969 122.611 110.779C122.611 113.589 120.812 115.523 118.344 115.523C116.248 115.523 115.394 114.001 115.394 114.001H115.357C115.357 114.001 115.394 114.287 115.394 114.681V115.308H113.669V104.549ZM118.084 114.037C119.569 114.037 120.793 112.855 120.793 110.797C120.793 108.738 119.698 107.557 118.121 107.557C116.73 107.557 115.431 108.506 115.431 110.815C115.431 112.426 116.303 114.037 118.084 114.037Z" fill="black"/>
<path d="M129.108 106.052C131.933 106.052 133.445 107.946 133.445 110.287C133.445 110.519 133.385 111.002 133.385 111.002H126.045C126.164 112.932 127.716 114.022 129.506 114.022C131.296 114.022 132.45 112.967 132.45 112.967L133.285 114.2C133.285 114.2 131.794 115.523 129.407 115.523C126.224 115.523 124.056 113.468 124.056 110.787C124.056 107.911 126.244 106.052 129.108 106.052ZM131.455 109.733C131.396 108.232 130.341 107.428 129.088 107.428C127.616 107.428 126.423 108.232 126.124 109.733H131.455Z" fill="black"/>
<path d="M138.718 106.035C141.044 106.035 141.819 107.431 141.819 107.431H141.859C141.859 107.431 141.819 107.163 141.819 106.823V104.549C141.819 104.281 141.66 104.156 141.382 104.156H140.567V102.67H142.475C143.37 102.67 143.748 103.01 143.748 103.816V113.428C143.748 113.697 143.907 113.822 144.185 113.822H145V115.308H143.151C142.277 115.308 141.919 114.95 141.919 114.341C141.919 114.073 141.939 113.876 141.939 113.876H141.899C141.899 113.876 141.064 115.523 138.599 115.523C135.876 115.523 134.167 113.589 134.167 110.779C134.167 107.969 136.055 106.035 138.718 106.035ZM141.879 110.761C141.879 109.15 140.945 107.539 139.017 107.539C137.446 107.539 136.134 108.72 136.134 110.779C136.134 112.837 137.307 114.019 138.977 114.019C140.468 114.019 141.879 113.07 141.879 110.761Z" fill="black"/>
</svg>
