<svg width="144" height="29" viewBox="0 0 144 29" fill="none" xmlns="http://www.w3.org/2000/svg" role="img" aria-labelledby="club-san-jorge-logo-title">
  <title id="club-san-jorge-logo-title">Club San Jorge</title>
  <g transform="translate(0 4.8)">
  <path d="M36.37 11.28C35.67 11.98 34.6 12.41 33.57 12.41C30.77 12.41 29.76 10.46 29.74 8.63999C29.73 7.54999 30.12 6.51999 30.81 5.81999C31.49 5.13999 32.44 4.77999 33.57 4.77999C34.61 4.77999 35.57 5.14999 36.26 5.82999L36.34 5.90999L37.94 4.36999L37.86 4.28999C36.68 3.11999 35.2 2.50999 33.58 2.50999C31.77 2.50999 30.23 3.09999 29.13 4.20999C28.02 5.31999 27.39 6.93999 27.4 8.65999C27.41 11.43 29.04 14.67 33.58 14.67C35.33 14.67 36.86 14.07 38.01 12.94L38.09 12.86L36.46 11.21L36.37 11.28Z" fill="#292929"/>
  <path d="M40.64 2.74001H38.44V14.39H40.64V2.74001Z" fill="#292929"/>
  <path d="M48.03 10.34C48.03 11.56 47.19 12.49 46.08 12.49C44.95 12.49 44.25 11.71 44.25 10.44V6.11H42.03V10.46C42.03 12.93 43.38 14.53 45.48 14.53C46.51 14.53 47.29 14.21 48.13 13.44L48.25 14.41H50.24V6.11H48.04V10.34H48.03Z" fill="#292929"/>
  <path d="M58.4 10.24C58.4 11.55 57.48 12.5 56.22 12.5C55.11 12.5 53.99 11.72 53.99 10.24C53.99 8.96001 54.95 8.00001 56.22 8.00001C57.5 8.00001 58.4 8.92001 58.4 10.24ZM56.4 5.91001C55.69 5.91001 54.49 6.25001 53.86 6.97001V2.74001H51.64V14.39H53.71L53.82 13.46C54.54 14.37 55.57 14.57 56.34 14.57C58.89 14.57 60.6 12.83 60.6 10.24C60.62 7.57001 59 5.91001 56.4 5.91001Z" fill="#292929"/>
  <path d="M70.13 7.17C68.66 7 67.68 6.7 67.68 5.84C67.68 4.97 68.55 4.43 69.94 4.43C71.17 4.43 72.2 5.06 72.56 5.65L72.61 5.74L74.52 4.76L74.47 4.66C73.72 3.13 72.13 2.33 69.87 2.33C67.61 2.35 65.33 3.42 65.33 5.78C65.33 8.44 67.54 9.07 69.93 9.36C71.65 9.54 72.48 10.06 72.48 10.93C72.48 12.42 70.55 12.54 69.96 12.54C68.45 12.54 67.28 11.89 66.84 10.79L66.79 10.68L64.79 11.71L64.83 11.8C65.62 13.74 67.28 14.68 69.92 14.68C72.3 14.68 74.84 13.69 74.84 10.92C74.84 8.14 72.58 7.47 70.13 7.17Z" fill="#292929"/>
  <path d="M82.28 10.25C82.28 11.37 81.58 12.58 80.04 12.58C78.7 12.58 77.76 11.62 77.76 10.24C77.76 8.85 78.67 7.91 80.04 7.91C81.58 7.92 82.28 9.13 82.28 10.25ZM82.33 7C81.8 6.33 80.87 5.91 79.85 5.91C78.6 5.91 77.48 6.31 76.71 7.07C75.94 7.84 75.53 8.93 75.53 10.24C75.53 11.6 75.94 12.73 76.72 13.5C77.47 14.24 78.52 14.63 79.76 14.63C79.77 14.63 79.79 14.63 79.8 14.63C80.69 14.61 81.78 14.21 82.33 13.45L82.41 14.39H84.5V6.11H82.37L82.33 7Z" fill="#292929"/>
  <path d="M90.55 6C89.6 6 88.8 6.34 87.98 7.09L87.86 6.12H85.87V14.42H88.07V10.19C88.07 8.97 88.91 8.04 90.02 8.04C91.15 8.04 91.85 8.82 91.85 10.09V14.42H94.07V10.07C94.08 7.63 92.66 6 90.55 6Z" fill="#292929"/>
  <path d="M103.18 4.96H106.63V9.4C106.63 11.27 105.6 12.38 103.86 12.38C101.99 12.38 101.08 11.45 101.08 9.53V9.41H98.73V9.52C98.73 12.66 100.7 14.62 103.86 14.62C106.94 14.62 109.01 12.52 109.01 9.39V2.72H103.18V4.96V4.96Z" fill="#292929"/>
  <path d="M114.33 12.52C112.89 12.52 112.25 11.38 112.25 10.26C112.25 9.16 112.9 7.98 114.33 7.98C115.63 7.98 116.41 9.14 116.41 10.26C116.41 11.38 115.76 12.52 114.33 12.52ZM114.31 5.95C111.83 5.95 110.03 7.76 110.03 10.26C110.03 12.8 111.8 14.57 114.33 14.57C116.87 14.57 118.64 12.8 118.64 10.26C118.64 7.76 116.82 5.95 114.31 5.95Z" fill="#292929"/>
  <path d="M126.15 6.69999C125.66 6.20999 124.82 5.89999 123.99 5.89999C123.25 5.89999 122.42 6.01999 121.78 6.85999L121.66 6.10999H119.61V14.39H121.83V10.03C121.83 8.27999 123.16 8.09999 123.73 8.09999C124.38 8.09999 124.72 8.27999 125.1 8.59999L125.21 8.68999L126.21 6.75999L126.15 6.69999Z" fill="#292929"/>
  <path d="M130.16 7.88C131.31 7.88 132.14 8.79 132.14 10.04C132.14 11.29 131.32 12.17 130.16 12.17C128.98 12.17 128.16 11.29 128.16 10.04C128.16 8.77 128.98 7.88 130.16 7.88ZM132.79 5.25L131.98 6.27C131.38 5.9 130.69 5.85 130.16 5.85C127.73 5.85 125.96 7.62 125.96 10.05C125.96 12.62 127.57 14.22 130.16 14.22C131.09 14.22 132.09 14.69 132.09 15.73C132.09 16.72 131.33 17.35 130.16 17.35C129.02 17.35 128.16 16.65 128.16 15.73V15.62H125.96V15.73C125.96 17.91 127.69 19.44 130.16 19.44C132.64 19.44 134.31 17.95 134.31 15.73C134.31 14.95 134.15 13.84 132.77 13.07C134.22 12.27 134.34 10.58 134.34 10.06C134.34 9.11 134.07 8.32 133.52 7.67L134.43 6.51L132.79 5.25Z" fill="#292929"/>
  <path d="M137.33 9.2C137.63 8.34 138.39 7.85 139.44 7.85C140.53 7.85 141.24 8.34 141.4 9.2H137.33ZM142.56 7.09C141.83 6.29 140.73 5.87 139.37 5.87C136.74 5.87 134.97 7.61 134.97 10.2C134.97 12.92 136.71 14.61 139.51 14.61C140.9 14.61 142.26 14.1 143.06 13.27L143.14 13.19L141.71 11.77L141.63 11.85C141.18 12.32 140.22 12.57 139.55 12.57C138.32 12.57 137.46 12 137.28 11.07H143.55L143.56 10.97C143.7 9.31 143.36 7.97 142.56 7.09Z" fill="#292929"/>
  </g>
  <path d="M3.98 20.31H13.14C13.72 20.31 14.19 19.84 14.19 19.26V17.29C14.19 16.71 13.72 16.24 13.14 16.24H6.15C5.01 16.24 4.08 15.31 4.08 14.17V6.15C4.07 5 5 4.08 6.14 4.07H21.31C21.92 4.04 22.28 3.89 22.28 3.43C22.28 1.78 20.78 0.03 18.51 0.01L3.83 0C1.54 0.01 -0.00999958 1.68 4.20241e-07 3.94V16.36C0.0900004 18.55 1.44 20.31 3.98 20.31Z" fill="#BE002F"/>
  <path d="M18.34 8.07001H9.18C8.6 8.07001 8.13 8.54001 8.13 9.12001V11.09C8.13 11.67 8.6 12.14 9.18 12.14H16.17C17.31 12.14 18.24 13.07 18.24 14.21V22.23C18.24 23.37 17.31 24.3 16.17 24.3H1.01C0.400001 24.33 0.0400009 24.48 0.0400009 24.94C0.0400009 26.59 1.54 28.34 3.81 28.36L18.48 28.38C20.77 28.37 22.32 26.7 22.31 24.44V12.01C22.23 9.83001 20.88 8.07001 18.34 8.07001Z" fill="#61AF54"/>
</svg>
