<svg width="375" height="39" viewBox="0 0 375 39" fill="none" xmlns="http://www.w3.org/2000/svg">
<g clip-path="url(#clip0_486_106)">
<mask id="mask0_486_106" style="mask-type:luminance" maskUnits="userSpaceOnUse" x="0" y="0" width="199" height="39">
<path d="M199 0H0V39H199V0Z" fill="white"/>
</mask>
<g mask="url(#mask0_486_106)">
<mask id="mask1_486_106" style="mask-type:luminance" maskUnits="userSpaceOnUse" x="0" y="0" width="199" height="39">
<path d="M199 0H0V39H199V0Z" fill="white"/>
</mask>
<g mask="url(#mask1_486_106)">
<path d="M50.4708 23.267C49.5033 24.234 48.0117 24.8383 46.6008 24.8383C42.7309 24.8383 41.32 22.1389 41.2998 19.6208C41.2998 18.11 41.8239 16.6797 42.7913 15.7128C43.7387 14.766 45.0488 14.2624 46.621 14.2624C48.0722 14.2624 49.3823 14.7861 50.3498 15.7128L50.4506 15.8135L52.6678 13.6782L52.5468 13.5573C50.9142 11.9457 48.8583 11.0997 46.621 11.0997C44.1216 11.0997 41.9851 11.9055 40.4533 13.4566C38.9214 14.9876 38.0547 17.2438 38.0547 19.6208C38.0748 23.4685 40.3323 27.9406 46.621 27.9406C49.0397 27.9406 51.1561 27.1146 52.7484 25.5434L52.8492 25.4426L50.5917 23.1663L50.4909 23.267H50.4708Z" fill="black"/>
<path d="M56.3761 11.4421H53.3325V27.578H56.3761V11.4421Z" fill="black"/>
<path d="M66.6153 21.9778C66.6153 23.67 65.4462 24.9391 63.9144 24.9391C62.3825 24.9391 61.3747 23.8513 61.3747 22.0987V16.0956H58.311V22.1188C58.311 25.5434 60.1855 27.7593 63.088 27.7593C64.5191 27.7593 65.5873 27.3161 66.7564 26.2485L66.9176 27.5982H69.679V16.1157H66.6355V21.9778H66.6153Z" fill="black"/>
<path d="M80.9867 21.8368C80.9867 23.6498 79.7168 24.9592 77.9633 24.9592C76.4314 24.9592 74.8794 23.8915 74.8794 21.8368C74.8794 20.064 76.2097 18.7345 77.9633 18.7345C79.7168 18.7345 80.9867 20.0036 80.9867 21.8368ZM78.2051 15.8337C77.2175 15.8337 75.5647 16.297 74.698 17.3042V11.4421H71.6343V27.578H74.5166L74.6577 26.2887C75.6453 27.5377 77.0764 27.8197 78.1447 27.8197C81.672 27.8197 84.0504 25.4024 84.0504 21.8166C84.0504 18.2309 81.813 15.8135 78.2051 15.8135" fill="black"/>
<path d="M97.2326 17.5863C95.1968 17.3445 93.8262 16.9416 93.8262 15.7531C93.8262 14.5646 95.0355 13.7991 96.9504 13.7991C98.6435 13.7991 100.095 14.6653 100.578 15.4912L100.659 15.6121L103.3 14.2624L103.239 14.1214C102.211 12.0062 99.9939 10.8983 96.8697 10.8983C93.7456 10.9184 90.5811 12.4091 90.5811 15.6725C90.5811 19.359 93.6448 20.2252 96.9504 20.6281C99.3288 20.89 100.478 21.5951 100.478 22.8037C100.478 24.8786 97.7969 25.0196 96.9907 25.0196C94.8945 25.0196 93.282 24.1131 92.6773 22.6023L92.6168 22.4411L89.8555 23.8714L89.9159 23.9923C91.0044 26.6715 93.3223 27.9809 96.9705 27.9809C100.256 27.9809 103.783 26.6111 103.783 22.7836C103.783 18.9561 100.639 17.9892 97.2527 17.5863" fill="black"/>
<path d="M114.063 21.8569C114.063 23.4081 113.095 25.0801 110.959 25.0801C109.104 25.0801 107.794 23.7505 107.794 21.8368C107.794 19.923 109.064 18.6136 110.959 18.6136C113.095 18.6136 114.063 20.2856 114.063 21.8368M114.143 17.3445C113.398 16.4179 112.108 15.8337 110.717 15.8337C108.963 15.8337 107.431 16.3977 106.363 17.4452C105.295 18.5129 104.73 20.0238 104.73 21.8368C104.73 23.6498 105.295 25.2815 106.383 26.3492C107.411 27.3766 108.862 27.9205 110.596 27.9205H110.656C111.886 27.9003 113.398 27.3363 114.163 26.2887L114.264 27.578H117.167V16.1157H114.224L114.143 17.3445Z" fill="black"/>
<path d="M125.532 15.9344C124.221 15.9344 123.113 16.3977 121.984 17.4452L121.823 16.0955H119.062V27.578H122.105V21.7159C122.105 20.0237 123.274 18.7345 124.806 18.7345C126.338 18.7345 127.346 19.8223 127.346 21.5749V27.578H130.409V21.5547C130.409 18.1906 128.454 15.9142 125.511 15.9142" fill="black"/>
<path d="M143.027 14.5243H147.804V20.6684C147.804 23.2469 146.373 24.798 143.974 24.798C141.374 24.798 140.124 23.5088 140.124 20.8497V20.6885H136.879V20.8497C136.879 25.2009 139.6 27.9003 143.994 27.9003C148.388 27.9003 151.13 24.9793 151.13 20.6684V11.4421H143.047V14.5243H143.027Z" fill="black"/>
<path d="M161.349 21.8569C161.349 23.4081 160.462 24.9793 158.467 24.9793C156.471 24.9793 155.584 23.4081 155.584 21.8569C155.584 20.3058 156.491 18.6942 158.467 18.6942C160.26 18.6942 161.349 20.3058 161.349 21.8569ZM158.446 15.8941C155 15.8941 152.521 18.4122 152.521 21.8771C152.521 25.3419 154.98 27.8399 158.467 27.8399C161.954 27.8399 164.433 25.3822 164.433 21.8771C164.433 18.3719 161.913 15.8941 158.426 15.8941" fill="black"/>
<path d="M174.853 16.9215C174.188 16.2567 172.999 15.8135 171.87 15.8135C170.842 15.8135 169.693 15.9747 168.806 17.1431L168.645 16.0956H165.803V27.5579H168.867V21.5145C168.867 19.0971 170.701 18.8352 171.507 18.8352C172.414 18.8352 172.878 19.077 173.402 19.5201L173.543 19.641L174.934 16.9618L174.853 16.8812V16.9215Z" fill="black"/>
<path d="M183.137 21.5749C183.137 23.3074 182.009 24.516 180.396 24.516C178.784 24.516 177.635 23.3074 177.635 21.5749C177.635 19.8425 178.784 18.5734 180.396 18.5734C182.009 18.5734 183.137 19.8223 183.137 21.5749ZM184.044 14.9272L182.936 16.3373C182.089 15.8135 181.142 15.7531 180.416 15.7531C177.05 15.7531 174.591 18.1906 174.591 21.5749C174.591 25.1405 176.829 27.3363 180.416 27.3363C181.706 27.3363 183.097 27.9809 183.097 29.4313C183.097 30.8817 182.049 31.6875 180.416 31.6875C178.784 31.6875 177.655 30.7206 177.655 29.4313V29.2702H174.611V29.4313C174.611 32.453 177.01 34.5682 180.437 34.5682C183.863 34.5682 186.181 32.5134 186.181 29.4313C186.181 28.3435 185.959 26.8125 184.044 25.7448C186.06 24.6369 186.221 22.3001 186.221 21.5749C186.221 20.2454 185.858 19.1777 185.093 18.2712L186.362 16.6596L184.085 14.9272H184.044Z" fill="black"/>
<path d="M190.333 20.3864C190.756 19.1978 191.805 18.5129 193.256 18.5129C194.707 18.5129 195.755 19.1978 195.977 20.3864H190.333ZM197.569 17.4654C196.561 16.3574 195.029 15.7733 193.155 15.7733C189.507 15.7733 187.068 18.1906 187.068 21.7764C187.068 25.5434 189.487 27.8802 193.357 27.8802C195.292 27.8802 197.166 27.1751 198.275 26.0269L198.375 25.9261L196.38 23.9721L196.279 24.093C195.654 24.7376 194.324 25.0801 193.397 25.0801C191.684 25.0801 190.515 24.2944 190.253 23.0052H198.94V22.8642C199.161 20.5677 198.698 18.7144 197.569 17.4855" fill="black"/>
<path d="M5.46227 27.9003H18.0598C18.8458 27.9003 19.511 27.2557 19.511 26.4499V23.7304C19.511 22.9447 18.866 22.28 18.0598 22.28H8.44536C6.87319 22.28 5.60336 21.0108 5.60336 19.4396V8.42045C5.60336 6.84917 6.87319 5.58006 8.44536 5.58006H29.2866C30.1332 5.53977 30.6169 5.33833 30.6169 4.6937C30.6169 2.41736 28.561 0.0201446 25.4368 0H5.26071C2.11638 0 0 2.29649 0 5.4189V22.4814C0.141092 25.483 1.97529 27.8399 5.46227 27.9003Z" fill="black"/>
<path d="M25.1747 11.0997H12.5772C11.7911 11.0997 11.126 11.7443 11.126 12.5501V15.2696C11.126 16.0552 11.771 16.72 12.5772 16.72H22.1916C23.7638 16.72 25.0336 17.9891 25.0336 19.5604V30.5795C25.0336 32.1508 23.7638 33.4199 22.1916 33.4199H1.35031C0.503763 33.4602 0.0200195 33.6617 0.0200195 34.3063C0.0200195 36.5826 2.07593 38.9798 5.20011 39H25.3762C28.5206 39 30.6571 36.7236 30.637 33.6012V16.5387C30.516 13.5372 28.6617 11.1802 25.1747 11.1198" fill="black"/>
</g>
</g>
</g>
<path d="M212 8.83154H213.698V28.7106H212V8.83154Z" fill="black"/>
<path d="M222.188 23.6896H222.502C222.907 23.6896 223.109 23.604 223.244 23.2188L228.212 10.4219H230.573L235.541 23.2188C235.676 23.604 235.9 23.6896 236.283 23.6896H236.62V25.5299H235.361C234.237 25.5299 233.877 25.2731 233.518 24.2888L232.326 21.1858H226.481L225.29 24.2888C224.908 25.2731 224.548 25.5299 223.424 25.5299H222.188V23.6896ZM231.764 19.3883L230.033 14.7874C229.741 13.9956 229.404 12.6688 229.404 12.6688H229.359C229.359 12.6688 229.044 13.9956 228.752 14.7874L227.021 19.3883H231.764Z" fill="black"/>
<path d="M242.391 14.3976C245.185 14.3976 245.984 16.0371 245.984 16.0371H246.028V15.7051C246.028 15.0825 246.383 14.6467 247.27 14.6467H249.354V16.3692H248.467C248.179 16.3692 247.979 16.5144 247.979 16.7842V24.7118C247.979 28.1775 245.163 29.5057 242.325 29.5057C240.972 29.5057 239.597 29.1529 238.489 28.6341L239.221 27.0154C239.221 27.0154 240.595 27.721 242.281 27.721C244.232 27.721 245.828 26.9116 245.828 24.7948V24.0892C245.828 23.7572 245.873 23.4251 245.873 23.4251H245.828C245.163 24.442 244.121 25.0231 242.48 25.0231C239.376 25.0231 237.469 22.678 237.469 19.6481C237.469 16.6182 239.265 14.3976 242.391 14.3976ZM245.895 19.6689C245.895 16.9295 244.454 16.1409 242.724 16.1409C240.773 16.1409 239.664 17.4691 239.664 19.6066C239.664 21.7441 240.884 23.2799 242.901 23.2799C244.454 23.2799 245.895 22.4082 245.895 19.6689Z" fill="black"/>
<path d="M256.535 14.3976C259.599 14.3976 261.24 16.6241 261.24 19.3757C261.24 19.6487 261.175 20.2158 261.175 20.2158H253.211C253.34 22.4843 255.024 23.7655 256.966 23.7655C258.909 23.7655 260.161 22.5263 260.161 22.5263L261.067 23.9756C261.067 23.9756 259.448 25.5299 256.858 25.5299C253.405 25.5299 251.052 23.1144 251.052 19.9638C251.052 16.5821 253.426 14.3976 256.535 14.3976ZM259.081 18.7245C259.017 16.9602 257.873 16.015 256.513 16.015C254.916 16.015 253.621 16.9602 253.297 18.7245H259.081Z" fill="black"/>
<path d="M263.554 16.9121C263.554 16.5897 263.368 16.4393 263.042 16.4393H262.088V14.6555H264.251C265.252 14.6555 265.74 15.0639 265.74 15.859V16.2673C265.74 16.6112 265.694 16.8906 265.694 16.8906H265.74C266.205 15.945 267.601 14.3976 270.159 14.3976C272.95 14.3976 274.206 15.7945 274.206 18.5669V23.2734C274.206 23.5957 274.392 23.7462 274.718 23.7462H275.672V25.5299H273.439C272.392 25.5299 271.95 25.1216 271.95 24.1545V19.0397C271.95 17.5138 271.625 16.3103 269.741 16.3103C267.857 16.3103 266.484 17.4064 266.019 18.9752C265.856 19.405 265.81 19.8993 265.81 20.4366V25.5299H263.554V16.9121Z" fill="black"/>
<path d="M282.342 14.3976C283.648 14.3976 286.238 14.9228 286.238 16.7291V17.8213H284.354V17.2332C284.354 16.4771 283.134 16.141 282.342 16.141C280.224 16.141 278.64 17.6953 278.64 19.9428C278.64 22.3583 280.438 23.7235 282.449 23.7235C284.461 23.7235 285.81 22.2532 285.81 22.2532L286.708 23.7025C286.708 23.7025 285.168 25.5299 282.3 25.5299C278.897 25.5299 276.521 23.1564 276.521 19.9638C276.521 16.7711 278.854 14.3976 282.342 14.3976Z" fill="black"/>
<path d="M289.852 16.9487C289.852 16.6277 289.668 16.4779 289.347 16.4779H288.406V14.7018H290.586C291.619 14.7018 292.054 15.1084 292.054 16.0713V23.283C292.054 23.604 292.238 23.7538 292.559 23.7538H293.5V25.5299H291.32C290.288 25.5299 289.852 25.1233 289.852 24.1604V16.9487ZM289.898 10.4219H291.894V12.5832H289.898V10.4219Z" fill="black"/>
<path d="M301.261 18.6615H301.76V18.5565C301.76 16.6871 301.012 16.015 299.221 16.015C298.678 16.015 297.341 16.141 297.341 16.8341V17.4433H295.278V16.393C295.278 14.6497 298.134 14.3976 299.244 14.3976C302.961 14.3976 303.958 16.204 303.958 18.5565V23.0724C303.958 23.3875 304.139 23.5345 304.456 23.5345H305.386V25.2778H303.323C302.304 25.2778 301.896 24.8158 301.896 24.0596C301.896 23.7025 301.941 23.4295 301.941 23.4295H301.896C301.896 23.4295 300.989 25.5299 298.247 25.5299C296.275 25.5299 294.349 24.4167 294.349 22.2952C294.349 18.8715 299.335 18.6615 301.261 18.6615ZM298.723 23.8916C300.581 23.8916 301.782 22.0852 301.782 20.5099V20.1528H301.216C299.561 20.1528 296.57 20.2368 296.57 22.1902C296.57 23.0514 297.273 23.8916 298.723 23.8916Z" fill="black"/>
<path d="M307.328 22.2952C307.328 22.2952 308.641 23.8706 310.676 23.8706C311.704 23.8706 312.602 23.4295 312.602 22.5053C312.602 20.5939 306.563 20.8039 306.563 17.3802C306.563 15.3428 308.422 14.3976 310.676 14.3976C312.011 14.3976 314.308 14.8387 314.308 16.4561V17.4643H312.405V16.9392C312.405 16.309 311.42 16.036 310.742 16.036C309.495 16.036 308.685 16.4561 308.685 17.2962C308.685 19.3126 314.724 18.8715 314.724 22.4213C314.724 24.3117 312.974 25.5299 310.654 25.5299C307.7 25.5299 306.234 23.6605 306.234 23.6605L307.328 22.2952Z" fill="black"/>
<path d="M321.516 23.6896H321.83C322.235 23.6896 322.437 23.604 322.572 23.2188L327.54 10.4219H329.901L334.869 23.2188C335.004 23.604 335.229 23.6896 335.611 23.6896H335.948V25.5299H334.689C333.565 25.5299 333.205 25.2731 332.846 24.2888L331.654 21.1858H325.809L324.618 24.2888C324.236 25.2731 323.876 25.5299 322.752 25.5299H321.516V23.6896ZM331.088 19.3883L329.357 14.7874C329.065 13.9956 328.728 12.6688 328.728 12.6688H328.683C328.683 12.6688 328.368 13.9956 328.076 14.7874L326.345 19.3883H331.088Z" fill="black"/>
<path d="M338.171 12.6313C338.171 12.3156 337.996 12.1683 337.691 12.1683H336.797V10.4219H338.89C339.872 10.4219 340.286 10.8217 340.286 11.7686V15.2405C340.286 15.7455 340.243 16.1242 340.243 16.1242H340.286C340.286 16.1242 341.246 14.3777 343.841 14.3777C346.807 14.3777 348.682 16.6503 348.682 19.9538C348.682 23.2574 346.567 25.5299 343.666 25.5299C341.202 25.5299 340.199 23.7414 340.199 23.7414H340.155C340.155 23.7414 340.199 24.078 340.199 24.541V25.2774H338.171V12.6313ZM343.361 23.7835C345.106 23.7835 346.545 22.3947 346.545 19.9749C346.545 17.5551 345.258 16.1663 343.405 16.1663C341.769 16.1663 340.243 17.2815 340.243 19.9959C340.243 21.8897 341.268 23.7835 343.361 23.7835Z" fill="black"/>
<path d="M356.319 14.3976C359.64 14.3976 361.417 16.6241 361.417 19.3757C361.417 19.6487 361.347 20.2158 361.347 20.2158H352.719C352.859 22.4843 354.683 23.7655 356.787 23.7655C358.892 23.7655 360.248 22.5263 360.248 22.5263L361.23 23.9756C361.23 23.9756 359.476 25.5299 356.67 25.5299C352.929 25.5299 350.38 23.1144 350.38 19.9638C350.38 16.5821 352.952 14.3976 356.319 14.3976ZM359.079 18.7245C359.008 16.9602 357.769 16.015 356.296 16.015C354.566 16.015 353.163 16.9602 352.812 18.7245H359.079Z" fill="black"/>
<path d="M367.616 14.3777C370.35 14.3777 371.261 16.019 371.261 16.019H371.308C371.308 16.019 371.261 15.7034 371.261 15.3036V12.6313C371.261 12.3156 371.075 12.1683 370.747 12.1683H369.789V10.4219H372.033C373.084 10.4219 373.528 10.8217 373.528 11.7686V23.068C373.528 23.3837 373.715 23.531 374.042 23.531H375V25.2774H372.827C371.799 25.2774 371.378 24.8566 371.378 24.1412C371.378 23.8255 371.402 23.5941 371.402 23.5941H371.355C371.355 23.5941 370.374 25.5299 367.476 25.5299C364.275 25.5299 362.266 23.2574 362.266 19.9538C362.266 16.6503 364.485 14.3777 367.616 14.3777ZM371.332 19.9328C371.332 18.039 370.233 16.1453 367.967 16.1453C366.121 16.1453 364.579 17.534 364.579 19.9538C364.579 22.3737 365.957 23.7624 367.92 23.7624C369.673 23.7624 371.332 22.6472 371.332 19.9328Z" fill="black"/>
<defs>
<clipPath id="clip0_486_106">
<rect width="199" height="39" fill="white"/>
</clipPath>
</defs>
</svg>
