<svg width="161" height="122" viewBox="0 0 161 122" fill="none" xmlns="http://www.w3.org/2000/svg">
<path d="M65.2013 41.8909H84.1158C85.296 41.8909 86.2947 40.923 86.2947 39.7131V35.6299C86.2947 34.4503 85.3263 33.4522 84.1158 33.4522H69.6803C67.3197 33.4522 65.4132 31.5467 65.4132 29.1875V12.6429C65.4132 10.2837 67.3197 8.37817 69.6803 8.37817H100.972C102.243 8.31768 102.97 8.01522 102.97 7.04734C102.97 3.62953 99.8829 0.0302461 95.1921 0H64.8987C60.1776 0 57 3.44806 57 8.1362V33.7547C57.2118 38.2613 59.9658 41.8001 65.2013 41.8909Z" fill="#BE002F"/>
<path d="M94.7987 16.6656H75.8842C74.704 16.6656 73.7053 17.6335 73.7053 18.8433V22.9265C73.7053 24.1061 74.6737 25.1043 75.8842 25.1043H90.3197C92.6803 25.1043 94.5868 27.0098 94.5868 29.369V45.9136C94.5868 48.2728 92.6803 50.1783 90.3197 50.1783H59.0276C57.7566 50.2388 57.0303 50.5412 57.0303 51.5091C57.0303 54.9269 60.1171 58.5262 64.8079 58.5564H95.1013C99.8224 58.5564 103.03 55.1386 103 50.4505V24.832C102.818 20.3254 100.034 16.7866 94.7987 16.6958" fill="#61AF54"/>
<path d="M12.4161 85.3688C11.4486 86.3357 9.95706 86.9401 8.54614 86.9401C4.67619 86.9401 3.26527 84.2407 3.24511 81.7226C3.24511 80.2117 3.76917 78.7815 4.73666 77.8145C5.68399 76.8677 6.99413 76.3641 8.56629 76.3641C10.0175 76.3641 11.3277 76.8879 12.2951 77.8145L12.3959 77.9153L14.6131 75.7799L14.4922 75.6591C12.8595 74.0475 10.8036 73.2014 8.56629 73.2014C6.06695 73.2014 3.93042 74.0072 2.39856 75.5583C0.866708 77.0893 0 79.3455 0 81.7226C0.020156 85.5702 2.27763 90.0423 8.56629 90.0423C10.985 90.0423 13.1014 89.2164 14.6937 87.6451L14.7945 87.5444L12.537 85.268L12.4362 85.3688H12.4161Z" fill="white"/>
<path d="M18.3214 73.5439H15.2778V89.6797H18.3214V73.5439Z" fill="white"/>
<path d="M28.5606 84.0796C28.5606 85.7717 27.3916 87.0408 25.8597 87.0408C24.3279 87.0408 23.3201 85.953 23.3201 84.2004V78.1973H20.2563V84.2206C20.2563 87.6452 22.1309 89.8611 25.0333 89.8611C26.4644 89.8611 27.5327 89.4179 28.7017 88.3502L28.863 89.6999H31.6243V78.2175H28.5808V84.0796H28.5606Z" fill="white"/>
<path d="M42.932 83.9385C42.932 85.7515 41.6621 87.0609 39.9086 87.0609C38.3767 87.0609 36.8247 85.9933 36.8247 83.9385C36.8247 82.1658 38.155 80.8362 39.9086 80.8362C41.6621 80.8362 42.932 82.1054 42.932 83.9385ZM40.1504 77.9354C39.1628 77.9354 37.51 78.3987 36.6433 79.406V73.5439H33.5796V89.6797H36.4619L36.603 88.3905C37.5906 89.6394 39.0217 89.9215 40.09 89.9215C43.6173 89.9215 45.9957 87.5041 45.9957 83.9184C45.9957 80.3326 43.7584 77.9153 40.1504 77.9153" fill="white"/>
<path d="M59.1779 79.688C57.1421 79.4463 55.7715 79.0434 55.7715 77.8549C55.7715 76.6663 56.9809 75.9008 58.8957 75.9008C60.5888 75.9008 62.04 76.767 62.5238 77.593L62.6044 77.7138L65.2448 76.3642L65.1844 76.2231C64.1564 74.108 61.9392 73 58.8151 73C55.6909 73.0201 52.5264 74.5108 52.5264 77.7743C52.5264 81.4607 55.5901 82.327 58.8957 82.7299C61.2741 82.9917 62.423 83.6968 62.423 84.9055C62.423 86.9804 59.7422 87.1214 58.936 87.1214C56.8398 87.1214 55.2273 86.2149 54.6226 84.704L54.5621 84.5429L51.8008 85.9731L51.8612 86.094C52.9497 88.7732 55.2676 90.0826 58.9158 90.0826C62.2013 90.0826 65.7286 88.7128 65.7286 84.8853C65.7286 81.0579 62.5842 80.0909 59.198 79.688" fill="white"/>
<path d="M76.008 83.9587C76.008 85.5098 75.0405 87.1818 72.904 87.1818C71.0496 87.1818 69.7395 85.8523 69.7395 83.9385C69.7395 82.0248 71.0093 80.7154 72.904 80.7154C75.0405 80.7154 76.008 82.3874 76.008 83.9385M76.0886 79.4463C75.3429 78.5196 74.0529 77.9354 72.6621 77.9354C70.9085 77.9354 69.3767 78.4995 68.3084 79.547C67.2402 80.6147 66.6758 82.1255 66.6758 83.9385C66.6758 85.7515 67.2401 87.3833 68.3286 88.4509C69.3565 89.4783 70.8078 90.0222 72.5412 90.0222H72.6016C73.8312 90.0021 75.3429 89.438 76.1088 88.3905L76.2096 89.6797H79.112V78.2174H76.1692L76.0886 79.4463Z" fill="white"/>
<path d="M87.4769 78.0361C86.1668 78.0361 85.0582 78.4995 83.9295 79.547L83.7682 78.1973H81.0068V89.6797H84.0504V83.8176C84.0504 82.1255 85.2194 80.8362 86.7513 80.8362C88.2831 80.8362 89.2909 81.924 89.2909 83.6766V89.6797H92.3546V83.6565C92.3546 80.2923 90.3995 78.016 87.4568 78.016" fill="white"/>
<path d="M104.972 76.626H109.749V82.7701C109.749 85.3486 108.318 86.8998 105.92 86.8998C103.319 86.8998 102.07 85.6105 102.07 82.9514V82.7903H98.8247V82.9514C98.8247 87.3027 101.546 90.002 105.94 90.002C110.334 90.002 113.075 87.0811 113.075 82.7701V73.5439H104.992V76.626H104.972Z" fill="white"/>
<path d="M123.294 83.9587C123.294 85.5098 122.407 87.0811 120.412 87.0811C118.416 87.0811 117.53 85.5098 117.53 83.9587C117.53 82.4075 118.437 80.796 120.412 80.796C122.206 80.796 123.294 82.4075 123.294 83.9587ZM120.392 77.9958C116.945 77.9958 114.466 80.5139 114.466 83.9788C114.466 87.4437 116.925 89.9416 120.412 89.9416C123.899 89.9416 126.378 87.484 126.378 83.9788C126.378 80.4736 123.859 77.9958 120.372 77.9958" fill="white"/>
<path d="M136.799 79.0232C136.133 78.3585 134.944 77.9153 133.815 77.9153C132.788 77.9153 131.639 78.0764 130.752 79.2448L130.591 78.1973H127.749V89.6596H130.812V83.6162C130.812 81.1989 132.646 80.937 133.453 80.937C134.36 80.937 134.823 81.1787 135.347 81.6219L135.488 81.7428L136.879 79.0635L136.799 78.9829V79.0232Z" fill="white"/>
<path d="M145.083 83.6767C145.083 85.4091 143.954 86.6178 142.342 86.6178C140.729 86.6178 139.58 85.4091 139.58 83.6767C139.58 81.9442 140.729 80.6751 142.342 80.6751C143.954 80.6751 145.083 81.9241 145.083 83.6767ZM145.99 77.0289L144.881 78.4391C144.035 77.9153 143.087 77.8549 142.362 77.8549C138.996 77.8549 136.537 80.2924 136.537 83.6767C136.537 87.2423 138.774 89.438 142.362 89.438C143.652 89.438 145.042 90.0826 145.042 91.5331C145.042 92.9835 143.994 93.7893 142.362 93.7893C140.729 93.7893 139.6 92.8223 139.6 91.5331V91.3719H136.557V91.5331C136.557 94.5548 138.955 96.6699 142.382 96.6699C145.808 96.6699 148.126 94.6152 148.126 91.5331C148.126 90.4453 147.905 88.9143 145.99 87.8466C148.005 86.7386 148.167 84.4019 148.167 83.6767C148.167 82.3471 147.804 81.2794 147.038 80.3729L148.308 78.7614L146.03 77.0289H145.99Z" fill="white"/>
<path d="M152.278 82.4881C152.702 81.2996 153.75 80.6147 155.201 80.6147C156.652 80.6147 157.7 81.2996 157.922 82.4881H152.278ZM159.514 79.5671C158.507 78.4592 156.975 77.875 155.1 77.875C151.452 77.875 149.013 80.2924 149.013 83.8781C149.013 87.6451 151.432 89.9819 155.302 89.9819C157.237 89.9819 159.111 89.2769 160.22 88.1286L160.321 88.0279L158.325 86.0739L158.224 86.1947C157.6 86.8394 156.269 87.1818 155.342 87.1818C153.629 87.1818 152.46 86.3962 152.198 85.1069H160.885V84.9659C161.107 82.6694 160.643 80.8161 159.514 79.5873" fill="white"/>
<path d="M4 115.938H4.31472C4.71937 115.938 4.92169 115.852 5.05657 115.467L10.0247 102.67H12.3851L17.3532 115.467C17.4881 115.852 17.7129 115.938 18.0951 115.938H18.4323V117.778H17.1734C16.0494 117.778 15.6897 117.521 15.33 116.537L14.1386 113.434H8.29372L7.10227 116.537C6.7201 117.521 6.36042 117.778 5.23641 117.778H4V115.938ZM13.5766 111.636L11.8456 107.035C11.5533 106.244 11.2161 104.917 11.2161 104.917H11.1712C11.1712 104.917 10.8565 106.244 10.5642 107.035L8.83324 111.636H13.5766Z" fill="white"/>
<path d="M24.2039 106.646C26.9979 106.646 27.7962 108.285 27.7962 108.285H27.8405V107.953C27.8405 107.331 28.1953 106.895 29.0823 106.895H31.1667V108.617H30.2797C29.9914 108.617 29.7919 108.762 29.7919 109.032V116.96C29.7919 120.426 26.9757 121.754 24.1374 121.754C22.7848 121.754 21.41 121.401 20.3013 120.882L21.033 119.263C21.033 119.263 22.4078 119.969 24.0931 119.969C26.0444 119.969 27.641 119.16 27.641 117.043V116.337C27.641 116.005 27.6853 115.673 27.6853 115.673H27.641C26.9757 116.69 25.9335 117.271 24.2926 117.271C21.1882 117.271 19.2812 114.926 19.2812 111.896C19.2812 108.866 21.0774 106.646 24.2039 106.646ZM27.7075 111.917C27.7075 109.178 26.2661 108.389 24.5366 108.389C22.5852 108.389 21.4765 109.717 21.4765 111.855C21.4765 113.992 22.6961 115.528 24.714 115.528C26.2662 115.528 27.7075 114.656 27.7075 111.917Z" fill="white"/>
<path d="M38.347 106.646C41.4119 106.646 43.0522 108.872 43.0522 111.624C43.0522 111.897 42.9875 112.464 42.9875 112.464H35.0231C35.1526 114.732 36.8361 116.014 38.7787 116.014C40.7212 116.014 41.9731 114.774 41.9731 114.774L42.8796 116.224C42.8796 116.224 41.2608 117.778 38.6708 117.778C35.2174 117.778 32.8647 115.362 32.8647 112.212C32.8647 108.83 35.239 106.646 38.347 106.646ZM40.8939 110.973C40.8291 109.208 39.6852 108.263 38.3254 108.263C36.7282 108.263 35.4332 109.208 35.1095 110.973H40.8939Z" fill="white"/>
<path d="M45.3662 109.16C45.3662 108.838 45.1801 108.687 44.8545 108.687H43.9009V106.904H46.064C47.0641 106.904 47.5526 107.312 47.5526 108.107V108.515C47.5526 108.859 47.506 109.139 47.506 109.139H47.5526C48.0177 108.193 49.4133 106.646 51.9718 106.646C54.7629 106.646 56.0189 108.043 56.0189 110.815V115.521C56.0189 115.844 56.205 115.994 56.5306 115.994H57.4842V117.778H55.2513C54.2047 117.778 53.7627 117.37 53.7627 116.403V111.288C53.7627 109.762 53.4371 108.558 51.5531 108.558C49.6691 108.558 48.2969 109.654 47.8317 111.223C47.6689 111.653 47.6223 112.147 47.6223 112.685V117.778H45.3662V109.16Z" fill="white"/>
<path d="M64.1549 106.646C65.4605 106.646 68.0501 107.171 68.0501 108.977V110.069H66.1667V109.481C66.1667 108.725 64.9468 108.389 64.1549 108.389C62.0361 108.389 60.4523 109.943 60.4523 112.191C60.4523 114.606 62.2501 115.972 64.2619 115.972C66.2738 115.972 67.6221 114.501 67.6221 114.501L68.521 115.951C68.521 115.951 66.98 117.778 64.1121 117.778C60.7092 117.778 58.3335 115.404 58.3335 112.212C58.3335 109.019 60.6663 106.646 64.1549 106.646Z" fill="white"/>
<path d="M71.6643 109.197C71.6643 108.876 71.4807 108.726 71.1595 108.726H70.2188V106.95H72.3985C73.431 106.95 73.867 107.356 73.867 108.319V115.531C73.867 115.852 74.0505 116.002 74.3718 116.002H75.3125V117.778H73.1327C72.1002 117.778 71.6643 117.371 71.6643 116.408V109.197ZM71.7102 102.67H73.7064V104.831H71.7102V102.67Z" fill="white"/>
<path d="M83.0736 110.91H83.5721V110.805C83.5721 108.935 82.8243 108.263 81.034 108.263C80.4901 108.263 79.153 108.389 79.153 109.082V109.691H77.0908V108.641C77.0908 106.898 79.9462 106.646 81.0566 106.646C84.7732 106.646 85.7704 108.452 85.7704 110.805V115.32C85.7704 115.636 85.9517 115.783 86.2689 115.783H87.1981V117.526H85.1358C84.116 117.526 83.7081 117.064 83.7081 116.308C83.7081 115.951 83.7534 115.678 83.7534 115.678H83.7081C83.7081 115.678 82.8016 117.778 80.0595 117.778C78.0879 117.778 76.1616 116.665 76.1616 114.543C76.1616 111.12 81.1473 110.91 83.0736 110.91ZM80.5354 116.14C82.3937 116.14 83.5948 114.333 83.5948 112.758V112.401H83.0282C81.3739 112.401 78.3825 112.485 78.3825 114.438C78.3825 115.299 79.085 116.14 80.5354 116.14Z" fill="white"/>
<path d="M89.1409 114.543C89.1409 114.543 90.4537 116.119 92.4886 116.119C93.517 116.119 94.4141 115.678 94.4141 114.753C94.4141 112.842 88.3751 113.052 88.3751 109.628C88.3751 107.591 90.2349 106.646 92.4886 106.646C93.8233 106.646 96.1207 107.087 96.1207 108.704V109.712H94.2171V109.187C94.2171 108.557 93.2325 108.284 92.5542 108.284C91.3071 108.284 90.4975 108.704 90.4975 109.544C90.4975 111.561 96.5365 111.12 96.5365 114.669C96.5365 116.56 94.786 117.778 92.4667 117.778C89.5129 117.778 88.0469 115.909 88.0469 115.909L89.1409 114.543Z" fill="white"/>
<path d="M103.328 115.938H103.643C104.047 115.938 104.25 115.852 104.385 115.467L109.353 102.67H111.713L116.681 115.467C116.816 115.852 117.041 115.938 117.423 115.938H117.76V117.778H116.502C115.378 117.778 115.018 117.521 114.658 116.537L113.467 113.434H107.622L106.43 116.537C106.048 117.521 105.689 117.778 104.565 117.778H103.328V115.938ZM112.901 111.636L111.17 107.035C110.878 106.244 110.541 104.917 110.541 104.917H110.496C110.496 104.917 110.181 106.244 109.889 107.035L108.158 111.636H112.901Z" fill="white"/>
<path d="M119.983 104.879C119.983 104.564 119.809 104.416 119.504 104.416H118.609V102.67H120.703C121.684 102.67 122.099 103.07 122.099 104.017V107.489C122.099 107.994 122.055 108.372 122.055 108.372H122.099C122.099 108.372 123.058 106.626 125.653 106.626C128.619 106.626 130.495 108.898 130.495 112.202C130.495 115.505 128.379 117.778 125.479 117.778C123.015 117.778 122.011 115.989 122.011 115.989H121.968C121.968 115.989 122.011 116.326 122.011 116.789V117.525H119.983V104.879ZM125.174 116.032C126.918 116.032 128.358 114.643 128.358 112.223C128.358 109.803 127.071 108.414 125.217 108.414C123.582 108.414 122.055 109.53 122.055 112.244C122.055 114.138 123.08 116.032 125.174 116.032Z" fill="white"/>
<path d="M138.132 106.646C141.452 106.646 143.229 108.872 143.229 111.624C143.229 111.897 143.159 112.464 143.159 112.464H134.531C134.671 114.732 136.495 116.014 138.6 116.014C140.704 116.014 142.06 114.774 142.06 114.774L143.042 116.224C143.042 116.224 141.289 117.778 138.483 117.778C134.742 117.778 132.193 115.362 132.193 112.212C132.193 108.83 134.765 106.646 138.132 106.646ZM140.891 110.973C140.821 109.208 139.582 108.263 138.109 108.263C136.378 108.263 134.975 109.208 134.625 110.973H140.891Z" fill="white"/>
<path d="M149.429 106.626C152.163 106.626 153.074 108.267 153.074 108.267H153.121C153.121 108.267 153.074 107.951 153.074 107.552V104.879C153.074 104.564 152.887 104.416 152.56 104.416H151.602V102.67H153.845C154.897 102.67 155.34 103.07 155.34 104.017V115.316C155.34 115.632 155.527 115.779 155.855 115.779H156.812V117.525H154.639C153.611 117.525 153.191 117.105 153.191 116.389C153.191 116.074 153.214 115.842 153.214 115.842H153.167C153.167 115.842 152.186 117.778 149.289 117.778C146.088 117.778 144.078 115.505 144.078 112.202C144.078 108.898 146.298 106.626 149.429 106.626ZM153.144 112.181C153.144 110.287 152.046 108.393 149.779 108.393C147.933 108.393 146.391 109.782 146.391 112.202C146.391 114.622 147.77 116.01 149.733 116.01C151.485 116.01 153.144 114.895 153.144 112.181Z" fill="white"/>
</svg>
