<svg width="161" height="71" viewBox="0 0 161 71" fill="none" xmlns="http://www.w3.org/2000/svg">
<path d="M70.4623 27.9003H83.0598C83.8458 27.9003 84.511 27.2557 84.511 26.4499V23.7304C84.511 22.9447 83.866 22.28 83.0598 22.28H73.4454C71.8732 22.28 70.6034 21.0108 70.6034 19.4396V8.42045C70.6034 6.84917 71.8732 5.58006 73.4454 5.58006H94.2866C95.1332 5.53977 95.6169 5.33833 95.6169 4.6937C95.6169 2.41736 93.561 0.0201446 90.4368 0H70.2607C67.1164 0 65 2.29649 65 5.4189V22.4814C65.1411 25.483 66.9753 27.8399 70.4623 27.9003Z" fill="white"/>
<path d="M90.1747 11.0997H77.5772C76.7911 11.0997 76.126 11.7443 76.126 12.5501V15.2696C76.126 16.0552 76.771 16.72 77.5772 16.72H87.1916C88.7638 16.72 90.0336 17.9891 90.0336 19.5604V30.5795C90.0336 32.1508 88.7638 33.4199 87.1916 33.4199H66.3503C65.5038 33.4602 65.02 33.6617 65.02 34.3063C65.02 36.5826 67.0759 38.9798 70.2001 39H90.3762C93.5206 39 95.6571 36.7236 95.637 33.6012V16.5387C95.516 13.5372 93.6617 11.1802 90.1747 11.1198" fill="white"/>
<path d="M12.4161 59.3688C11.4486 60.3357 9.95706 60.9401 8.54614 60.9401C4.67619 60.9401 3.26527 58.2407 3.24511 55.7226C3.24511 54.2117 3.76917 52.7815 4.73666 51.8145C5.68399 50.8677 6.99413 50.3641 8.56629 50.3641C10.0175 50.3641 11.3277 50.8879 12.2951 51.8145L12.3959 51.9153L14.6131 49.7799L14.4922 49.6591C12.8595 48.0475 10.8036 47.2014 8.56629 47.2014C6.06695 47.2014 3.93042 48.0072 2.39856 49.5583C0.866708 51.0893 0 53.3455 0 55.7226C0.020156 59.5702 2.27763 64.0423 8.56629 64.0423C10.985 64.0423 13.1014 63.2164 14.6937 61.6451L14.7945 61.5444L12.537 59.268L12.4362 59.3688H12.4161Z" fill="white"/>
<path d="M18.3214 47.5439H15.2778V63.6797H18.3214V47.5439Z" fill="white"/>
<path d="M28.5606 58.0796C28.5606 59.7717 27.3916 61.0408 25.8597 61.0408C24.3279 61.0408 23.3201 59.953 23.3201 58.2004V52.1973H20.2563V58.2206C20.2563 61.6452 22.1309 63.8611 25.0333 63.8611C26.4644 63.8611 27.5327 63.4179 28.7017 62.3502L28.863 63.6999H31.6243V52.2175H28.5808V58.0796H28.5606Z" fill="white"/>
<path d="M42.932 57.9385C42.932 59.7515 41.6621 61.0609 39.9086 61.0609C38.3767 61.0609 36.8247 59.9933 36.8247 57.9385C36.8247 56.1658 38.155 54.8362 39.9086 54.8362C41.6621 54.8362 42.932 56.1054 42.932 57.9385ZM40.1504 51.9354C39.1628 51.9354 37.51 52.3987 36.6433 53.406V47.5439H33.5796V63.6797H36.4619L36.603 62.3905C37.5906 63.6394 39.0217 63.9215 40.09 63.9215C43.6173 63.9215 45.9957 61.5041 45.9957 57.9184C45.9957 54.3326 43.7584 51.9153 40.1504 51.9153" fill="white"/>
<path d="M59.1779 53.688C57.1421 53.4463 55.7715 53.0434 55.7715 51.8549C55.7715 50.6663 56.9809 49.9008 58.8957 49.9008C60.5888 49.9008 62.04 50.767 62.5238 51.593L62.6044 51.7138L65.2448 50.3642L65.1844 50.2231C64.1564 48.108 61.9392 47 58.8151 47C55.6909 47.0201 52.5264 48.5108 52.5264 51.7743C52.5264 55.4607 55.5901 56.327 58.8957 56.7299C61.2741 56.9917 62.423 57.6968 62.423 58.9055C62.423 60.9804 59.7422 61.1214 58.936 61.1214C56.8398 61.1214 55.2273 60.2149 54.6226 58.704L54.5621 58.5429L51.8008 59.9731L51.8612 60.094C52.9497 62.7732 55.2676 64.0826 58.9158 64.0826C62.2013 64.0826 65.7286 62.7128 65.7286 58.8853C65.7286 55.0579 62.5842 54.0909 59.198 53.688" fill="white"/>
<path d="M76.008 57.9587C76.008 59.5098 75.0405 61.1818 72.904 61.1818C71.0496 61.1818 69.7395 59.8523 69.7395 57.9385C69.7395 56.0248 71.0093 54.7154 72.904 54.7154C75.0405 54.7154 76.008 56.3874 76.008 57.9385M76.0886 53.4463C75.3429 52.5196 74.0529 51.9354 72.6621 51.9354C70.9085 51.9354 69.3767 52.4995 68.3084 53.547C67.2402 54.6147 66.6758 56.1255 66.6758 57.9385C66.6758 59.7515 67.2401 61.3833 68.3286 62.4509C69.3565 63.4783 70.8078 64.0222 72.5412 64.0222H72.6016C73.8312 64.0021 75.3429 63.438 76.1088 62.3905L76.2096 63.6797H79.112V52.2174H76.1692L76.0886 53.4463Z" fill="white"/>
<path d="M87.4769 52.0361C86.1668 52.0361 85.0582 52.4995 83.9295 53.547L83.7682 52.1973H81.0068V63.6797H84.0504V57.8176C84.0504 56.1255 85.2194 54.8362 86.7513 54.8362C88.2831 54.8362 89.2909 55.924 89.2909 57.6766V63.6797H92.3546V57.6565C92.3546 54.2923 90.3995 52.016 87.4568 52.016" fill="white"/>
<path d="M104.972 50.626H109.749V56.7701C109.749 59.3486 108.318 60.8998 105.92 60.8998C103.319 60.8998 102.07 59.6105 102.07 56.9514V56.7903H98.8247V56.9514C98.8247 61.3027 101.546 64.002 105.94 64.002C110.334 64.002 113.075 61.0811 113.075 56.7701V47.5439H104.992V50.626H104.972Z" fill="white"/>
<path d="M123.294 57.9587C123.294 59.5098 122.407 61.0811 120.412 61.0811C118.416 61.0811 117.53 59.5098 117.53 57.9587C117.53 56.4075 118.437 54.796 120.412 54.796C122.206 54.796 123.294 56.4075 123.294 57.9587ZM120.392 51.9958C116.945 51.9958 114.466 54.5139 114.466 57.9788C114.466 61.4437 116.925 63.9416 120.412 63.9416C123.899 63.9416 126.378 61.484 126.378 57.9788C126.378 54.4736 123.859 51.9958 120.372 51.9958" fill="white"/>
<path d="M136.799 53.0232C136.133 52.3585 134.944 51.9153 133.815 51.9153C132.788 51.9153 131.639 52.0764 130.752 53.2448L130.591 52.1973H127.749V63.6596H130.812V57.6162C130.812 55.1989 132.646 54.937 133.453 54.937C134.36 54.937 134.823 55.1787 135.347 55.6219L135.488 55.7428L136.879 53.0635L136.799 52.9829V53.0232Z" fill="white"/>
<path d="M145.083 57.6767C145.083 59.4091 143.954 60.6178 142.342 60.6178C140.729 60.6178 139.58 59.4091 139.58 57.6767C139.58 55.9442 140.729 54.6751 142.342 54.6751C143.954 54.6751 145.083 55.9241 145.083 57.6767ZM145.99 51.0289L144.881 52.4391C144.035 51.9153 143.087 51.8549 142.362 51.8549C138.996 51.8549 136.537 54.2924 136.537 57.6767C136.537 61.2423 138.774 63.438 142.362 63.438C143.652 63.438 145.042 64.0826 145.042 65.5331C145.042 66.9835 143.994 67.7893 142.362 67.7893C140.729 67.7893 139.6 66.8223 139.6 65.5331V65.3719H136.557V65.5331C136.557 68.5548 138.955 70.6699 142.382 70.6699C145.808 70.6699 148.126 68.6152 148.126 65.5331C148.126 64.4453 147.905 62.9143 145.99 61.8466C148.005 60.7386 148.167 58.4019 148.167 57.6767C148.167 56.3471 147.804 55.2794 147.038 54.3729L148.308 52.7614L146.03 51.0289H145.99Z" fill="white"/>
<path d="M152.278 56.4881C152.702 55.2996 153.75 54.6147 155.201 54.6147C156.652 54.6147 157.7 55.2996 157.922 56.4881H152.278ZM159.514 53.5671C158.507 52.4592 156.975 51.875 155.1 51.875C151.452 51.875 149.013 54.2924 149.013 57.8781C149.013 61.6451 151.432 63.9819 155.302 63.9819C157.237 63.9819 159.111 63.2769 160.22 62.1286L160.321 62.0279L158.325 60.0739L158.224 60.1947C157.6 60.8394 156.269 61.1818 155.342 61.1818C153.629 61.1818 152.46 60.3962 152.198 59.1069H160.885V58.9659C161.107 56.6694 160.643 54.8161 159.514 53.5873" fill="white"/>
</svg>
