<svg width="161" height="96" viewBox="0 0 161 96" fill="none" xmlns="http://www.w3.org/2000/svg">
<path d="M70.4623 27.9003H83.0598C83.8458 27.9003 84.511 27.2557 84.511 26.4499V23.7304C84.511 22.9447 83.866 22.28 83.0598 22.28H73.4454C71.8732 22.28 70.6034 21.0108 70.6034 19.4396V8.42045C70.6034 6.84917 71.8732 5.58006 73.4454 5.58006H94.2866C95.1332 5.53977 95.6169 5.33833 95.6169 4.6937C95.6169 2.41736 93.561 0.0201446 90.4368 0H70.2607C67.1164 0 65 2.29649 65 5.4189V22.4814C65.1411 25.483 66.9753 27.8399 70.4623 27.9003Z" fill="#BE002F"/>
<path d="M90.1747 11.0997H77.5772C76.7911 11.0997 76.126 11.7443 76.126 12.5501V15.2696C76.126 16.0552 76.771 16.72 77.5772 16.72H87.1916C88.7638 16.72 90.0336 17.9891 90.0336 19.5604V30.5795C90.0336 32.1508 88.7638 33.4199 87.1916 33.4199H66.3503C65.5038 33.4602 65.02 33.6617 65.02 34.3063C65.02 36.5826 67.0759 38.9798 70.2001 39H90.3762C93.5206 39 95.6571 36.7236 95.637 33.6012V16.5387C95.516 13.5372 93.6617 11.1802 90.1747 11.1198" fill="#61AF54"/>
<path d="M12.4161 59.3688C11.4486 60.3357 9.95706 60.9401 8.54614 60.9401C4.67619 60.9401 3.26527 58.2407 3.24511 55.7226C3.24511 54.2117 3.76917 52.7815 4.73666 51.8145C5.68399 50.8677 6.99413 50.3641 8.56629 50.3641C10.0175 50.3641 11.3277 50.8879 12.2951 51.8145L12.3959 51.9153L14.6131 49.7799L14.4922 49.6591C12.8595 48.0475 10.8036 47.2014 8.56629 47.2014C6.06695 47.2014 3.93042 48.0072 2.39856 49.5583C0.866708 51.0893 0 53.3455 0 55.7226C0.020156 59.5702 2.27763 64.0423 8.56629 64.0423C10.985 64.0423 13.1014 63.2164 14.6937 61.6451L14.7945 61.5444L12.537 59.268L12.4362 59.3688H12.4161Z" fill="white"/>
<path d="M18.3214 47.5439H15.2778V63.6797H18.3214V47.5439Z" fill="white"/>
<path d="M28.5606 58.0796C28.5606 59.7717 27.3916 61.0408 25.8597 61.0408C24.3279 61.0408 23.3201 59.953 23.3201 58.2004V52.1973H20.2563V58.2206C20.2563 61.6452 22.1309 63.8611 25.0333 63.8611C26.4644 63.8611 27.5327 63.4179 28.7017 62.3502L28.863 63.6999H31.6243V52.2175H28.5808V58.0796H28.5606Z" fill="white"/>
<path d="M42.932 57.9385C42.932 59.7515 41.6621 61.0609 39.9086 61.0609C38.3767 61.0609 36.8247 59.9933 36.8247 57.9385C36.8247 56.1658 38.155 54.8362 39.9086 54.8362C41.6621 54.8362 42.932 56.1054 42.932 57.9385ZM40.1504 51.9354C39.1628 51.9354 37.51 52.3987 36.6433 53.406V47.5439H33.5796V63.6797H36.4619L36.603 62.3905C37.5906 63.6394 39.0217 63.9215 40.09 63.9215C43.6173 63.9215 45.9957 61.5041 45.9957 57.9184C45.9957 54.3326 43.7584 51.9153 40.1504 51.9153" fill="white"/>
<path d="M59.1779 53.688C57.1421 53.4463 55.7715 53.0434 55.7715 51.8549C55.7715 50.6663 56.9809 49.9008 58.8957 49.9008C60.5888 49.9008 62.04 50.767 62.5238 51.593L62.6044 51.7138L65.2448 50.3642L65.1844 50.2231C64.1564 48.108 61.9392 47 58.8151 47C55.6909 47.0201 52.5264 48.5108 52.5264 51.7743C52.5264 55.4607 55.5901 56.327 58.8957 56.7299C61.2741 56.9917 62.423 57.6968 62.423 58.9055C62.423 60.9804 59.7422 61.1214 58.936 61.1214C56.8398 61.1214 55.2273 60.2149 54.6226 58.704L54.5621 58.5429L51.8008 59.9731L51.8612 60.094C52.9497 62.7732 55.2676 64.0826 58.9158 64.0826C62.2013 64.0826 65.7286 62.7128 65.7286 58.8853C65.7286 55.0579 62.5842 54.0909 59.198 53.688" fill="white"/>
<path d="M76.008 57.9587C76.008 59.5098 75.0405 61.1818 72.904 61.1818C71.0496 61.1818 69.7395 59.8523 69.7395 57.9385C69.7395 56.0248 71.0093 54.7154 72.904 54.7154C75.0405 54.7154 76.008 56.3874 76.008 57.9385M76.0886 53.4463C75.3429 52.5196 74.0529 51.9354 72.6621 51.9354C70.9085 51.9354 69.3767 52.4995 68.3084 53.547C67.2402 54.6147 66.6758 56.1255 66.6758 57.9385C66.6758 59.7515 67.2401 61.3833 68.3286 62.4509C69.3565 63.4783 70.8078 64.0222 72.5412 64.0222H72.6016C73.8312 64.0021 75.3429 63.438 76.1088 62.3905L76.2096 63.6797H79.112V52.2174H76.1692L76.0886 53.4463Z" fill="white"/>
<path d="M87.4769 52.0361C86.1668 52.0361 85.0582 52.4995 83.9295 53.547L83.7682 52.1973H81.0068V63.6797H84.0504V57.8176C84.0504 56.1255 85.2194 54.8362 86.7513 54.8362C88.2831 54.8362 89.2909 55.924 89.2909 57.6766V63.6797H92.3546V57.6565C92.3546 54.2923 90.3995 52.016 87.4568 52.016" fill="white"/>
<path d="M104.972 50.626H109.749V56.7701C109.749 59.3486 108.318 60.8998 105.92 60.8998C103.319 60.8998 102.07 59.6105 102.07 56.9514V56.7903H98.8247V56.9514C98.8247 61.3027 101.546 64.002 105.94 64.002C110.334 64.002 113.075 61.0811 113.075 56.7701V47.5439H104.992V50.626H104.972Z" fill="white"/>
<path d="M123.294 57.9587C123.294 59.5098 122.407 61.0811 120.412 61.0811C118.416 61.0811 117.53 59.5098 117.53 57.9587C117.53 56.4075 118.437 54.796 120.412 54.796C122.206 54.796 123.294 56.4075 123.294 57.9587ZM120.392 51.9958C116.945 51.9958 114.466 54.5139 114.466 57.9788C114.466 61.4437 116.925 63.9416 120.412 63.9416C123.899 63.9416 126.378 61.484 126.378 57.9788C126.378 54.4736 123.859 51.9958 120.372 51.9958" fill="white"/>
<path d="M136.799 53.0232C136.133 52.3585 134.944 51.9153 133.815 51.9153C132.788 51.9153 131.639 52.0764 130.752 53.2448L130.591 52.1973H127.749V63.6596H130.812V57.6162C130.812 55.1989 132.646 54.937 133.453 54.937C134.36 54.937 134.823 55.1787 135.347 55.6219L135.488 55.7428L136.879 53.0635L136.799 52.9829V53.0232Z" fill="white"/>
<path d="M145.083 57.6767C145.083 59.4091 143.954 60.6178 142.342 60.6178C140.729 60.6178 139.58 59.4091 139.58 57.6767C139.58 55.9442 140.729 54.6751 142.342 54.6751C143.954 54.6751 145.083 55.9241 145.083 57.6767ZM145.99 51.0289L144.881 52.4391C144.035 51.9153 143.087 51.8549 142.362 51.8549C138.996 51.8549 136.537 54.2924 136.537 57.6767C136.537 61.2423 138.774 63.438 142.362 63.438C143.652 63.438 145.042 64.0826 145.042 65.5331C145.042 66.9835 143.994 67.7893 142.362 67.7893C140.729 67.7893 139.6 66.8223 139.6 65.5331V65.3719H136.557V65.5331C136.557 68.5548 138.955 70.6699 142.382 70.6699C145.808 70.6699 148.126 68.6152 148.126 65.5331C148.126 64.4453 147.905 62.9143 145.99 61.8466C148.005 60.7386 148.167 58.4019 148.167 57.6767C148.167 56.3471 147.804 55.2794 147.038 54.3729L148.308 52.7614L146.03 51.0289H145.99Z" fill="white"/>
<path d="M152.278 56.4881C152.702 55.2996 153.75 54.6147 155.201 54.6147C156.652 54.6147 157.7 55.2996 157.922 56.4881H152.278ZM159.514 53.5671C158.507 52.4592 156.975 51.875 155.1 51.875C151.452 51.875 149.013 54.2924 149.013 57.8781C149.013 61.6451 151.432 63.9819 155.302 63.9819C157.237 63.9819 159.111 63.2769 160.22 62.1286L160.321 62.0279L158.325 60.0739L158.224 60.1947C157.6 60.8394 156.269 61.1818 155.342 61.1818C153.629 61.1818 152.46 60.3962 152.198 59.1069H160.885V58.9659C161.107 56.6694 160.643 54.8161 159.514 53.5873" fill="white"/>
<path d="M4 89.9376H4.31472C4.71937 89.9376 4.92169 89.852 5.05657 89.4668L10.0247 76.6699H12.3851L17.3532 89.4668C17.4881 89.852 17.7129 89.9376 18.0951 89.9376H18.4323V91.778H17.1734C16.0494 91.778 15.6897 91.5212 15.33 90.5368L14.1386 87.4339H8.29372L7.10227 90.5368C6.7201 91.5212 6.36042 91.778 5.23641 91.778H4V89.9376ZM13.5766 85.6363L11.8456 81.0354C11.5533 80.2436 11.2161 78.9169 11.2161 78.9169H11.1712C11.1712 78.9169 10.8565 80.2436 10.5642 81.0354L8.83324 85.6363H13.5766Z" fill="white"/>
<path d="M24.2039 80.6457C26.9979 80.6457 27.7962 82.2852 27.7962 82.2852H27.8405V81.9531C27.8405 81.3305 28.1953 80.8947 29.0823 80.8947H31.1667V82.6172H30.2797C29.9914 82.6172 29.7919 82.7625 29.7919 83.0323V90.9598C29.7919 94.4256 26.9757 95.7537 24.1374 95.7537C22.7848 95.7537 21.41 95.4009 20.3013 94.8821L21.033 93.2634C21.033 93.2634 22.4078 93.969 24.0931 93.969C26.0444 93.969 27.641 93.1596 27.641 91.0429V90.3373C27.641 90.0052 27.6853 89.6732 27.6853 89.6732H27.641C26.9757 90.6901 25.9335 91.2711 24.2926 91.2711C21.1882 91.2711 19.2812 88.9261 19.2812 85.8962C19.2812 82.8662 21.0774 80.6457 24.2039 80.6457ZM27.7075 85.9169C27.7075 83.1775 26.2661 82.3889 24.5366 82.3889C22.5852 82.3889 21.4765 83.7171 21.4765 85.8547C21.4765 87.9922 22.6961 89.5279 24.714 89.5279C26.2662 89.5279 27.7075 88.6563 27.7075 85.9169Z" fill="white"/>
<path d="M38.347 80.6457C41.4119 80.6457 43.0522 82.8721 43.0522 85.6237C43.0522 85.8968 42.9875 86.4639 42.9875 86.4639H35.0231C35.1526 88.7323 36.8361 90.0136 38.7787 90.0136C40.7212 90.0136 41.9731 88.7743 41.9731 88.7743L42.8796 90.2236C42.8796 90.2236 41.2608 91.7779 38.6708 91.7779C35.2174 91.7779 32.8647 89.3625 32.8647 86.2118C32.8647 82.8301 35.239 80.6457 38.347 80.6457ZM40.8939 84.9726C40.8291 83.2082 39.6852 82.263 38.3254 82.263C36.7282 82.263 35.4332 83.2082 35.1095 84.9726H40.8939Z" fill="white"/>
<path d="M45.3662 83.1601C45.3662 82.8378 45.1801 82.6873 44.8545 82.6873H43.9009V80.9036H46.064C47.0641 80.9036 47.5526 81.3119 47.5526 82.1071V82.5154C47.5526 82.8592 47.506 83.1386 47.506 83.1386H47.5526C48.0177 82.193 49.4133 80.6457 51.9718 80.6457C54.7629 80.6457 56.0189 82.0426 56.0189 84.8149V89.5214C56.0189 89.8438 56.205 89.9942 56.5306 89.9942H57.4842V91.7779H55.2513C54.2047 91.7779 53.7627 91.3696 53.7627 90.4025V85.2877C53.7627 83.7619 53.4371 82.5584 51.5531 82.5584C49.6691 82.5584 48.2969 83.6544 47.8317 85.2232C47.6689 85.6531 47.6223 86.1473 47.6223 86.6846V91.7779H45.3662V83.1601Z" fill="white"/>
<path d="M64.1549 80.6457C65.4605 80.6457 68.0501 81.1708 68.0501 82.9772V84.0694H66.1667V83.4813C66.1667 82.7251 64.9468 82.389 64.1549 82.389C62.0361 82.389 60.4523 83.9434 60.4523 86.1908C60.4523 88.6063 62.2501 89.9716 64.2619 89.9716C66.2738 89.9716 67.6221 88.5013 67.6221 88.5013L68.521 89.9506C68.521 89.9506 66.98 91.7779 64.1121 91.7779C60.7092 91.7779 58.3335 89.4045 58.3335 86.2118C58.3335 83.0192 60.6663 80.6457 64.1549 80.6457Z" fill="white"/>
<path d="M71.6643 83.1968C71.6643 82.8758 71.4807 82.726 71.1595 82.726H70.2188V80.9498H72.3985C73.431 80.9498 73.867 81.3564 73.867 82.3194V89.531C73.867 89.852 74.0505 90.0018 74.3718 90.0018H75.3125V91.778H73.1327C72.1002 91.778 71.6643 91.3714 71.6643 90.4084V83.1968ZM71.7102 76.6699H73.7064V78.8313H71.7102V76.6699Z" fill="white"/>
<path d="M83.0736 84.9096H83.5721V84.8045C83.5721 82.9352 82.8243 82.263 81.034 82.263C80.4901 82.263 79.153 82.389 79.153 83.0822V83.6913H77.0908V82.6411C77.0908 80.8977 79.9462 80.6457 81.0566 80.6457C84.7732 80.6457 85.7704 82.4521 85.7704 84.8045V89.3204C85.7704 89.6355 85.9517 89.7825 86.2689 89.7825H87.1981V91.5259H85.1358C84.116 91.5259 83.7081 91.0638 83.7081 90.3076C83.7081 89.9506 83.7534 89.6775 83.7534 89.6775H83.7081C83.7081 89.6775 82.8016 91.7779 80.0595 91.7779C78.0879 91.7779 76.1616 90.6647 76.1616 88.5433C76.1616 85.1196 81.1473 84.9096 83.0736 84.9096ZM80.5354 90.1396C82.3937 90.1396 83.5948 88.3332 83.5948 86.7579V86.4009H83.0282C81.3739 86.4009 78.3825 86.4849 78.3825 88.4383C78.3825 89.2994 79.085 90.1396 80.5354 90.1396Z" fill="white"/>
<path d="M89.1409 88.5433C89.1409 88.5433 90.4537 90.1186 92.4886 90.1186C93.517 90.1186 94.4141 89.6775 94.4141 88.7533C94.4141 86.8419 88.3751 87.052 88.3751 83.6283C88.3751 81.5909 90.2349 80.6457 92.4886 80.6457C93.8233 80.6457 96.1207 81.0868 96.1207 82.7041V83.7123H94.2171V83.1872C94.2171 82.5571 93.2325 82.284 92.5542 82.284C91.3071 82.284 90.4975 82.7041 90.4975 83.5443C90.4975 85.5607 96.5365 85.1196 96.5365 88.6693C96.5365 90.5597 94.786 91.7779 92.4667 91.7779C89.5129 91.7779 88.0469 89.9086 88.0469 89.9086L89.1409 88.5433Z" fill="white"/>
<path d="M103.328 89.9376H103.643C104.047 89.9376 104.25 89.852 104.385 89.4668L109.353 76.6699H111.713L116.681 89.4668C116.816 89.852 117.041 89.9376 117.423 89.9376H117.76V91.778H116.502C115.378 91.778 115.018 91.5212 114.658 90.5368L113.467 87.4339H107.622L106.43 90.5368C106.048 91.5212 105.689 91.778 104.565 91.778H103.328V89.9376ZM112.901 85.6363L111.17 81.0354C110.878 80.2436 110.541 78.9169 110.541 78.9169H110.496C110.496 78.9169 110.181 80.2436 109.889 81.0354L108.158 85.6363H112.901Z" fill="white"/>
<path d="M119.983 78.8793C119.983 78.5637 119.809 78.4164 119.504 78.4164H118.609V76.6699H120.703C121.684 76.6699 122.099 77.0697 122.099 78.0166V81.4885C122.099 81.9935 122.055 82.3723 122.055 82.3723H122.099C122.099 82.3723 123.058 80.6258 125.653 80.6258C128.619 80.6258 130.495 82.8983 130.495 86.2019C130.495 89.5055 128.379 91.778 125.479 91.778C123.015 91.778 122.011 89.9894 122.011 89.9894H121.968C121.968 89.9894 122.011 90.3261 122.011 90.789V91.5255H119.983V78.8793ZM125.174 90.0315C126.918 90.0315 128.358 88.6427 128.358 86.2229C128.358 83.8031 127.071 82.4144 125.217 82.4144C123.582 82.4144 122.055 83.5296 122.055 86.244C122.055 88.1377 123.08 90.0315 125.174 90.0315Z" fill="white"/>
<path d="M138.132 80.6457C141.452 80.6457 143.229 82.8721 143.229 85.6237C143.229 85.8968 143.159 86.4639 143.159 86.4639H134.531C134.671 88.7323 136.495 90.0136 138.6 90.0136C140.704 90.0136 142.06 88.7743 142.06 88.7743L143.042 90.2236C143.042 90.2236 141.289 91.7779 138.483 91.7779C134.742 91.7779 132.193 89.3625 132.193 86.2118C132.193 82.8301 134.765 80.6457 138.132 80.6457ZM140.891 84.9726C140.821 83.2082 139.582 82.263 138.109 82.263C136.378 82.263 134.975 83.2082 134.625 84.9726H140.891Z" fill="white"/>
<path d="M149.429 80.6258C152.163 80.6258 153.074 82.2671 153.074 82.2671H153.121C153.121 82.2671 153.074 81.9514 153.074 81.5516V78.8793C153.074 78.5637 152.887 78.4164 152.56 78.4164H151.602V76.6699H153.845C154.897 76.6699 155.34 77.0697 155.34 78.0166V89.3161C155.34 89.6317 155.527 89.779 155.855 89.779H156.812V91.5255H154.639C153.611 91.5255 153.191 91.1046 153.191 90.3892C153.191 90.0736 153.214 89.8421 153.214 89.8421H153.167C153.167 89.8421 152.186 91.778 149.289 91.778C146.088 91.778 144.078 89.5055 144.078 86.2019C144.078 82.8983 146.298 80.6258 149.429 80.6258ZM153.144 86.1808C153.144 84.2871 152.046 82.3933 149.779 82.3933C147.933 82.3933 146.391 83.7821 146.391 86.2019C146.391 88.6217 147.77 90.0105 149.733 90.0105C151.485 90.0105 153.144 88.8952 153.144 86.1808Z" fill="white"/>
</svg>
