<svg width="161" height="118" viewBox="0 0 161 118" fill="none" xmlns="http://www.w3.org/2000/svg">
<path d="M65.2013 41.8909H84.1158C85.296 41.8909 86.2947 40.923 86.2947 39.7131V35.6299C86.2947 34.4503 85.3263 33.4522 84.1158 33.4522H69.6803C67.3197 33.4522 65.4132 31.5467 65.4132 29.1875V12.6429C65.4132 10.2837 67.3197 8.37817 69.6803 8.37817H100.972C102.243 8.31768 102.97 8.01522 102.97 7.04734C102.97 3.62953 99.8829 0.0302461 95.1921 0H64.8987C60.1776 0 57 3.44806 57 8.1362V33.7547C57.2118 38.2613 59.9658 41.8001 65.2013 41.8909Z" fill="white"/>
<path d="M94.7987 16.6656H75.8842C74.704 16.6656 73.7053 17.6335 73.7053 18.8433V22.9265C73.7053 24.1061 74.6737 25.1043 75.8842 25.1043H90.3197C92.6803 25.1043 94.5868 27.0098 94.5868 29.369V45.9136C94.5868 48.2728 92.6803 50.1783 90.3197 50.1783H59.0276C57.7566 50.2388 57.0303 50.5412 57.0303 51.5091C57.0303 54.9269 60.1171 58.5262 64.8079 58.5564H95.1013C99.8224 58.5564 103.03 55.1386 103 50.4505V24.832C102.818 20.3254 100.034 16.7866 94.7987 16.6958" fill="white"/>
<path d="M12.4161 85.3688C11.4486 86.3357 9.95706 86.9401 8.54614 86.9401C4.67619 86.9401 3.26527 84.2407 3.24511 81.7226C3.24511 80.2117 3.76917 78.7815 4.73666 77.8145C5.68399 76.8677 6.99413 76.3641 8.56629 76.3641C10.0175 76.3641 11.3277 76.8879 12.2951 77.8145L12.3959 77.9153L14.6131 75.7799L14.4922 75.6591C12.8595 74.0475 10.8036 73.2014 8.56629 73.2014C6.06695 73.2014 3.93042 74.0072 2.39856 75.5583C0.866708 77.0893 0 79.3455 0 81.7226C0.020156 85.5702 2.27763 90.0423 8.56629 90.0423C10.985 90.0423 13.1014 89.2164 14.6937 87.6451L14.7945 87.5444L12.537 85.268L12.4362 85.3688H12.4161Z" fill="white"/>
<path d="M18.3214 73.5439H15.2778V89.6797H18.3214V73.5439Z" fill="white"/>
<path d="M28.5606 84.0796C28.5606 85.7717 27.3916 87.0408 25.8597 87.0408C24.3279 87.0408 23.3201 85.953 23.3201 84.2004V78.1973H20.2563V84.2206C20.2563 87.6452 22.1309 89.8611 25.0333 89.8611C26.4644 89.8611 27.5327 89.4179 28.7017 88.3502L28.863 89.6999H31.6243V78.2175H28.5808V84.0796H28.5606Z" fill="white"/>
<path d="M42.932 83.9385C42.932 85.7515 41.6621 87.0609 39.9086 87.0609C38.3767 87.0609 36.8247 85.9933 36.8247 83.9385C36.8247 82.1658 38.155 80.8362 39.9086 80.8362C41.6621 80.8362 42.932 82.1054 42.932 83.9385ZM40.1504 77.9354C39.1628 77.9354 37.51 78.3987 36.6433 79.406V73.5439H33.5796V89.6797H36.4619L36.603 88.3905C37.5906 89.6394 39.0217 89.9215 40.09 89.9215C43.6173 89.9215 45.9957 87.5041 45.9957 83.9184C45.9957 80.3326 43.7584 77.9153 40.1504 77.9153" fill="white"/>
<path d="M59.1779 79.688C57.1421 79.4463 55.7715 79.0434 55.7715 77.8549C55.7715 76.6663 56.9809 75.9008 58.8957 75.9008C60.5888 75.9008 62.04 76.767 62.5238 77.593L62.6044 77.7138L65.2448 76.3642L65.1844 76.2231C64.1564 74.108 61.9392 73 58.8151 73C55.6909 73.0201 52.5264 74.5108 52.5264 77.7743C52.5264 81.4607 55.5901 82.327 58.8957 82.7299C61.2741 82.9917 62.423 83.6968 62.423 84.9055C62.423 86.9804 59.7422 87.1214 58.936 87.1214C56.8398 87.1214 55.2273 86.2149 54.6226 84.704L54.5621 84.5429L51.8008 85.9731L51.8612 86.094C52.9497 88.7732 55.2676 90.0826 58.9158 90.0826C62.2013 90.0826 65.7286 88.7128 65.7286 84.8853C65.7286 81.0579 62.5842 80.0909 59.198 79.688" fill="white"/>
<path d="M76.008 83.9587C76.008 85.5098 75.0405 87.1818 72.904 87.1818C71.0496 87.1818 69.7395 85.8523 69.7395 83.9385C69.7395 82.0248 71.0093 80.7154 72.904 80.7154C75.0405 80.7154 76.008 82.3874 76.008 83.9385M76.0886 79.4463C75.3429 78.5196 74.0529 77.9354 72.6621 77.9354C70.9085 77.9354 69.3767 78.4995 68.3084 79.547C67.2402 80.6147 66.6758 82.1255 66.6758 83.9385C66.6758 85.7515 67.2401 87.3833 68.3286 88.4509C69.3565 89.4783 70.8078 90.0222 72.5412 90.0222H72.6016C73.8312 90.0021 75.3429 89.438 76.1088 88.3905L76.2096 89.6797H79.112V78.2174H76.1692L76.0886 79.4463Z" fill="white"/>
<path d="M87.4769 78.0361C86.1668 78.0361 85.0582 78.4995 83.9295 79.547L83.7682 78.1973H81.0068V89.6797H84.0504V83.8176C84.0504 82.1255 85.2194 80.8362 86.7513 80.8362C88.2831 80.8362 89.2909 81.924 89.2909 83.6766V89.6797H92.3546V83.6565C92.3546 80.2923 90.3995 78.016 87.4568 78.016" fill="white"/>
<path d="M104.972 76.626H109.749V82.7701C109.749 85.3486 108.318 86.8998 105.92 86.8998C103.319 86.8998 102.07 85.6105 102.07 82.9514V82.7903H98.8247V82.9514C98.8247 87.3027 101.546 90.002 105.94 90.002C110.334 90.002 113.075 87.0811 113.075 82.7701V73.5439H104.992V76.626H104.972Z" fill="white"/>
<path d="M123.294 83.9587C123.294 85.5098 122.407 87.0811 120.412 87.0811C118.416 87.0811 117.53 85.5098 117.53 83.9587C117.53 82.4075 118.437 80.796 120.412 80.796C122.206 80.796 123.294 82.4075 123.294 83.9587ZM120.392 77.9958C116.945 77.9958 114.466 80.5139 114.466 83.9788C114.466 87.4437 116.925 89.9416 120.412 89.9416C123.899 89.9416 126.378 87.484 126.378 83.9788C126.378 80.4736 123.859 77.9958 120.372 77.9958" fill="white"/>
<path d="M136.799 79.0232C136.133 78.3585 134.944 77.9153 133.815 77.9153C132.788 77.9153 131.639 78.0764 130.752 79.2448L130.591 78.1973H127.749V89.6596H130.812V83.6162C130.812 81.1989 132.646 80.937 133.453 80.937C134.36 80.937 134.823 81.1787 135.347 81.6219L135.488 81.7428L136.879 79.0635L136.799 78.9829V79.0232Z" fill="white"/>
<path d="M145.083 83.6767C145.083 85.4091 143.954 86.6178 142.342 86.6178C140.729 86.6178 139.58 85.4091 139.58 83.6767C139.58 81.9442 140.729 80.6751 142.342 80.6751C143.954 80.6751 145.083 81.9241 145.083 83.6767ZM145.99 77.0289L144.881 78.4391C144.035 77.9153 143.087 77.8549 142.362 77.8549C138.996 77.8549 136.537 80.2924 136.537 83.6767C136.537 87.2423 138.774 89.438 142.362 89.438C143.652 89.438 145.042 90.0826 145.042 91.5331C145.042 92.9835 143.994 93.7893 142.362 93.7893C140.729 93.7893 139.6 92.8223 139.6 91.5331V91.3719H136.557V91.5331C136.557 94.5548 138.955 96.6699 142.382 96.6699C145.808 96.6699 148.126 94.6152 148.126 91.5331C148.126 90.4453 147.905 88.9143 145.99 87.8466C148.005 86.7386 148.167 84.4019 148.167 83.6767C148.167 82.3471 147.804 81.2794 147.038 80.3729L148.308 78.7614L146.03 77.0289H145.99Z" fill="white"/>
<path d="M152.278 82.4881C152.702 81.2996 153.75 80.6147 155.201 80.6147C156.652 80.6147 157.7 81.2996 157.922 82.4881H152.278ZM159.514 79.5671C158.507 78.4592 156.975 77.875 155.1 77.875C151.452 77.875 149.013 80.2924 149.013 83.8781C149.013 87.6451 151.432 89.9819 155.302 89.9819C157.237 89.9819 159.111 89.2769 160.22 88.1286L160.321 88.0279L158.325 86.0739L158.224 86.1947C157.6 86.8394 156.269 87.1818 155.342 87.1818C153.629 87.1818 152.46 86.3962 152.198 85.1069H160.885V84.9659C161.107 82.6694 160.643 80.8161 159.514 79.5873" fill="white"/>
<path d="M20 113.419H20.2471C20.5649 113.419 20.7238 113.352 20.8297 113.049L24.7311 103H26.5846L30.486 113.049C30.5919 113.352 30.7684 113.419 31.0686 113.419H31.3334V114.864H30.3448C29.4621 114.864 29.1797 114.662 28.8972 113.889L27.9616 111.453H23.3718L22.4361 113.889C22.136 114.662 21.8536 114.864 20.9709 114.864H20V113.419ZM27.5203 110.041L26.161 106.428C25.9315 105.806 25.6667 104.764 25.6667 104.764H25.6314C25.6314 104.764 25.3842 105.806 25.1547 106.428L23.7954 110.041H27.5203Z" fill="white"/>
<path d="M35.8657 106.122C38.0597 106.122 38.6866 107.41 38.6866 107.41H38.7214V107.149C38.7214 106.66 39 106.318 39.6965 106.318H41.3333V107.67H40.6368C40.4105 107.67 40.2537 107.784 40.2537 107.996V114.222C40.2537 116.943 38.0423 117.986 35.8134 117.986C34.7512 117.986 33.6716 117.709 32.801 117.302L33.3756 116.03C33.3756 116.03 34.4552 116.585 35.7786 116.585C37.311 116.585 38.5647 115.949 38.5647 114.287V113.733C38.5647 113.472 38.5995 113.211 38.5995 113.211H38.5647C38.0423 114.01 37.2239 114.466 35.9353 114.466C33.4975 114.466 32 112.624 32 110.245C32 107.866 33.4104 106.122 35.8657 106.122ZM38.6169 110.261C38.6169 108.11 37.4851 107.491 36.1269 107.491C34.5945 107.491 33.7239 108.534 33.7239 110.213C33.7239 111.891 34.6816 113.097 36.2662 113.097C37.4851 113.097 38.6169 112.413 38.6169 110.261Z" fill="white"/>
<path d="M46.9721 106.122C49.3789 106.122 50.667 107.87 50.667 110.031C50.667 110.246 50.6162 110.691 50.6162 110.691H44.3619C44.4636 112.472 45.7856 113.478 47.3111 113.478C48.8365 113.478 49.8195 112.505 49.8195 112.505L50.5314 113.643C50.5314 113.643 49.2602 114.864 47.2263 114.864C44.5145 114.864 42.667 112.967 42.667 110.493C42.667 107.837 44.5314 106.122 46.9721 106.122ZM48.9721 109.52C48.9212 108.134 48.0229 107.392 46.9551 107.392C45.7009 107.392 44.6839 108.134 44.4297 109.52H48.9721Z" fill="white"/>
<path d="M52.4837 108.097C52.4837 107.843 52.3376 107.725 52.0819 107.725H51.333V106.325H53.0316C53.817 106.325 54.2006 106.645 54.2006 107.27V107.59C54.2006 107.86 54.1641 108.08 54.1641 108.08H54.2006C54.5659 107.337 55.6618 106.122 57.6709 106.122C59.8627 106.122 60.849 107.219 60.849 109.396V113.092C60.849 113.345 60.9951 113.463 61.2508 113.463H61.9997V114.864H60.2463C59.4243 114.864 59.0773 114.543 59.0773 113.784V109.767C59.0773 108.569 58.8216 107.624 57.3421 107.624C55.8627 107.624 54.7851 108.485 54.4198 109.717C54.2919 110.054 54.2554 110.442 54.2554 110.864V114.864H52.4837V108.097Z" fill="white"/>
<path d="M67.2384 106.122C68.2636 106.122 70.2973 106.534 70.2973 107.953V108.811H68.8183V108.349C68.8183 107.755 67.8603 107.491 67.2384 107.491C65.5746 107.491 64.3309 108.712 64.3309 110.477C64.3309 112.373 65.7426 113.445 67.3225 113.445C68.9023 113.445 69.9611 112.291 69.9611 112.291L70.667 113.429C70.667 113.429 69.4569 114.864 67.2048 114.864C64.5325 114.864 62.667 113 62.667 110.493C62.667 107.986 64.4989 106.122 67.2384 106.122Z" fill="white"/>
<path d="M73.1356 108.125C73.1356 107.873 72.9915 107.756 72.7392 107.756H72.0005V106.361H73.7122C74.523 106.361 74.8654 106.68 74.8654 107.436V113.1C74.8654 113.352 75.0095 113.469 75.2618 113.469H76.0005V114.864H74.2888C73.478 114.864 73.1356 114.545 73.1356 113.788V108.125ZM73.1717 103H74.7392V104.697H73.1717V103Z" fill="white"/>
<path d="M82.0943 109.47H82.4858V109.388C82.4858 107.92 81.8985 107.392 80.4927 107.392C80.0655 107.392 79.0156 107.491 79.0156 108.035V108.514H77.3961V107.689C77.3961 106.32 79.6384 106.122 80.5105 106.122C83.429 106.122 84.212 107.541 84.212 109.388V112.934C84.212 113.182 84.3544 113.297 84.6035 113.297H85.3332V114.666H83.7137C82.9129 114.666 82.5926 114.303 82.5926 113.709C82.5926 113.429 82.6282 113.215 82.6282 113.215H82.5926C82.5926 113.215 81.8808 114.864 79.7274 114.864C78.1792 114.864 76.6665 113.99 76.6665 112.324C76.6665 109.635 80.5816 109.47 82.0943 109.47ZM80.1011 113.577C81.5604 113.577 82.5036 112.159 82.5036 110.922V110.641H82.0587C80.7596 110.641 78.4105 110.707 78.4105 112.241C78.4105 112.918 78.9622 113.577 80.1011 113.577Z" fill="white"/>
<path d="M86.8591 112.324C86.8591 112.324 87.89 113.561 89.488 113.561C90.2955 113.561 91 113.215 91 112.489C91 110.988 86.2577 111.153 86.2577 108.464C86.2577 106.864 87.7182 106.122 89.488 106.122C90.5361 106.122 92.3402 106.468 92.3402 107.738V108.53H90.8454V108.118C90.8454 107.623 90.0722 107.409 89.5395 107.409C88.5601 107.409 87.9244 107.738 87.9244 108.398C87.9244 109.982 92.6667 109.635 92.6667 112.423C92.6667 113.907 91.2921 114.864 89.4708 114.864C87.1512 114.864 86 113.396 86 113.396L86.8591 112.324Z" fill="white"/>
<path d="M98 113.419H98.2471C98.5649 113.419 98.7238 113.352 98.8297 113.049L102.731 103H104.585L108.486 113.049C108.592 113.352 108.768 113.419 109.069 113.419H109.333V114.864H108.345C107.462 114.864 107.18 114.662 106.897 113.889L105.962 111.453H101.372L100.436 113.889C100.136 114.662 99.8536 114.864 98.9709 114.864H98V113.419ZM105.517 110.041L104.158 106.428C103.929 105.806 103.664 104.764 103.664 104.764H103.628C103.628 104.764 103.381 105.806 103.152 106.428L101.792 110.041H105.517Z" fill="white"/>
<path d="M111.079 104.735C111.079 104.487 110.942 104.371 110.702 104.371H110V103H111.644C112.415 103 112.74 103.314 112.74 104.058V106.784C112.74 107.18 112.706 107.478 112.706 107.478H112.74C112.74 107.478 113.494 106.106 115.532 106.106C117.861 106.106 119.333 107.891 119.333 110.485C119.333 113.079 117.672 114.864 115.395 114.864C113.459 114.864 112.672 113.459 112.672 113.459H112.637C112.637 113.459 112.672 113.724 112.672 114.087V114.666H111.079V104.735ZM115.155 113.493C116.525 113.493 117.655 112.402 117.655 110.502C117.655 108.602 116.645 107.511 115.189 107.511C113.905 107.511 112.706 108.387 112.706 110.518C112.706 112.005 113.511 113.493 115.155 113.493Z" fill="white"/>
<path d="M125.331 106.122C127.938 106.122 129.334 107.87 129.334 110.031C129.334 110.246 129.279 110.691 129.279 110.691H122.503C122.613 112.472 124.046 113.478 125.698 113.478C127.351 113.478 128.416 112.505 128.416 112.505L129.187 113.643C129.187 113.643 127.81 114.864 125.606 114.864C122.668 114.864 120.667 112.967 120.667 110.493C120.667 107.837 122.687 106.122 125.331 106.122ZM127.498 109.52C127.442 108.134 126.469 107.392 125.312 107.392C123.954 107.392 122.852 108.134 122.577 109.52H127.498Z" fill="white"/>
<path d="M134.202 106.106C136.349 106.106 137.064 107.395 137.064 107.395H137.101C137.101 107.395 137.064 107.147 137.064 106.833V104.735C137.064 104.487 136.917 104.371 136.661 104.371H135.908V103H137.67C138.495 103 138.844 103.314 138.844 104.058V112.931C138.844 113.179 138.991 113.294 139.248 113.294H140V114.666H138.294C137.486 114.666 137.156 114.335 137.156 113.773C137.156 113.526 137.174 113.344 137.174 113.344H137.138C137.138 113.344 136.367 114.864 134.092 114.864C131.578 114.864 130 113.079 130 110.485C130 107.891 131.743 106.106 134.202 106.106ZM137.119 110.469C137.119 108.982 136.257 107.494 134.477 107.494C133.028 107.494 131.817 108.585 131.817 110.485C131.817 112.385 132.899 113.476 134.44 113.476C135.817 113.476 137.119 112.6 137.119 110.469Z" fill="white"/>
</svg>
